<svg width="23" height="35" viewBox="0 0 23 35" fill="none" xmlns="http://www.w3.org/2000/svg">
<g clip-path="url(#clip0_3_11)">
<path d="M11.9258 15.3322H19.5925L18.7407 18.7396H11.9258V34.0729H8.51843V18.7396H1.70361V15.3322H8.51843V12.1428C8.51843 9.10514 8.83532 8.00284 9.42821 6.89203C10.0092 5.79451 10.9067 4.89701 12.0042 4.31603C13.115 3.72314 14.2173 3.40625 17.255 3.40625C18.1444 3.40625 18.9247 3.49144 19.5925 3.66181V6.81366H17.255C14.9993 6.81366 14.3127 6.94655 13.6108 7.32136C13.107 7.58459 12.696 7.99611 12.4335 8.50032C12.0587 9.20055 11.9258 9.88714 11.9258 12.1428V15.3322Z" fill="#444444"/>
</g>
<defs>
<clipPath id="clip0_3_11">
<rect width="23" height="34.0741" fill="white"/>
</clipPath>
</defs>
</svg>
