<svg width="38" height="38" viewBox="0 0 38 38" fill="none" xmlns="http://www.w3.org/2000/svg">
<path d="M12.35 3.16797H25.65C30.7166 3.16797 34.8333 7.28464 34.8333 12.3513V25.6513C34.8333 28.0869 33.8658 30.4227 32.1436 32.1449C30.4213 33.8671 28.0855 34.8346 25.65 34.8346H12.35C7.28329 34.8346 3.16663 30.718 3.16663 25.6513V12.3513C3.16663 9.91573 4.13415 7.57991 5.85636 5.85771C7.57857 4.1355 9.91439 3.16797 12.35 3.16797ZM12.0333 6.33464C10.5216 6.33464 9.07174 6.93517 8.00278 8.00413C6.93383 9.07308 6.33329 10.5229 6.33329 12.0346V25.968C6.33329 29.1188 8.88246 31.668 12.0333 31.668H25.9666C27.4784 31.668 28.9282 31.0674 29.9971 29.9985C31.0661 28.9295 31.6666 27.4797 31.6666 25.968V12.0346C31.6666 8.8838 29.1175 6.33464 25.9666 6.33464H12.0333ZM27.3125 8.70964C27.8374 8.70964 28.3408 8.91815 28.7119 9.28932C29.0831 9.66049 29.2916 10.1639 29.2916 10.6888C29.2916 11.2137 29.0831 11.7171 28.7119 12.0883C28.3408 12.4594 27.8374 12.668 27.3125 12.668C26.7876 12.668 26.2841 12.4594 25.913 12.0883C25.5418 11.7171 25.3333 11.2137 25.3333 10.6888C25.3333 10.1639 25.5418 9.66049 25.913 9.28932C26.2841 8.91815 26.7876 8.70964 27.3125 8.70964ZM19 11.0846C21.0996 11.0846 23.1132 11.9187 24.5979 13.4034C26.0826 14.888 26.9166 16.9017 26.9166 19.0013C26.9166 21.1009 26.0826 23.1146 24.5979 24.5992C23.1132 26.0839 21.0996 26.918 19 26.918C16.9003 26.918 14.8867 26.0839 13.402 24.5992C11.9174 23.1146 11.0833 21.1009 11.0833 19.0013C11.0833 16.9017 11.9174 14.888 13.402 13.4034C14.8867 11.9187 16.9003 11.0846 19 11.0846ZM19 14.2513C17.7402 14.2513 16.532 14.7517 15.6412 15.6425C14.7504 16.5333 14.25 17.7415 14.25 19.0013C14.25 20.2611 14.7504 21.4693 15.6412 22.3601C16.532 23.2509 17.7402 23.7513 19 23.7513C20.2597 23.7513 21.4679 23.2509 22.3587 22.3601C23.2495 21.4693 23.75 20.2611 23.75 19.0013C23.75 17.7415 23.2495 16.5333 22.3587 15.6425C21.4679 14.7517 20.2597 14.2513 19 14.2513Z" fill="#444444"/>
</svg>
