<svg width="125" height="68" xmlns="http://www.w3.org/2000/svg"><path d="M59.216 27.23c5.64 2.882 11.394 5.496 26.745-1.633l.083-.04c9.968-4.621 15.209-5.457 18.573-.486.245.372.77.236.502-1.044-.766-3.834-3.332-5.82-7.108-6.147-4.49-.405-11.34 2.757-11.34 2.757-12.01 5.445-14.697 5.311-19.24 4.588-7.477-1.187-16.306-8.845-19.208-11.19-2.915-2.368-6.359-4.784-10.31-4.31-.921.115-1.814.383-2.612.847-.297.165-1.497.869-1.303 1.304.133.31.605.206.851.154l1.528-.227c2.214-.237 5.392.424 9.188 3.762 4.709 4.133 8.984 9.28 13.65 11.665zM36.09.002c1.897-.031 3.793.332 5.62.993 3.774 1.374 6.984 3.69 10.235 5.982 3.188 2.263 6.326 4.723 9.815 6.532 3.782 1.961 6.86 2.685 9.455 2.737 4.133.062 7.013-1.611 9.557-2.748.074-.033 7.242-3.575 11.774-3.72 4.666-.154 7.149 2.696 7.816 4.989.328 1.128.09 1.748-.381 1.22-1.373-1.52-2.79-2.55-5.2-2.583-2.235-.04-5.333.765-10.029 2.842-8.051 3.533-14.725 7.543-25.608.816-3.877-2.396-7.578-5.043-11.292-7.677-3.352-2.398-7.003-5.094-11.3-5.197-2.842-.073-5.713.641-7.529 2.934-.338.434-.604.94-1.056 1.282-.338.247-3.836 2.148-4.482 5.259-.257 1.23-.124 2.676-.748 3.792-.637 1.168-3.95 3.564-4.513 3.958-.246.165-1.23.69-1.178.991.092.62.707 1.095 1.198 1.427.421.29.626.774.617 1.27-.01.6-.32 1.18-.76 1.57-.37.33.39.961.686 1.085.249.114.504.25.452.569-.06.3-.347.332-.533.538a1.852 1.852 0 0 0-.377.702c-.074.248-.022.248.153.413.1.094.183.196.257.3.131.186.223.423.212.65-.018.466-.43.952-.594 1.387-.338.919-.349 2.066.823 2.282.995.185 2.12-.05 3.127-.092 1.117-.073 2.234-.136 3.352-.124 1.108 0 2.227.06 3.335.238 2.01.319 3.935.97 5.312 2.541 1.385 1.59 1.999 3.699 2.236 5.756.05.422-.41.464-.595.185-.256-.372-1.263-2.687-2.82-3.957-2.164-1.779-4.73-2.19-7.355-2.17-2.112.009-4.266.29-6.306.38-.339.011-.698.033-1.047.044h-.544c-.718-.022-1.436-.125-2.042-.424-1.024-.517-1.383-1.581-1.36-2.665.009-.662.133-1.303.297-1.933.162-.641.212-.993-.362-1.437-.973-.743.268-2.036 1.006-2.355-.452-.299-.882-.662-1.006-1.22a1.976 1.976 0 0 1-.009-.734c.03-.216.306-.35.45-.495.277-.28.543-.662.504-1.064-.05-.497-.594-.796-.923-1.117-.587-.578-1.353-1.664-.81-2.521.185-.289.624-.497.901-.682.515-.34 3.764-2.46 4.698-3.388.502-.508.718-.952.842-1.633.103-.611.214-1.21.358-1.81.421-1.87 1.037-3.781 2.399-5.175 1.19-1.22 2.893-2.128 3.057-2.233.08-.06.165-.145.235-.238.177-.257.227-.6.33-.888.676-1.88 2.326-3.265 4.08-4.113C32.296.415 34.182.023 36.09.002zM101.571 26.3c-5.928-.62-14.593 3.72-16.581 4.536-4.218 1.725-7.88 3.339-12.523 3.845-11.824 1.31-17.897-6.51-21.754-9.766-1.436-1.23-2.87-2.48-4.635-3.212-.912-.383-1.927-.684-2.922-.611-.318.03-1.15.134-1.15.527 0 .403.923.247 2.237 1.23a27.612 27.612 0 0 1 3.456 2.996c1.56 1.603 3.395 3.638 4.984 5.208 7.875 7.76 12.758 7.904 14.914 8.121 10.057.981 17.893-3.792 25.032-6.778 8.214-3.451 12.852-2.624 15.218 1.456.36.622.85.312.729-.763-.387-3.328-2.645-6.345-7.005-6.789zM83.325 62.734V46.51h-4.11l.008 16.78S79 67.58 83.316 67.58H95.15s.76-1.466 1.743-3.645H84.57c-.688 0-1.244-.528-1.244-1.2zm-19.946 0V46.51h-4.122v16.792s-.226 4.276 4.093 4.276h13.896s.196-3.645-1.754-3.645H64.6c-.678 0-1.222-.519-1.222-1.2zm52.6-14.157s-.84-2.088-3.035-2.088h-3.395c-2.183 0-3.055 2.088-3.055 2.088l-9.005 18.991h4.883l1.885-4.039h13.979l1.887 4.04h4.872l-9.016-18.992zm-10.439 11.76s2.913-6.53 4.37-9.3c.215-.402.605-.93 1.312-.951.842.021 1.118.516 1.332.94 1.479 2.76 4.39 9.311 4.39 9.311H105.54zM39.567 62.61v-3.966h12.008v-3.691H39.567v-3.575s-.011-1.136 1.26-1.136h13.97c1.517 0 1.733-3.69 1.733-3.69H39.997c-4.86 0-4.687 4.226-4.687 4.226V63.23s.063 4.36 4.79 4.36h16.543s.153-3.595-1.796-3.689l-14.02.01c-1.413 0-1.26-1.3-1.26-1.3zM24.13 61.38l-4.554-12.862c.033.049-.397-1.665-1.516-1.686-.35-.062-2.492-.042-2.492-.042s-1.211-.187-1.91 1.746L9.058 61.36 4.351 46.5H0l6.77 21.068h4.06l5.721-15.157 5.518 15.157h4.237L33.291 46.5h-4.268l-4.892 14.88z" fill="#FFFFFF" fill-rule="evenodd"/></svg>