<svg width="317" height="39" viewBox="0 0 317 39" fill="none" xmlns="http://www.w3.org/2000/svg">
<line y1="20.5" x2="115" y2="20.5" stroke="#7D072A"/>
<line x1="202" y1="20.5" x2="317" y2="20.5" stroke="#7D072A"/>
<rect x="139.5" y="0.5" width="38" height="38" stroke="#7D072A"/>
<path d="M154.421 22.7597C154.421 23.9467 154.653 24.6705 155.087 24.96C155.608 25.2785 156.679 25.4233 158.272 25.4233H159.169C160.761 25.4233 161.833 25.2785 162.354 24.96C162.788 24.6705 162.991 23.9467 162.991 22.7597C162.991 21.5726 162.759 20.8199 162.325 20.5593C161.804 20.2408 160.761 20.0671 159.169 20.0671H158.272C156.679 20.0671 155.608 20.2408 155.087 20.5593C154.653 20.8488 154.421 21.5726 154.421 22.7597ZM161.369 17.2877C162.875 17.1719 162.991 16.2165 162.991 14.9715C162.991 13.6976 162.904 12.7711 161.398 12.6264C160.646 12.5395 160.269 12.5395 159.169 12.5395H158.243C156.94 12.5395 156.592 12.5395 155.811 12.6553C154.566 12.8001 154.421 13.8134 154.421 14.9426C154.537 16.3612 154.682 16.9403 155.492 17.2008C156.274 17.3745 156.795 17.3745 158.272 17.3745H159.169C160.269 17.3745 160.617 17.3745 161.369 17.2877ZM165.683 22.7886C165.683 27.0446 163.657 28.1448 159.169 28.1448H158.272C154.334 28.1448 151.728 27.3051 151.728 22.7886C151.728 21.0225 152.192 19.6618 153.031 18.7932C152.163 17.9536 151.728 16.6797 151.728 14.9426C151.728 10.2813 154.508 9.84697 158.272 9.84697H159.169C162.933 9.84697 165.683 10.3102 165.683 14.9426C165.683 16.7086 165.278 18.0115 164.409 18.7932C165.249 19.7197 165.683 21.0515 165.683 22.7886Z" fill="#7D072A"/>
</svg>
