<svg width="317" height="39" viewBox="0 0 317 39" fill="none" xmlns="http://www.w3.org/2000/svg">
<line y1="20.5" x2="115" y2="20.5" stroke="#7D072A"/>
<line x1="202" y1="20.5" x2="317" y2="20.5" stroke="#7D072A"/>
<rect x="139.5" y="0.5" width="38" height="38" stroke="#7D072A"/>
<path d="M157.533 26.6972V13.0028C157.273 13.1475 157.012 13.2054 156.752 13.2054C155.854 13.2054 155.449 12.5685 155.449 11.9894C155.449 11.5841 155.651 11.1788 156.028 10.8313C156.578 10.2813 157.128 9.73116 157.678 9.18107C158.054 8.83364 158.46 8.65993 158.865 8.65993C159.473 8.65993 160.226 9.12316 160.226 10.0786V26.6972C160.226 27.6815 159.792 28.2027 158.894 28.2027C157.968 28.2027 157.533 27.6815 157.533 26.6972Z" fill="#7D072A"/>
</svg>
