<svg width="317" height="39" viewBox="0 0 317 39" fill="none" xmlns="http://www.w3.org/2000/svg">
<line y1="20.5" x2="115" y2="20.5" stroke="#7D072A"/>
<line x1="202" y1="20.5" x2="317" y2="20.5" stroke="#7D072A"/>
<rect x="139.5" y="0.5" width="38" height="38" stroke="#7D072A"/>
<path d="M158.706 18.0983C156.303 18.0983 154.421 19.2275 154.421 21.8332C154.421 24.4389 156.303 25.5391 158.706 25.5391C161.138 25.5391 162.991 24.4389 162.991 21.8332C162.991 19.2275 161.109 18.0983 158.706 18.0983ZM151.728 21.8332C151.728 16.9403 153.813 13.3791 155.753 11.642C157.142 10.3392 158.33 9.76011 158.937 9.76011C159.922 9.76011 160.414 10.1944 160.414 11.034C160.414 11.5841 160.067 12.0184 159.401 12.3369H159.43C158.04 13.0028 156.679 14.1898 155.753 15.9269C156.65 15.5795 157.635 15.4058 158.706 15.4058C162.528 15.4058 165.683 17.8378 165.683 21.8332C165.683 25.8286 162.528 28.2316 158.706 28.2316C154.913 28.2316 151.728 25.8575 151.728 21.8332Z" fill="#7D072A"/>
</svg>
