<svg width="317" height="39" viewBox="0 0 317 39" fill="none" xmlns="http://www.w3.org/2000/svg">
<line y1="20.5" x2="115" y2="20.5" stroke="#7D072A"/>
<line x1="202" y1="20.5" x2="317" y2="20.5" stroke="#7D072A"/>
<rect x="139.5" y="0.5" width="38" height="38" stroke="#7D072A"/>
<path d="M159.201 12.3555H156.828C156.33 12.3555 153.664 12.707 153.664 13.3809C153.664 14.4062 153.225 14.9336 152.316 14.9336C151.408 14.9336 150.939 14.377 150.939 13.3223C150.939 11.3301 153.137 9.63086 156.623 9.63086H158.879C163.361 9.63086 165.061 11.1836 165.061 15.3438C165.061 16.7207 163.479 18.0098 162.395 18.6836C163.508 19.4453 165.061 21.0273 165.061 22.4336C165.061 26.5938 163.361 28.1465 158.879 28.1465H156.623C153.137 28.1465 150.939 26.4473 150.939 24.4844C150.939 23.3711 151.408 22.8438 152.316 22.8438C153.225 22.8438 153.664 23.3418 153.664 24.3965C153.664 25.0703 156.33 25.3926 156.828 25.3926H159.201C161.604 25.3926 162.365 24.543 162.365 22.9023C162.365 21.2324 159.26 20.0605 157.883 20.0605C156.682 20.0605 156.096 19.5918 156.096 18.6543C156.096 17.7461 156.682 17.3066 157.883 17.3066C159.172 17.3066 162.365 16.5449 162.365 14.8457C162.365 13.2051 161.604 12.3555 159.201 12.3555Z" fill="#7D072A"/>
</svg>
