<svg width="317" height="39" viewBox="0 0 317 39" fill="none" xmlns="http://www.w3.org/2000/svg">
<line y1="20.5" x2="115" y2="20.5" stroke="#7D072A"/>
<line x1="202" y1="20.5" x2="317" y2="20.5" stroke="#7D072A"/>
<rect x="139.5" y="0.5" width="38" height="38" stroke="#7D072A"/>
<path d="M153.162 23.4545C153.364 23.4545 153.596 23.5993 153.972 23.8309C154.841 24.381 156.665 25.5391 158.576 25.5391C161.326 25.5391 162.832 23.9177 162.861 21.312C162.803 19.2854 161.326 17.8088 159.299 17.8088H151.974L152.264 13.8424C152.467 10.8603 153.509 9.84697 155.999 9.84697H162.918C163.932 9.84697 164.424 10.3102 164.424 11.2367C164.424 12.1052 163.932 12.5395 162.918 12.5395H155.796C155.333 12.5395 155.072 12.8001 155.014 13.4949L154.899 15.1163H159.068C162.629 15.1163 165.553 17.6351 165.553 21.312C165.553 25.6259 162.716 28.2316 158.576 28.2316C156.867 28.2316 151.859 26.9867 151.859 24.8153C151.859 24.1204 152.554 23.4545 153.162 23.4545Z" fill="#7D072A"/>
</svg>
