<svg width="317" height="39" viewBox="0 0 317 39" fill="none" xmlns="http://www.w3.org/2000/svg">
<line y1="20.5" x2="115" y2="20.5" stroke="#7D072A"/>
<line x1="202" y1="20.5" x2="317" y2="20.5" stroke="#7D072A"/>
<rect x="139.5" y="0.5" width="38" height="38" stroke="#7D072A"/>
<path d="M159.169 12.5395C156.013 12.5395 154.421 13.3502 154.421 14.9715C154.421 17.3456 157.403 17.3745 159.169 17.3745C161.977 17.3745 162.991 16.5639 162.991 15.0005C162.991 13.4081 161.92 12.5395 159.169 12.5395ZM151.728 14.9715C151.728 10.7734 155.811 9.84697 159.169 9.84697C163.512 9.84697 165.683 11.5551 165.683 15.0005C165.683 23.0492 160.443 28.4343 155.203 28.4343C154.218 28.4343 153.726 27.971 153.726 27.0446C153.726 26.1471 154.218 25.7128 155.203 25.7128C156.361 25.7128 157.75 25.1627 159.198 24.1204C160.443 23.2229 161.63 21.6305 162.296 19.6907C161.427 19.9513 160.414 20.0671 159.169 20.0671C154.218 20.0671 151.728 18.3589 151.728 14.9715Z" fill="#7D072A"/>
</svg>
