<svg width="317" height="39" viewBox="0 0 317 39" fill="none" xmlns="http://www.w3.org/2000/svg">
<line y1="20.5" x2="115" y2="20.5" stroke="#7D072A"/>
<line x1="202" y1="20.5" x2="317" y2="20.5" stroke="#7D072A"/>
<rect x="139.5" y="0.5" width="38" height="38" stroke="#7D072A"/>
<path d="M166.061 17.1094C166.061 19.8926 162.896 21.4453 159.85 22.9395C157.887 23.877 155.338 25.1367 154.781 27.3926H164.449C165.533 27.3926 166.061 27.8613 166.061 28.7988C166.061 29.6777 165.533 30.1465 164.449 30.1465H151.969V28.1836C151.969 23.9062 155.807 22.0898 159.117 20.5078C161.373 19.4531 163.336 18.5156 163.336 17.1387C163.336 15.9082 163.131 15.1465 162.662 14.8535C162.135 14.5312 161.08 14.3555 159.469 14.3555H155.484C154.869 14.3555 154.693 14.5898 154.693 15.3223C154.693 16.377 154.225 16.9336 153.316 16.9336C152.408 16.9336 151.969 16.377 151.969 15.3223C151.969 12.6855 152.965 11.6309 155.309 11.6309H159.469C164.01 11.6309 166.061 12.7441 166.061 17.1094Z" fill="#7D072A"/>
</svg>
