<svg width="317" height="39" viewBox="0 0 317 39" fill="none" xmlns="http://www.w3.org/2000/svg">
<line y1="20.5" x2="115" y2="20.5" stroke="#7D072A"/>
<line x1="202" y1="20.5" x2="317" y2="20.5" stroke="#7D072A"/>
<rect x="139.5" y="0.5" width="38" height="38" stroke="#7D072A"/>
<path d="M157.982 28.2606C157.316 28.2606 156.506 27.9131 156.506 26.9577C156.506 26.7261 156.563 26.4366 156.708 26.176L162.18 12.4237H155.492C154.826 12.4237 154.653 12.6553 154.653 13.3502C154.653 14.4214 154.218 14.9426 153.321 14.9426C152.423 14.9426 151.96 14.4214 151.96 13.3502C151.96 10.7445 152.973 9.70221 155.29 9.70221H164.091C164.989 9.70221 165.452 10.1365 165.452 10.9761C165.452 11.2077 165.394 11.4683 165.307 11.7578L159.343 27.1604C159.082 27.8842 158.619 28.2606 157.982 28.2606Z" fill="#7D072A"/>
</svg>
