<?xml version="1.0" encoding="UTF-8"?>
<svg viewBox="0 0 526 313" xmlns="http://www.w3.org/2000/svg">
<path d="m48.568 220.8h9.1655v20.205h-5.2745v-15.881h-3.891v-4.324z" fill="#2F2F2F"/>
<path d="m46.568 116.8h9.1655v20.205h-5.2745v-15.881h-3.891v-4.324z" fill="#2F2F2F"/>
<path d="m460.57 221.8h9.165v20.205h-5.274v-15.881h-3.891v-4.324zm22.259-0.172c5.736 0 8.935 3.66 8.935 10.26 0 6.629-3.199 10.29-8.935 10.29-5.793 0-8.992-3.661-8.992-10.29 0-6.6 3.199-10.26 8.992-10.26zm0 3.919c-2.507 0-3.574 1.816-3.574 6.341 0 4.554 1.067 6.37 3.574 6.37 2.45 0 3.545-1.816 3.545-6.37 0-4.525-1.095-6.341-3.545-6.341zm31.737-5.361v3.401h-4.294v18.418h-5.131v-2.508c-1.066 1.787-2.767 2.739-4.986 2.739-3.372 0-5.563-2.335-5.563-5.967v-9.857h5.131v8.387c0 1.759 0.98 2.854 2.507 2.825 1.816-0.029 2.911-1.47 2.911-3.516v-13.922h9.425zm5.572 24.499h4.266v3.402h-9.396v-21.675h5.13v18.273z" fill="#444"/>
<path d="m87.691 242h-4.9538v-7.839c0-0.629-0.0282-1.262-0.0845-1.9-0.0375-0.628-0.1313-1.098-0.2815-1.407-0.1688-0.357-0.4128-0.61-0.7318-0.76-0.319-0.16-0.7459-0.239-1.2807-0.239-0.4034 0-0.8115 0.075-1.2243 0.225-0.4035 0.15-0.8445 0.389-1.3229 0.718v17h-4.9258v-27.696h4.9258v7.839c0.4034-0.338 0.7974-0.643 1.1821-0.915 0.3941-0.272 0.7881-0.502 1.1822-0.69 0.394-0.187 0.7975-0.328 1.2103-0.422 0.4128-0.103 0.8538-0.155 1.3229-0.155 1.6232 0 2.8569 0.507 3.7013 1.52 0.8538 1.004 1.2807 2.482 1.2807 4.433v10.288zm20.66 0h-4.926v-1.745c-0.844 0.704-1.628 1.248-2.35 1.632-0.722 0.366-1.5716 0.549-2.5473 0.549-0.7881 0-1.4918-0.126-2.111-0.38-0.6099-0.244-1.1306-0.61-1.5622-1.097-0.4222-0.498-0.7459-1.117-0.9711-1.858-0.2251-0.751-0.3377-1.623-0.3377-2.618v-12.933h-4.0813v-3.434h9.0351v13.918c0 0.817 0.0188 1.483 0.0563 1.999 0.0469 0.516 0.1501 0.952 0.3096 1.309 0.1502 0.328 0.38 0.577 0.6896 0.746 0.319 0.168 0.76 0.253 1.323 0.253 0.347 0 0.755-0.085 1.224-0.253 0.479-0.169 0.92-0.399 1.323-0.69v-11.202h4.926v15.804zm13.102-15.804h4.926v1.745c0.807-0.713 1.557-1.253 2.252-1.619 0.685-0.375 1.496-0.563 2.434-0.563 1.502 0 2.67 0.497 3.505 1.492 0.844 0.985 1.266 2.472 1.266 4.461v10.288h-4.953v-7.839c0-0.816-0.019-1.482-0.057-1.998-0.037-0.516-0.131-0.953-0.281-1.309-0.132-0.329-0.343-0.577-0.634-0.746-0.29-0.169-0.694-0.253-1.21-0.253-0.309 0-0.685 0.084-1.126 0.253-0.431 0.169-0.83 0.399-1.196 0.69v11.202h-4.926v-1.745c-0.797 0.704-1.548 1.248-2.251 1.632-0.695 0.366-1.506 0.549-2.435 0.549-1.501 0-2.674-0.492-3.518-1.477-0.836-0.995-1.253-2.487-1.253-4.476v-10.287h4.954v7.838c0 0.817 0.019 1.483 0.056 1.999 0.038 0.516 0.131 0.952 0.282 1.309 0.131 0.328 0.342 0.577 0.633 0.746 0.291 0.168 0.694 0.253 1.21 0.253 0.31 0 0.68-0.085 1.112-0.253 0.441-0.169 0.844-0.399 1.21-0.69v-11.202zm32.707 15.804h-4.926v-1.745c-0.844 0.704-1.628 1.248-2.35 1.632-0.356 0.188-0.746 0.324-1.168 0.409-0.422 0.093-0.882 0.14-1.379 0.14-0.788 0-1.492-0.126-2.111-0.38-0.61-0.244-1.131-0.61-1.562-1.097-0.423-0.498-0.746-1.117-0.971-1.858-0.226-0.751-0.338-1.623-0.338-2.618v-16.367h4.954v6.08h9.851v3.433h-9.851v4.405c0 0.77 0.018 1.427 0.056 1.971 0.037 0.544 0.136 0.99 0.295 1.337 0.16 0.347 0.399 0.6 0.718 0.76 0.319 0.159 0.755 0.239 1.309 0.239 0.347 0 0.755-0.085 1.224-0.253 0.479-0.169 0.92-0.399 1.323-0.69v-4.616h4.926v9.218zm20.646 0h-4.926v-1.745c-0.844 0.704-1.628 1.248-2.35 1.632-0.723 0.366-1.572 0.549-2.547 0.549-0.789 0-1.492-0.126-2.112-0.38-0.609-0.244-1.13-0.61-1.562-1.097-0.422-0.498-0.746-1.117-0.971-1.858-0.225-0.751-0.337-1.623-0.337-2.618v-12.933h-4.082v-3.434h9.035v13.918c0 0.817 0.019 1.483 0.057 1.999 0.047 0.516 0.15 0.952 0.309 1.309 0.15 0.328 0.38 0.577 0.69 0.746 0.319 0.168 0.76 0.253 1.323 0.253 0.347 0 0.755-0.085 1.224-0.253 0.479-0.169 0.92-0.399 1.323-0.69v-11.202h4.926v15.804zm18.45 0h-4.926v-1.745c-0.853 0.713-1.637 1.257-2.35 1.632-0.713 0.366-1.562 0.549-2.547 0.549-1.567 0-2.791-0.492-3.673-1.477-0.873-0.995-1.309-2.487-1.309-4.476v-10.287h4.954v7.838c0 0.817 0.018 1.483 0.056 1.999 0.047 0.516 0.15 0.952 0.31 1.309 0.15 0.328 0.38 0.577 0.689 0.746 0.319 0.168 0.76 0.253 1.323 0.253 0.347 0 0.755-0.085 1.224-0.253 0.479-0.169 0.92-0.399 1.323-0.69v-11.202h4.926v15.804zm18.591 0h-4.954v-7.839c0-0.629-0.028-1.262-0.084-1.9-0.038-0.628-0.132-1.098-0.282-1.407-0.169-0.357-0.412-0.61-0.731-0.76-0.319-0.16-0.746-0.239-1.281-0.239-0.404 0-0.812 0.075-1.225 0.225-0.403 0.15-0.844 0.389-1.322 0.718v17h-4.926v-27.696h4.926v7.839c0.403-0.338 0.797-0.643 1.182-0.915 0.394-0.272 0.788-0.502 1.182-0.69 0.394-0.187 0.797-0.328 1.21-0.422 0.413-0.103 0.854-0.155 1.323-0.155 1.623 0 2.857 0.507 3.701 1.52 0.854 1.004 1.281 2.482 1.281 4.433v10.288zm13.412-21.884h4.926v24.248h4.095v3.434h-9.021v-7.543c-0.844 0.704-1.628 1.248-2.35 1.632-0.723 0.366-1.572 0.549-2.547 0.549-0.789 0-1.492-0.126-2.111-0.38-0.61-0.244-1.131-0.61-1.563-1.097-0.422-0.498-0.746-1.117-0.971-1.858-0.225-0.751-0.337-1.623-0.337-2.618v-10.287h4.953v7.838c0 0.817 0.019 1.483 0.057 1.999 0.047 0.516 0.15 0.952 0.309 1.309 0.15 0.328 0.38 0.577 0.69 0.746 0.319 0.168 0.76 0.253 1.323 0.253 0.347 0 0.755-0.085 1.224-0.253 0.479-0.169 0.92-0.399 1.323-0.69v-17.282zm28.682 0h4.926v7.825c0.806-0.713 1.557-1.253 2.251-1.619 0.685-0.375 1.497-0.563 2.435-0.563 1.501 0 2.669 0.497 3.504 1.492 0.845 0.985 1.267 2.472 1.267 4.461v10.288h-4.954v-7.839c0-0.816-0.019-1.482-0.056-1.998-0.038-0.516-0.132-0.953-0.282-1.309-0.131-0.329-0.342-0.577-0.633-0.746s-0.694-0.253-1.21-0.253c-0.31 0-0.685 0.084-1.126 0.253-0.432 0.169-0.831 0.399-1.196 0.69v17h-4.926v-7.543c-0.798 0.704-1.548 1.248-2.252 1.632-0.694 0.366-1.506 0.549-2.435 0.549-1.501 0-2.674-0.492-3.518-1.477-0.835-0.995-1.253-2.487-1.253-4.476v-10.287h4.954v7.838c0 0.817 0.019 1.483 0.057 1.999 0.037 0.516 0.131 0.952 0.281 1.309 0.131 0.328 0.343 0.577 0.633 0.746 0.291 0.168 0.695 0.253 1.211 0.253 0.309 0 0.68-0.085 1.111-0.253 0.441-0.169 0.845-0.399 1.211-0.69v-17.282zm22.855 6.08v7.895c0 0.778 0.014 1.44 0.042 1.984 0.028 0.535 0.113 0.971 0.254 1.309 0.14 0.338 0.356 0.582 0.647 0.732 0.3 0.15 0.718 0.225 1.253 0.225 0.375 0 0.745-0.08 1.111-0.239 0.366-0.169 0.765-0.404 1.197-0.704v-11.202h4.953v7.895c0 0.76 0.015 1.412 0.043 1.956 0.037 0.535 0.126 0.976 0.267 1.323 0.141 0.338 0.357 0.586 0.647 0.746 0.301 0.15 0.713 0.225 1.239 0.225 0.403 0 0.797-0.094 1.182-0.282 0.385-0.187 0.76-0.408 1.126-0.661v-11.202h4.926v15.804h-4.926v-1.745c-0.385 0.31-0.755 0.6-1.112 0.872-0.347 0.263-0.704 0.493-1.069 0.69-0.366 0.188-0.756 0.338-1.169 0.45-0.403 0.113-0.849 0.169-1.337 0.169-0.966 0-1.815-0.23-2.547-0.689-0.722-0.46-1.28-1.145-1.675-2.055-0.947 0.882-1.843 1.562-2.688 2.041-0.835 0.469-1.684 0.703-2.547 0.703-0.732 0-1.393-0.117-1.984-0.352-0.582-0.225-1.084-0.577-1.506-1.055-0.413-0.488-0.732-1.107-0.957-1.858-0.216-0.75-0.324-1.646-0.324-2.688v-10.287h4.954zm30.539 15.931c0 0.891-0.14 1.688-0.422 2.392-0.281 0.704-0.675 1.3-1.182 1.787-0.507 0.488-1.112 0.859-1.815 1.112-0.695 0.254-1.455 0.38-2.28 0.38h-4.053v-3.659h2.378c0.478 0 0.873-0.07 1.182-0.211 0.319-0.141 0.572-0.361 0.76-0.661 0.188-0.301 0.319-0.69 0.394-1.168 0.075-0.47 0.113-1.037 0.113-1.703v-14.2h4.925v15.931zm8.712-15.931v18.168h4.686v3.434h-9.612v-21.602h4.926zm28.189 18.168v3.434h-8.683c-1.042 0-1.928-0.103-2.66-0.309-0.732-0.207-1.332-0.502-1.802-0.887-0.459-0.385-0.797-0.854-1.013-1.407-0.206-0.544-0.309-1.154-0.309-1.83 0-0.704 0.098-1.332 0.295-1.886 0.197-0.563 0.497-1.107 0.901-1.632 0.413-0.535 0.938-1.084 1.576-1.647s1.403-1.196 2.294-1.9c0.788-0.619 1.44-1.154 1.956-1.604 0.526-0.46 0.943-0.868 1.253-1.225 0.309-0.365 0.53-0.703 0.661-1.013 0.132-0.319 0.197-0.647 0.197-0.985 0-0.366-0.084-0.69-0.253-0.971-0.16-0.291-0.385-0.535-0.676-0.732-0.29-0.206-0.638-0.361-1.041-0.464-0.394-0.113-0.826-0.169-1.295-0.169-0.516 0-1.013 0.056-1.492 0.169-0.469 0.112-0.91 0.258-1.322 0.436-0.413 0.169-0.793 0.357-1.14 0.563-0.338 0.206-0.629 0.399-0.873 0.577h-0.394v-3.997c0.647-0.31 1.487-0.572 2.519-0.788 1.032-0.225 2.261-0.338 3.687-0.338 1.258 0 2.341 0.136 3.251 0.408 0.92 0.272 1.68 0.657 2.28 1.154 0.601 0.488 1.042 1.079 1.323 1.774 0.291 0.685 0.436 1.449 0.436 2.294 0 0.891-0.14 1.684-0.422 2.378-0.281 0.685-0.652 1.314-1.112 1.886-0.45 0.563-0.961 1.084-1.534 1.562-0.572 0.479-1.144 0.957-1.717 1.436-0.694 0.572-1.304 1.074-1.829 1.505-0.516 0.432-0.952 0.821-1.309 1.168-0.356 0.348-0.624 0.662-0.802 0.943-0.178 0.282-0.268 0.554-0.268 0.817 0 0.488 0.155 0.821 0.465 0.999 0.319 0.188 0.746 0.281 1.281 0.281h7.571zm17.099-2.364h-4.954v-7.839c0-0.629-0.028-1.262-0.084-1.9-0.038-0.628-0.131-1.098-0.281-1.407-0.169-0.357-0.413-0.61-0.732-0.76-0.319-0.16-0.746-0.239-1.281-0.239-0.403 0-0.812 0.075-1.224 0.225-0.404 0.15-0.845 0.389-1.323 0.718v17h-4.926v-27.696h4.926v7.839c0.403-0.338 0.797-0.643 1.182-0.915 0.394-0.272 0.788-0.502 1.182-0.69 0.394-0.187 0.798-0.328 1.21-0.422 0.413-0.103 0.854-0.155 1.323-0.155 1.623 0 2.857 0.507 3.702 1.52 0.853 1.004 1.28 2.482 1.28 4.433v10.288zm3.505-5.953c0-1.37 0.14-2.693 0.422-3.969 0.291-1.276 0.713-2.542 1.266-3.8-0.112-0.037-0.262-0.07-0.45-0.098-0.178-0.028-0.371-0.052-0.577-0.07-0.206-0.029-0.417-0.047-0.633-0.057-0.207-0.019-0.394-0.028-0.563-0.028l0.014-3.842c0.234 0 0.502 9e-3 0.802 0.028 0.31 0.019 0.629 0.052 0.957 0.099 0.338 0.037 0.676 0.084 1.013 0.14 0.338 0.057 0.662 0.127 0.971 0.212 0.47-0.854 1.004-1.577 1.605-2.168 0.61-0.6 1.285-1.088 2.026-1.463 0.742-0.376 1.548-0.648 2.421-0.817s1.811-0.253 2.815-0.253c0.347 0 0.703 0.014 1.069 0.042 0.376 0.028 0.737 0.066 1.084 0.113 0.356 0.037 0.69 0.084 0.999 0.141 0.319 0.056 0.596 0.107 0.83 0.154v3.885h-0.281c-0.188-0.057-0.422-0.127-0.704-0.212-0.281-0.093-0.591-0.182-0.928-0.267-0.329-0.084-0.676-0.155-1.042-0.211-0.366-0.066-0.722-0.099-1.07-0.099-0.459 0-0.91 0.043-1.351 0.127-0.431 0.085-0.839 0.216-1.224 0.394s-0.736 0.408-1.055 0.69c-0.31 0.281-0.577 0.619-0.803 1.013 1.276 0.507 2.369 1.084 3.279 1.731 0.92 0.638 1.675 1.422 2.266 2.35 0.591 0.929 1.023 2.032 1.295 3.308 0.282 1.276 0.422 2.8 0.422 4.574v4.306h-4.757v-1.745c-0.431 0.356-0.835 0.671-1.21 0.943-0.366 0.263-0.741 0.488-1.126 0.675-0.384 0.188-0.797 0.329-1.238 0.423-0.432 0.093-0.929 0.14-1.492 0.14-0.76 0-1.45-0.126-2.069-0.38-0.619-0.253-1.154-0.642-1.604-1.168-0.441-0.525-0.784-1.187-1.028-1.984-0.234-0.807-0.351-1.759-0.351-2.857zm4.897-0.338c0 0.882 0.169 1.544 0.507 1.985 0.347 0.431 0.91 0.647 1.689 0.647 0.253 0 0.511-0.028 0.774-0.085 0.272-0.056 0.539-0.131 0.802-0.225 0.272-0.103 0.53-0.22 0.774-0.352 0.253-0.131 0.478-0.267 0.675-0.408 0-1.116-0.051-2.092-0.154-2.927-0.104-0.835-0.301-1.567-0.591-2.195-0.291-0.638-0.699-1.192-1.225-1.661-0.516-0.469-1.187-0.896-2.012-1.281-0.188 0.497-0.357 1.032-0.507 1.605-0.15 0.572-0.281 1.149-0.394 1.731-0.103 0.581-0.188 1.144-0.253 1.688-0.057 0.545-0.085 1.037-0.085 1.478zm28.02 6.291h-4.953v-7.839c0-0.638-0.029-1.271-0.085-1.9-0.047-0.638-0.141-1.107-0.281-1.407-0.169-0.357-0.413-0.61-0.732-0.76-0.319-0.16-0.746-0.239-1.281-0.239-0.403 0-0.811 0.075-1.224 0.225s-0.854 0.389-1.323 0.718v11.202h-4.926v-15.804h4.926v1.745c0.807-0.685 1.59-1.22 2.35-1.605 0.769-0.384 1.619-0.577 2.547-0.577 1.614 0 2.848 0.512 3.702 1.534 0.854 1.014 1.28 2.487 1.28 4.419v10.288zm8.585-3.434h8.346v3.434h-13.271v-15.804h4.925v12.37zm25.065 9.232h-4.926v-7.543c-0.844 0.704-1.627 1.248-2.35 1.632-0.722 0.366-1.571 0.549-2.547 0.549-0.788 0-1.492-0.126-2.111-0.38-0.61-0.244-1.131-0.61-1.562-1.097-0.423-0.498-0.746-1.117-0.971-1.858-0.226-0.751-0.338-1.623-0.338-2.618v-16.367h4.954v13.918c0 0.817 0.018 1.483 0.056 1.999 0.047 0.516 0.15 0.952 0.31 1.309 0.15 0.328 0.38 0.577 0.689 0.746 0.319 0.168 0.76 0.253 1.323 0.253 0.347 0 0.755-0.085 1.224-0.253 0.479-0.169 0.92-0.399 1.323-0.69v-11.202h4.926v21.602zm7.994-27.964 2.913 5.531h-3.35l-4.222-5.531h4.659z" fill="#2F2F2F"/>
<rect y="224" width="14.411" height="14.411" fill="#C7003B"/>
<path d="m47.568 282.8h9.1655v20.205h-5.2745v-15.881h-3.891v-4.324z" fill="#2F2F2F"/>
<path d="m87.255 306.36h4.0954v3.434h-9.0211v-7.346c-0.3471 0.281-0.7083 0.558-1.0836 0.83-0.3753 0.263-0.7318 0.469-1.0696 0.619-0.441 0.207-0.8257 0.343-1.154 0.409-0.3566 0.084-0.8257 0.126-1.4074 0.126-1.8014 0-3.2275-0.746-4.2783-2.237-1.0508-1.483-1.5762-3.477-1.5762-5.982 0-1.379 0.1782-2.575 0.5348-3.588 0.3565-1.014 0.8491-1.896 1.4777-2.646 0.5723-0.685 1.2666-1.225 2.0828-1.619 0.8163-0.403 1.6795-0.605 2.5896-0.605 0.394 0 0.7552 0.028 1.0836 0.085 0.3284 0.047 0.6427 0.117 0.9429 0.211 0.3096 0.094 0.6099 0.216 0.9007 0.366 0.3003 0.14 0.6099 0.3 0.9289 0.478l0.1829-0.703h4.7709v18.168zm-4.9257-6.727v-7.754c-0.2345-0.122-0.5535-0.221-0.957-0.296-0.394-0.084-0.7318-0.126-1.0133-0.126-1.1821 0-2.0734 0.412-2.6739 1.238-0.5911 0.826-0.8866 1.98-0.8866 3.462 0 0.779 0.0563 1.45 0.1688 2.013 0.1126 0.553 0.2909 1.008 0.5348 1.365 0.244 0.356 0.5536 0.619 0.9289 0.788 0.3847 0.169 0.8444 0.253 1.3792 0.253 0.4316 0 0.8678-0.084 1.3088-0.253s0.8444-0.399 1.2103-0.69zm25.712 4.363h-4.954v-7.839c0-0.638-0.028-1.271-0.084-1.9-0.047-0.638-0.141-1.107-0.281-1.407-0.169-0.357-0.413-0.61-0.732-0.76-0.319-0.16-0.746-0.239-1.281-0.239-0.403 0-0.8115 0.075-1.2243 0.225-0.4129 0.15-0.8538 0.389-1.3229 0.718v11.202h-4.9257v-15.804h4.9257v1.745c0.8068-0.685 1.5903-1.22 2.3502-1.605 0.769-0.384 1.618-0.577 2.547-0.577 1.614 0 2.848 0.512 3.702 1.534 0.853 1.014 1.28 2.487 1.28 4.419v10.288zm8.585-3.434h8.346v3.434h-13.272v-15.804h4.926v12.37zm18.253 3.561c0 0.891-0.14 1.688-0.422 2.392-0.281 0.704-0.675 1.3-1.182 1.787-0.507 0.488-1.112 0.859-1.815 1.112-0.695 0.254-1.455 0.38-2.28 0.38h-4.054v-3.659h2.379c0.478 0 0.872-0.07 1.182-0.211 0.319-0.141 0.572-0.361 0.76-0.661 0.188-0.301 0.319-0.69 0.394-1.168 0.075-0.47 0.113-1.037 0.113-1.703v-14.2h4.925v15.931zm18.155-3.561h4.096v3.434h-4.096v5.798h-4.926v-7.346c-0.441 0.338-0.853 0.633-1.238 0.887-0.385 0.243-0.765 0.45-1.14 0.619-0.366 0.159-0.741 0.277-1.126 0.352-0.375 0.084-0.779 0.126-1.21 0.126-0.901 0-1.712-0.192-2.435-0.577-0.722-0.394-1.337-0.947-1.843-1.66-0.507-0.723-0.897-1.591-1.169-2.604s-0.408-2.139-0.408-3.378c0-1.285 0.169-2.448 0.507-3.49 0.347-1.041 0.821-1.928 1.421-2.66 0.601-0.741 1.309-1.309 2.125-1.703 0.817-0.403 1.694-0.605 2.632-0.605 0.394 0 0.755 0.028 1.084 0.085 0.328 0.047 0.643 0.117 0.943 0.211 0.309 0.094 0.61 0.216 0.9 0.366 0.301 0.14 0.61 0.3 0.929 0.478l0.183-0.703h4.771v12.37zm-4.926-0.929v-7.754c-0.112-0.057-0.258-0.108-0.436-0.155-0.169-0.056-0.347-0.103-0.535-0.141-0.178-0.037-0.361-0.065-0.548-0.084-0.179-0.028-0.329-0.042-0.451-0.042-1.182 0-2.073 0.412-2.674 1.238-0.591 0.826-0.886 1.98-0.886 3.462 0 0.779 0.056 1.45 0.168 2.013 0.113 0.553 0.291 1.008 0.535 1.365 0.244 0.356 0.554 0.619 0.929 0.788 0.385 0.169 0.845 0.253 1.379 0.253 0.432 0 0.868-0.084 1.309-0.253s0.845-0.399 1.21-0.69zm25.98-18.07 2.646 2.857-1.464 1.168 2.97 3.166-1.703 1.169c0.657 0.347 1.229 0.684 1.717 1.013 0.497 0.319 0.924 0.666 1.28 1.041 0.357 0.376 0.653 0.793 0.887 1.253 0.235 0.45 0.422 0.98 0.563 1.59 0.141 0.601 0.239 1.3 0.296 2.097 0.056 0.798 0.084 1.722 0.084 2.773v4.306h-4.757v-1.745c-0.431 0.356-0.835 0.671-1.21 0.943-0.366 0.263-0.741 0.488-1.126 0.675-0.385 0.188-0.798 0.329-1.238 0.423-0.432 0.093-0.929 0.14-1.492 0.14-0.76 0-1.45-0.126-2.069-0.38-0.619-0.253-1.154-0.628-1.604-1.126-0.441-0.506-0.784-1.135-1.028-1.885-0.234-0.76-0.352-1.642-0.352-2.646 0-1.089 0.104-2.078 0.31-2.97 0.216-0.9 0.544-1.74 0.985-2.519 0.45-0.788 1.023-1.539 1.717-2.252s1.525-1.435 2.491-2.167l-2.702-2.941 4.799-3.983zm-2.702 15.847c0 1.041 0.169 1.792 0.507 2.251 0.347 0.451 0.91 0.676 1.688 0.676 0.254 0 0.512-0.028 0.774-0.085 0.273-0.056 0.54-0.131 0.803-0.225 0.272-0.103 0.53-0.22 0.774-0.352 0.253-0.131 0.478-0.267 0.675-0.408 0-0.788-0.023-1.506-0.07-2.153-0.038-0.657-0.164-1.257-0.38-1.801s-0.554-1.037-1.013-1.478c-0.46-0.45-1.103-0.868-1.929-1.253-0.253 0.301-0.492 0.629-0.717 0.986-0.216 0.347-0.408 0.722-0.577 1.125-0.16 0.395-0.291 0.821-0.394 1.281-0.094 0.45-0.141 0.929-0.141 1.436zm27.753 6.586h-4.926v-1.745c-0.844 0.704-1.628 1.248-2.35 1.632-0.357 0.188-0.746 0.324-1.168 0.409-0.422 0.093-0.882 0.14-1.379 0.14-0.789 0-1.492-0.126-2.112-0.38-0.609-0.244-1.13-0.61-1.562-1.097-0.422-0.498-0.746-1.117-0.971-1.858-0.225-0.751-0.337-1.623-0.337-2.618v-16.367h4.953v6.08h9.852v3.433h-9.852v4.405c0 0.77 0.019 1.427 0.057 1.971 0.037 0.544 0.136 0.99 0.295 1.337 0.16 0.347 0.399 0.6 0.718 0.76 0.319 0.159 0.755 0.239 1.309 0.239 0.347 0 0.755-0.085 1.224-0.253 0.479-0.169 0.92-0.399 1.323-0.69v-4.616h4.926v9.218zm19.674-3.434v3.434h-8.894v-3.054c0.394-0.31 0.755-0.629 1.084-0.957 0.337-0.338 0.624-0.718 0.858-1.14 0.244-0.422 0.432-0.905 0.563-1.449 0.141-0.545 0.211-1.183 0.211-1.914 0-0.563-0.019-1.065-0.056-1.506-0.038-0.451-0.136-0.831-0.296-1.14-0.159-0.319-0.398-0.563-0.717-0.732s-0.756-0.253-1.309-0.253c-0.404 0-0.812 0.075-1.225 0.225-0.403 0.15-0.844 0.389-1.322 0.718v11.202h-4.926v-15.804h4.926v1.745c0.403-0.338 0.797-0.643 1.182-0.915 0.394-0.272 0.788-0.502 1.182-0.69 0.394-0.187 0.797-0.328 1.21-0.422 0.413-0.103 0.854-0.155 1.323-0.155 1.623 0 2.857 0.507 3.701 1.52 0.854 1.004 1.281 2.482 1.281 4.433v0.788c0 1.37-0.178 2.562-0.535 3.575-0.356 1.013-0.839 1.844-1.449 2.491h3.208zm19.436 3.434h-4.926v-1.745c-0.844 0.704-1.628 1.248-2.35 1.632-0.723 0.366-1.572 0.549-2.547 0.549-0.788 0-1.492-0.126-2.111-0.38-0.61-0.244-1.131-0.61-1.563-1.097-0.422-0.498-0.745-1.117-0.971-1.858-0.225-0.751-0.337-1.623-0.337-2.618v-12.933h-4.082v-3.434h9.035v13.918c0 0.817 0.019 1.483 0.057 1.999 0.047 0.516 0.15 0.952 0.309 1.309 0.151 0.328 0.38 0.577 0.69 0.746 0.319 0.168 0.76 0.253 1.323 0.253 0.347 0 0.755-0.085 1.224-0.253 0.479-0.169 0.92-0.399 1.323-0.69v-11.202h4.926v15.804zm18.577 0h-4.954v-7.839c0-0.638-0.028-1.271-0.084-1.9-0.047-0.638-0.141-1.107-0.282-1.407-0.169-0.357-0.413-0.61-0.732-0.76-0.319-0.16-0.746-0.239-1.28-0.239-0.404 0-0.812 0.075-1.225 0.225s-0.854 0.389-1.323 0.718v11.202h-4.925v-15.804h4.925v1.745c0.807-0.685 1.591-1.22 2.351-1.605 0.769-0.384 1.618-0.577 2.547-0.577 1.614 0 2.847 0.512 3.701 1.534 0.854 1.014 1.281 2.487 1.281 4.419v10.288zm13.102-4.982v-7.163c-0.244-0.113-0.544-0.207-0.9-0.282-0.357-0.075-0.714-0.112-1.07-0.112-1.182 0-2.074 0.384-2.674 1.154-0.591 0.76-0.887 1.824-0.887 3.194 0 0.685 0.043 1.267 0.127 1.745 0.094 0.469 0.263 0.887 0.507 1.253 0.234 0.356 0.539 0.629 0.914 0.816 0.385 0.178 0.873 0.268 1.464 0.268 0.441 0 0.873-0.076 1.295-0.226 0.431-0.15 0.84-0.366 1.224-0.647zm4.926 3.167c0 1.463-0.211 2.706-0.633 3.729-0.423 1.023-1 1.82-1.731 2.392-0.732 0.582-1.609 1-2.632 1.253-1.023 0.263-2.158 0.394-3.406 0.394-1.051 0-2.05-0.07-2.998-0.211-0.938-0.131-1.754-0.286-2.448-0.464v-3.955h0.577c0.244 0.094 0.53 0.197 0.858 0.31 0.338 0.112 0.676 0.215 1.013 0.309 0.404 0.103 0.798 0.188 1.183 0.253 0.384 0.066 0.778 0.099 1.182 0.099 0.835 0 1.529-0.089 2.083-0.267 0.563-0.169 0.985-0.413 1.266-0.732 0.282-0.329 0.479-0.718 0.591-1.168 0.113-0.441 0.169-1 0.169-1.675v-0.296c-0.553 0.488-1.196 0.882-1.928 1.183-0.722 0.29-1.468 0.436-2.237 0.436-2.046 0-3.627-0.666-4.743-1.999-1.107-1.332-1.661-3.358-1.661-6.079 0-1.239 0.169-2.351 0.507-3.336 0.347-0.985 0.825-1.825 1.435-2.519 0.582-0.666 1.286-1.177 2.111-1.534 0.826-0.366 1.684-0.549 2.576-0.549 0.807 0 1.529 0.103 2.167 0.31 0.638 0.206 1.22 0.483 1.745 0.83l0.183-0.703h4.771v13.989z" fill="#2F2F2F"/>
<rect y="285" width="14.411" height="14.411" fill="#C7003B"/>
<path d="m47 32.113h1.8858v-15.917h4.9258v1.6466c0.713-0.6192 1.4495-1.1212 2.2095-1.5059 0.7506-0.3846 1.6184-0.577 2.6036-0.577 0.9194 0 1.7357 0.1736 2.4488 0.5208 0.7224 0.3377 1.3275 0.8256 1.8154 1.4636 0.4879 0.6286 0.8585 1.3933 1.1118 2.294 0.2534 0.9007 0.38 1.9046 0.38 3.0117 0 1.1259-0.1736 2.1579-0.5207 3.0961-0.3471 0.9289-0.821 1.7264-1.4214 2.3925-0.5911 0.6568-1.2948 1.1681-2.111 1.534-0.8069 0.3659-1.6748 0.5489-2.6036 0.5489-0.4035 0-0.7694-0.0188-1.0978-0.0563-0.3283-0.0469-0.6473-0.1126-0.957-0.197-0.3002-0.0938-0.6004-0.2064-0.9007-0.3378-0.3002-0.1407-0.6192-0.3096-0.9569-0.5066v2.5895h9.8795v3.4339h-9.8795v2.2518h-4.9258v-2.2518h-1.8858v-3.4339zm12.342-8.9507c0-1.2573-0.2345-2.1673-0.7037-2.7303-0.4691-0.5629-1.2103-0.8444-2.2236-0.8444-0.8913 0-1.7591 0.2815-2.6035 0.8444v6.319c0.2627 0.0938 0.5488 0.1595 0.8584 0.197 0.319 0.0376 0.6943 0.0563 1.1259 0.0563 1.2103 0 2.1016-0.3143 2.674-0.9429 0.5817-0.638 0.8725-1.6044 0.8725-2.8991zm22.377 8.8381h-4.9257v-1.7451c-0.8538 0.713-1.6372 1.2572-2.3503 1.6325-0.713 0.3659-1.5621 0.5489-2.5473 0.5489-1.5668 0-2.7912-0.4926-3.6731-1.4777-0.8726-0.9946-1.3089-2.4863-1.3089-4.4754v-10.288h4.9539v7.8389c0 0.8163 0.0188 1.4824 0.0563 1.9985 0.0469 0.516 0.1501 0.9523 0.3096 1.3088 0.1501 0.3284 0.38 0.577 0.6896 0.7459 0.319 0.1689 0.76 0.2533 1.3229 0.2533 0.3471 0 0.7553-0.0844 1.2244-0.2533 0.4785-0.1689 0.9195-0.3988 1.3229-0.6896v-11.202h4.9257v15.804zm18.591 0h-4.9536v-7.8389c0-0.638-0.0282-1.2713-0.0845-1.8999-0.0469-0.638-0.1407-1.1071-0.2814-1.4074-0.1689-0.3565-0.4129-0.6098-0.7318-0.7599-0.319-0.1595-0.7459-0.2393-1.2807-0.2393-0.4035 0-0.8116 0.0751-1.2244 0.2252s-0.8538 0.3894-1.3229 0.7177v11.202h-4.9257v-15.804h4.9257v1.7451c0.8069-0.6849 1.5903-1.2197 2.3502-1.6044 0.7694-0.3846 1.6185-0.577 2.5473-0.577 1.6138 0 2.8476 0.5114 3.7014 1.534 0.8537 1.0133 1.2804 2.4864 1.2804 4.4191v10.288zm8.585-3.4339h8.346v3.4339h-13.272v-15.804h4.926v12.371zm8.5 3.5465h1.886v-15.917h4.926v1.6466c0.713-0.6192 1.45-1.1212 2.209-1.5059 0.751-0.3846 1.619-0.577 2.604-0.577 0.92 0 1.736 0.1736 2.449 0.5208 0.722 0.3377 1.327 0.8256 1.815 1.4636 0.488 0.6286 0.859 1.3933 1.112 2.294s0.38 1.9046 0.38 3.0117c0 1.1259-0.173 2.1579-0.521 3.0961-0.347 0.9289-0.821 1.7264-1.421 2.3925-0.591 0.6568-1.295 1.1681-2.111 1.534-0.807 0.3659-1.675 0.5489-2.604 0.5489-0.403 0-0.769-0.0188-1.097-0.0563-0.329-0.0469-0.648-0.1126-0.957-0.197-0.301-0.0938-0.601-0.2064-0.901-0.3378-0.3-0.1407-0.619-0.3096-0.957-0.5066v2.5895h9.88v3.4339h-9.88v2.2518h-4.926v-2.2518h-1.886v-3.4339zm12.343-8.9507c0-1.2573-0.235-2.1673-0.704-2.7303-0.469-0.5629-1.21-0.8444-2.223-0.8444-0.892 0-1.76 0.2815-2.604 0.8444v6.319c0.263 0.0938 0.549 0.1595 0.858 0.197 0.319 0.0376 0.695 0.0563 1.126 0.0563 1.211 0 2.102-0.3143 2.674-0.9429 0.582-0.638 0.873-1.6044 0.873-2.8991zm16.691 1.5481h-9.331v-3.9125h9.331v3.9125zm20.449 7.29h-4.926v-1.7451c-0.844 0.7037-1.628 1.2478-2.35 1.6325-0.723 0.3659-1.572 0.5489-2.548 0.5489-0.788 0-1.491-0.1267-2.111-0.38-0.609-0.2439-1.13-0.6099-1.562-1.0977-0.422-0.4973-0.746-1.1165-0.971-1.8577-0.225-0.7506-0.338-1.6232-0.338-2.6177v-12.934h-4.081v-3.4339h9.035v13.919c0 0.8163 0.019 1.4824 0.057 1.9985 0.046 0.516 0.15 0.9523 0.309 1.3088 0.15 0.3284 0.38 0.577 0.69 0.7459 0.319 0.1689 0.76 0.2533 1.323 0.2533 0.347 0 0.755-0.0844 1.224-0.2533 0.479-0.1689 0.92-0.3988 1.323-0.6896v-11.202h4.926v15.804zm18.45 0h-4.926v-1.7451c-0.844 0.7037-1.628 1.2478-2.35 1.6325-0.357 0.1877-0.746 0.3237-1.168 0.4081-0.422 0.0939-0.882 0.1408-1.379 0.1408-0.788 0-1.492-0.1267-2.111-0.38-0.61-0.2439-1.131-0.6099-1.562-1.0977-0.423-0.4973-0.746-1.1165-0.972-1.8577-0.225-0.7506-0.337-1.6232-0.337-2.6177v-16.367h4.954v6.0797h9.851v3.4339h-9.851v4.405c0 0.7694 0.018 1.4261 0.056 1.9703 0.037 0.5442 0.136 0.9898 0.295 1.337 0.16 0.3471 0.399 0.6005 0.718 0.76s0.755 0.2392 1.309 0.2392c0.347 0 0.755-0.0844 1.224-0.2533 0.479-0.1689 0.92-0.3988 1.323-0.6896v-4.6161h4.926v9.2181zm18.45 0h-4.954v-7.8389c0-0.638-0.028-1.2713-0.084-1.8999-0.047-0.638-0.141-1.1071-0.282-1.4074-0.168-0.3565-0.412-0.6098-0.731-0.7599-0.319-0.1595-0.746-0.2393-1.281-0.2393-0.403 0-0.812 0.0751-1.224 0.2252-0.413 0.1501-0.854 0.3894-1.323 0.7177v17.001h-4.926v-21.603h4.926v1.7451c0.807-0.6849 1.59-1.2197 2.35-1.6044 0.769-0.3846 1.618-0.577 2.547-0.577 1.614 0 2.848 0.5114 3.702 1.534 0.853 1.0133 1.28 2.4864 1.28 4.4191v10.288zm18.338 5.7983h-4.926v-7.5434c-0.844 0.7037-1.628 1.2478-2.35 1.6325-0.722 0.3659-1.572 0.5489-2.547 0.5489-0.788 0-1.492-0.1267-2.111-0.38-0.61-0.2439-1.131-0.6099-1.562-1.0977-0.423-0.4973-0.746-1.1165-0.972-1.8577-0.225-0.7506-0.337-1.6232-0.337-2.6177v-16.367h4.954v13.919c0 0.8163 0.018 1.4824 0.056 1.9985 0.047 0.516 0.15 0.9523 0.309 1.3088 0.151 0.3284 0.38 0.577 0.69 0.7459 0.319 0.1689 0.76 0.2533 1.323 0.2533 0.347 0 0.755-0.0844 1.224-0.2533 0.479-0.1689 0.92-0.3988 1.323-0.6896v-11.202h4.926v21.603zm7.994-27.964 2.913 5.5309h-3.35l-4.222-5.5309h4.659z" fill="#2F2F2F"/>
<rect y="16.621" width="14.411" height="14.411" fill="#C7003B"/>
<path d="m264.79 13.557h9.165v20.204h-5.274v-15.881h-3.891v-4.3234zm19.954 15.968h8.617v4.2369h-15.391l-0.029-3.4875 7.35-7.5515c1.124-1.1529 1.96-2.4499 1.96-3.3146 0-1.0952-0.836-1.7293-2.306-1.7293-1.643 0-3.718 0.98-5.562 2.5652l-2.018-3.891c2.594-1.8735 5.419-3.0264 8.387-3.0264 4.064 0 7.033 2.1329 7.033 5.3033 0 2.1905-1.643 4.4675-3.92 6.7445l-4.121 4.1504zm17.825-19.109h4.324l-9.339 26.517h-4.323l9.338-26.517zm12.177 2.9688c5.736 0 8.935 3.6604 8.935 10.261 0 6.6292-3.199 10.29-8.935 10.29-5.793 0-8.993-3.6605-8.993-10.29 0-6.6003 3.2-10.261 8.993-10.261zm0 3.9198c-2.508 0-3.574 1.8158-3.574 6.3409 0 4.554 1.066 6.3698 3.574 6.3698 2.45 0 3.545-1.8158 3.545-6.3698 0-4.5251-1.095-6.3409-3.545-6.3409z" fill="#444"/>
<path d="m463.57 18.116c4.756 0 7.811 2.5075 7.811 6.1103 0 4.2369-3.228 7.0039-8.243 7.0039-2.71 0-5.794-1.0088-7.984-2.5076l1.96-3.8045c1.643 1.3258 3.545 2.2481 5.447 2.2481 2.018 0 3.171-0.9511 3.171-2.5364 0-1.5564-1.067-2.421-3.286-2.421-0.922 0-4.266 0.0288-5.534 0.1152v-11.529h13.575v4.2369h-8.733v3.084h1.816zm18.965-7.4939c5.736 0 8.935 3.6605 8.935 10.261 0 6.6292-3.199 10.29-8.935 10.29-5.793 0-8.992-3.6604-8.992-10.29 0-6.6003 3.199-10.261 8.992-10.261zm0 3.9199c-2.507 0-3.574 1.8158-3.574 6.3409 0 4.554 1.067 6.3698 3.574 6.3698 2.45 0 3.545-1.8158 3.545-6.3698 0-4.5251-1.095-6.3409-3.545-6.3409zm31.737-5.361v3.4011h-4.294v18.418h-5.131v-2.5076c-1.066 1.787-2.767 2.7382-4.986 2.7382-3.372 0-5.563-2.3346-5.563-5.9663v-9.8572h5.131v8.3873c0 1.7582 0.98 2.8534 2.507 2.8246 1.816-0.0288 2.911-1.47 2.911-3.5163v-13.921h9.425zm5.572 24.499h4.266v3.401h-9.396v-21.674h5.13v18.273z" fill="#444"/>
<path d="m346.64 33.848h-2.646v-1.7452c-0.413 0.3566-0.807 0.6709-1.182 0.943-0.376 0.2721-0.756 0.5019-1.14 0.6896-0.385 0.1782-0.779 0.3143-1.183 0.4081-0.394 0.0938-0.816 0.1407-1.266 0.1407-0.685 0-1.328-0.1126-1.928-0.3377-0.601-0.2158-1.126-0.563-1.576-1.0415-0.441-0.4785-0.793-1.093-1.056-1.8436-0.253-0.76-0.38-1.67-0.38-2.7302v-16.382h2.646v6.1782h9.711v2.3362h-9.711v6.6145c0 0.7881 0.028 1.4777 0.084 2.0688 0.066 0.5911 0.202 1.079 0.408 1.4637 0.216 0.3846 0.516 0.6755 0.901 0.8725 0.394 0.1877 0.924 0.2815 1.59 0.2815 0.319 0 0.657-0.0469 1.014-0.1407 0.356-0.1033 0.713-0.2393 1.069-0.4082 0.357-0.1782 0.704-0.38 1.042-0.6051 0.337-0.2346 0.656-0.4832 0.957-0.7459v-6.0798h2.646v10.063zm11.244-16.156c0.77 0 1.459 0.1314 2.069 0.3941 0.619 0.2533 1.14 0.6333 1.562 1.1399 0.422 0.4973 0.746 1.1165 0.971 1.8577s0.338 1.595 0.338 2.5614v10.203h-2.646v-8.9508c0-0.7599-0.033-1.4308-0.098-2.0125-0.057-0.5817-0.188-1.0695-0.394-1.4636-0.207-0.4034-0.507-0.7037-0.901-0.9007-0.394-0.2064-0.924-0.3096-1.59-0.3096-0.657 0-1.333 0.1782-2.027 0.5348-0.694 0.3471-1.379 0.8022-2.055 1.3651v17.536h-2.645v-21.518h2.645v1.7451c0.798-0.7037 1.577-1.2431 2.337-1.6184 0.769-0.3753 1.58-0.563 2.434-0.563zm11.189 0.4363v9.0915c0 0.7693 0.023 1.4401 0.07 2.0125 0.056 0.5723 0.174 1.0461 0.352 1.4214 0.187 0.3753 0.455 0.6567 0.802 0.8444 0.357 0.1783 0.83 0.2674 1.421 0.2674 0.545 0 1.126-0.1642 1.746-0.4926 0.619-0.3377 1.266-0.8209 1.942-1.4496-0.01-0.1595-0.024-0.3471-0.043-0.5629-9e-3 -0.2252-0.014-0.4879-0.014-0.7881v-10.344h2.646v9.0915c0 0.7693 0.024 1.4401 0.071 2.0125 0.056 0.5723 0.173 1.0461 0.351 1.4214 0.188 0.3753 0.455 0.6567 0.803 0.8444 0.356 0.1783 0.83 0.2674 1.421 0.2674 0.572 0 1.173-0.1736 1.801-0.5207 0.629-0.3566 1.239-0.8163 1.83-1.3792v-11.737h2.646v15.72h-2.646v-1.7452c-0.694 0.6943-1.384 1.2338-2.069 1.6185-0.675 0.3753-1.421 0.5629-2.238 0.5629-0.938 0-1.763-0.2111-2.476-0.6333-0.714-0.4222-1.258-1.1165-1.633-2.0828-0.394 0.4503-0.783 0.8444-1.168 1.1821-0.385 0.3378-0.774 0.6193-1.168 0.8444-0.385 0.2252-0.784 0.3941-1.196 0.5067-0.404 0.1219-0.831 0.1829-1.281 0.1829-0.666 0-1.281-0.1079-1.844-0.3237-0.563-0.2157-1.051-0.5535-1.463-1.0132-0.413-0.4692-0.737-1.0696-0.971-1.8014-0.226-0.7412-0.338-1.6326-0.338-2.674v-10.344h2.646zm35.085 15.72h-2.646v-1.7452c-0.413 0.3566-0.807 0.6709-1.182 0.943-0.376 0.2721-0.756 0.5019-1.14 0.6896-0.385 0.1782-0.779 0.3143-1.182 0.4081-0.394 0.0938-0.817 0.1407-1.267 0.1407-0.685 0-1.332-0.1126-1.942-0.3377-0.601-0.2252-1.126-0.5817-1.576-1.0696-0.451-0.4879-0.803-1.0977-1.056-1.8296-0.244-0.7412-0.366-1.6466-0.366-2.7161v-14.045h-2.969v-2.3362h5.615v15.129c0 0.8351 0.028 1.5293 0.084 2.0829 0.066 0.5442 0.207 1.0227 0.423 1.4355 0.215 0.4034 0.506 0.699 0.872 0.8866 0.376 0.1877 0.91 0.2815 1.605 0.2815 0.647 0 1.337-0.183 2.068-0.5489 0.742-0.3753 1.412-0.8256 2.013-1.351v-11.737h2.646v15.72zm15.945 5.7982h-2.646v-7.5152c-0.385 0.3565-0.76 0.6614-1.126 0.9148-0.366 0.2533-0.741 0.4644-1.126 0.6333-0.375 0.1595-0.764 0.2768-1.168 0.3518-0.394 0.0845-0.816 0.1267-1.266 0.1267-1.783 0-3.204-0.7131-4.265-2.1392-1.06-1.4449-1.59-3.4386-1.59-5.9812 0-1.3604 0.183-2.5567 0.549-3.5887 0.366-1.0321 0.858-1.9 1.478-2.6036 0.591-0.6849 1.285-1.215 2.083-1.5903 0.797-0.3753 1.637-0.563 2.519-0.563 0.403 0 0.774 0.0235 1.112 0.0704 0.347 0.0469 0.675 0.1173 0.985 0.2111 0.309 0.0938 0.61 0.2111 0.9 0.3518 0.301 0.1408 0.606 0.3003 0.915 0.4785l0.169-0.6755h2.477v13.384h2.969v2.3362h-2.969v5.7982zm-10.457-13.736c0 1.839 0.301 3.2557 0.901 4.2502 0.601 0.9852 1.534 1.4777 2.801 1.4777 0.741 0 1.463-0.1595 2.167-0.4785s1.351-0.7365 1.942-1.2525v-8.9507c-0.328-0.1595-0.643-0.2956-0.943-0.4082-0.3-0.1219-0.581-0.2157-0.844-0.2814-0.544-0.1314-1.107-0.1971-1.689-0.1971-1.398 0-2.472 0.502-3.223 1.5059-0.741 0.9945-1.112 2.4394-1.112 4.3346zm23.897-1.7757h6.889v1.9311h-6.889v-1.9311z" fill="#444"/>
<path d="m264.79 56.792h9.165v20.204h-5.274v-15.881h-3.891v-4.3233zm19.953 15.968h8.618v4.2369h-15.391l-0.029-3.4875 7.35-7.5515c1.124-1.1529 1.96-2.4499 1.96-3.3146 0-1.0952-0.836-1.7293-2.306-1.7293-1.643 0-3.718 0.9799-5.563 2.5652l-2.017-3.8911c2.594-1.8734 5.419-3.0263 8.387-3.0263 4.064 0 7.033 2.1328 7.033 5.3033 0 2.1905-1.643 4.4675-3.92 6.7445l-4.122 4.1504zm17.826-19.109h4.324l-9.339 26.517h-4.323l9.338-26.517zm1.57 3.1417h9.166v20.204h-5.275v-15.881h-3.891v-4.3233z" fill="#444"/>
<path d="m470.89 68.876v4.0063h-2.594v4.3522h-4.842v-4.3522h-9.137v-3.574l5.736-12.278h5.015l-5.39 11.846h3.776v-4.2946h4.842v4.2946h2.594zm11.137-12.019c5.736 0 8.935 3.6605 8.935 10.261 0 6.6292-3.199 10.29-8.935 10.29-5.793 0-8.992-3.6604-8.992-10.29 0-6.6003 3.199-10.261 8.992-10.261zm0 3.9199c-2.507 0-3.574 1.8158-3.574 6.3409 0 4.5539 1.067 6.3698 3.574 6.3698 2.45 0 3.546-1.8159 3.546-6.3698 0-4.5251-1.096-6.3409-3.546-6.3409zm31.737-5.361v3.401h-4.294v18.418h-5.13v-2.5076c-1.067 1.787-2.767 2.7382-4.987 2.7382-3.372 0-5.562-2.3347-5.562-5.9663v-9.8573h5.13v8.3874c0 1.7581 0.98 2.8534 2.507 2.8246 1.816-0.0289 2.912-1.47 2.912-3.5164v-13.921h9.424zm5.572 24.499h4.266v3.401h-9.396v-21.674h5.13v18.274z" fill="#444"/>
<path d="m347 78.082h-2.645v-1.7451c-0.413 0.3566-0.807 0.6709-1.183 0.9429-0.375 0.2721-0.755 0.502-1.14 0.6896-0.384 0.1783-0.778 0.3144-1.182 0.4082-0.394 0.0938-0.816 0.1407-1.266 0.1407-0.685 0-1.328-0.1126-1.928-0.3378-0.601-0.2157-1.126-0.5629-1.577-1.0414-0.441-0.4785-0.792-1.093-1.055-1.8436-0.254-0.76-0.38-1.6701-0.38-2.7303v-16.382h2.646v6.1783h9.71v2.3362h-9.71v6.6145c0 0.7881 0.028 1.4777 0.084 2.0688 0.066 0.5911 0.202 1.079 0.408 1.4636 0.216 0.3847 0.516 0.6756 0.901 0.8726 0.394 0.1876 0.924 0.2815 1.59 0.2815 0.319 0 0.657-0.047 1.014-0.1408 0.356-0.1032 0.713-0.2392 1.069-0.4081 0.357-0.1783 0.704-0.38 1.042-0.6052 0.337-0.2345 0.656-0.4832 0.957-0.7459v-6.0797h2.645v10.062zm11.245-16.156c0.769 0 1.459 0.1314 2.069 0.3941 0.619 0.2533 1.14 0.6333 1.562 1.1399 0.422 0.4973 0.746 1.1165 0.971 1.8577s0.338 1.595 0.338 2.5614v10.203h-2.646v-8.9507c0-0.76-0.033-1.4308-0.099-2.0125-0.056-0.5817-0.187-1.0696-0.394-1.4636-0.206-0.4035-0.506-0.7037-0.9-0.9007-0.394-0.2064-0.924-0.3096-1.591-0.3096-0.656 0-1.332 0.1782-2.026 0.5347-0.694 0.3472-1.379 0.8022-2.055 1.3652v17.536h-2.646v-21.518h2.646v1.7451c0.798-0.7037 1.576-1.2432 2.336-1.6185 0.77-0.3752 1.581-0.5629 2.435-0.5629zm11.188 0.4363v9.0914c0 0.7694 0.024 1.4402 0.071 2.0125 0.056 0.5724 0.173 1.0462 0.352 1.4215 0.187 0.3752 0.455 0.6567 0.802 0.8444 0.356 0.1782 0.83 0.2674 1.421 0.2674 0.544 0 1.126-0.1642 1.745-0.4926 0.62-0.3378 1.267-0.821 1.942-1.4496-9e-3 -0.1595-0.023-0.3471-0.042-0.5629-9e-3 -0.2252-0.014-0.4879-0.014-0.7881v-10.344h2.646v9.0914c0 0.7694 0.023 1.4402 0.07 2.0125 0.057 0.5724 0.174 1.0462 0.352 1.4215 0.188 0.3752 0.455 0.6567 0.802 0.8444 0.357 0.1782 0.831 0.2674 1.422 0.2674 0.572 0 1.173-0.1736 1.801-0.5208 0.629-0.3565 1.239-0.8162 1.83-1.3792v-11.737h2.646v15.72h-2.646v-1.7451c-0.695 0.6943-1.384 1.2338-2.069 1.6185-0.676 0.3753-1.421 0.5629-2.238 0.5629-0.938 0-1.764-0.2111-2.477-0.6333s-1.257-1.1165-1.632-2.0829c-0.394 0.4504-0.784 0.8444-1.168 1.1822-0.385 0.3378-0.774 0.6192-1.168 0.8444-0.385 0.2252-0.784 0.3941-1.197 0.5067-0.403 0.1219-0.83 0.1829-1.28 0.1829-0.666 0-1.281-0.1079-1.844-0.3237s-1.051-0.5535-1.464-1.0133c-0.412-0.4691-0.736-1.0696-0.971-1.8014-0.225-0.7412-0.337-1.6325-0.337-2.6739v-10.344h2.645zm35.086 15.72h-2.646v-1.7451c-0.413 0.3566-0.807 0.6709-1.182 0.9429-0.376 0.2721-0.756 0.502-1.14 0.6896-0.385 0.1783-0.779 0.3144-1.183 0.4082-0.394 0.0938-0.816 0.1407-1.266 0.1407-0.685 0-1.332-0.1126-1.942-0.3378-0.601-0.2251-1.126-0.5817-1.577-1.0695-0.45-0.4879-0.802-1.0978-1.055-1.8296-0.244-0.7412-0.366-1.6466-0.366-2.7162v-14.045h-2.969v-2.3362h5.615v15.129c0 0.835 0.028 1.5293 0.084 2.0829 0.066 0.5441 0.207 1.0226 0.422 1.4355 0.216 0.4034 0.507 0.6989 0.873 0.8866 0.375 0.1876 0.91 0.2815 1.604 0.2815 0.648 0 1.337-0.183 2.069-0.5489 0.741-0.3753 1.412-0.8256 2.013-1.3511v-11.737h2.646v15.72zm15.945 5.7983h-2.646v-7.5152c-0.385 0.3565-0.76 0.6614-1.126 0.9147-0.366 0.2534-0.741 0.4645-1.126 0.6333-0.375 0.1595-0.764 0.2768-1.168 0.3519-0.394 0.0844-0.816 0.1266-1.267 0.1266-1.782 0-3.204-0.713-4.264-2.1391-1.06-1.4449-1.59-3.4386-1.59-5.9812 0-1.3605 0.183-2.5567 0.549-3.5888 0.366-1.032 0.858-1.8999 1.477-2.6036 0.592-0.6849 1.286-1.215 2.083-1.5903 0.798-0.3752 1.638-0.5629 2.52-0.5629 0.403 0 0.774 0.0235 1.111 0.0704 0.347 0.0469 0.676 0.1173 0.985 0.2111 0.31 0.0938 0.61 0.2111 0.901 0.3518 0.3 0.1407 0.605 0.3002 0.915 0.4785l0.169-0.6755h2.477v13.384h2.969v2.3362h-2.969v5.7983zm-10.457-13.736c0 1.8389 0.3 3.2557 0.901 4.2502 0.6 0.9851 1.534 1.4777 2.8 1.4777 0.742 0 1.464-0.1595 2.168-0.4785 0.703-0.319 1.351-0.7365 1.942-1.2525v-8.9508c-0.328-0.1594-0.643-0.2955-0.943-0.4081-0.3-0.122-0.582-0.2158-0.844-0.2814-0.545-0.1314-1.108-0.1971-1.689-0.1971-1.398 0-2.472 0.502-3.223 1.5059-0.741 0.9945-1.112 2.4394-1.112 4.3346zm31.651 0.0422h-7.937v-2.5473h7.937v2.5473z" fill="#444"/>
<path d="m91.008 137.32h-4.9257v-1.745c-0.8444 0.704-1.6278 1.248-2.3503 1.633-0.3565 0.187-0.7458 0.324-1.168 0.408-0.4223 0.094-0.882 0.141-1.3792 0.141-0.7882 0-1.4918-0.127-2.1111-0.38-0.6098-0.244-1.1305-0.61-1.5621-1.098-0.4222-0.497-0.7459-1.117-0.9711-1.858-0.2252-0.75-0.3377-1.623-0.3377-2.617v-16.368h4.9538v6.08h9.8514v3.434h-9.8514v4.405c0 0.769 0.0188 1.426 0.0563 1.97s0.136 0.99 0.2955 1.337 0.3988 0.601 0.7178 0.76c0.319 0.16 0.7553 0.239 1.3088 0.239 0.3472 0 0.7553-0.084 1.2244-0.253 0.4785-0.169 0.9195-0.399 1.3229-0.69v-4.616h4.9257v9.218zm18.45 0h-4.954v-7.839c0-0.638-0.028-1.271-0.084-1.899-0.047-0.638-0.141-1.108-0.282-1.408-0.169-0.356-0.413-0.61-0.732-0.76-0.319-0.159-0.746-0.239-1.28-0.239-0.404 0-0.812 0.075-1.225 0.225s-0.854 0.39-1.3227 0.718v17.001h-4.9258v-21.603h4.9258v1.745c0.8067-0.685 1.5907-1.22 2.3507-1.604 0.769-0.385 1.618-0.577 2.547-0.577 1.614 0 2.847 0.511 3.701 1.534 0.854 1.013 1.281 2.486 1.281 4.419v10.287zm13.412-15.804h4.926v12.37h4.095v3.434h-9.021v-1.745c-0.845 0.704-1.628 1.248-2.35 1.633-0.723 0.366-1.572 0.549-2.548 0.549-0.788 0-1.492-0.127-2.111-0.38-0.61-0.244-1.13-0.61-1.562-1.098-0.422-0.497-0.746-1.117-0.971-1.858-0.225-0.75-0.338-1.623-0.338-2.617v-16.368h4.954v13.919c0 0.816 0.019 1.482 0.056 1.998 0.047 0.516 0.151 0.953 0.31 1.309 0.15 0.328 0.38 0.577 0.69 0.746 0.319 0.169 0.76 0.253 1.323 0.253 0.347 0 0.755-0.084 1.224-0.253 0.478-0.169 0.919-0.399 1.323-0.69v-11.202zm15.734 0v7.895c0 0.779 0.014 1.44 0.042 1.984 0.028 0.535 0.113 0.972 0.253 1.309 0.141 0.338 0.357 0.582 0.648 0.732 0.3 0.15 0.718 0.225 1.252 0.225 0.376 0 0.746-0.079 1.112-0.239 0.366-0.169 0.765-0.403 1.196-0.704v-11.202h4.954v7.895c0 0.76 0.014 1.412 0.043 1.956 0.037 0.535 0.126 0.976 0.267 1.323 0.141 0.338 0.356 0.587 0.647 0.746 0.301 0.15 0.713 0.225 1.239 0.225 0.403 0 0.797-0.094 1.182-0.281 0.385-0.188 0.76-0.408 1.126-0.662v-11.202h4.926v15.804h-4.926v-1.745c-0.385 0.31-0.755 0.601-1.112 0.873-0.347 0.263-0.704 0.492-1.07 0.689-0.365 0.188-0.755 0.338-1.168 0.451-0.403 0.112-0.849 0.169-1.337 0.169-0.966 0-1.815-0.23-2.547-0.69-0.722-0.46-1.281-1.145-1.675-2.055-0.947 0.882-1.843 1.563-2.688 2.041-0.835 0.469-1.684 0.704-2.547 0.704-0.732 0-1.393-0.118-1.984-0.352-0.582-0.225-1.084-0.577-1.506-1.056-0.413-0.488-0.732-1.107-0.957-1.857-0.216-0.751-0.324-1.647-0.324-2.688v-10.288h4.954zm37.351 21.603h-4.926v-7.544c-0.844 0.704-1.628 1.248-2.35 1.633-0.723 0.366-1.572 0.549-2.547 0.549-0.789 0-1.492-0.127-2.111-0.38-0.61-0.244-1.131-0.61-1.563-1.098-0.422-0.497-0.745-1.117-0.971-1.858-0.225-0.75-0.337-1.623-0.337-2.617v-16.368h4.953v13.919c0 0.816 0.019 1.482 0.057 1.998 0.047 0.516 0.15 0.953 0.309 1.309 0.15 0.328 0.38 0.577 0.69 0.746 0.319 0.169 0.76 0.253 1.323 0.253 0.347 0 0.755-0.084 1.224-0.253 0.479-0.169 0.92-0.399 1.323-0.69v-11.202h4.926v21.603zm18.591-5.799h-4.954v-7.839c0-0.628-0.028-1.261-0.084-1.899-0.038-0.629-0.132-1.098-0.282-1.408-0.169-0.356-0.413-0.61-0.732-0.76-0.319-0.159-0.746-0.239-1.28-0.239-0.404 0-0.812 0.075-1.225 0.225-0.403 0.15-0.844 0.39-1.323 0.718v17.001h-4.925v-27.697h4.925v7.839c0.404-0.338 0.798-0.643 1.183-0.915 0.394-0.272 0.788-0.502 1.182-0.689 0.394-0.188 0.797-0.329 1.21-0.423 0.413-0.103 0.854-0.154 1.323-0.154 1.623 0 2.857 0.506 3.701 1.52 0.854 1.003 1.281 2.481 1.281 4.433v10.287zm11.568-8.81c0.122 0.132 0.249 0.282 0.38 0.451 0.141 0.169 0.268 0.361 0.38 0.577 0.113 0.206 0.207 0.445 0.282 0.718 0.075 0.262 0.112 0.562 0.112 0.9 0 0.366-0.051 0.713-0.155 1.042-0.103 0.328-0.248 0.642-0.436 0.943-0.187 0.29-0.413 0.577-0.675 0.858-0.263 0.272-0.554 0.549-0.873 0.83l-1.787 1.577c-0.366 0.328-0.676 0.652-0.929 0.971-0.244 0.328-0.366 0.68-0.366 1.055 0 0.178 0.024 0.343 0.07 0.493 0.057 0.15 0.146 0.281 0.268 0.394 0.122 0.112 0.281 0.202 0.478 0.267 0.197 0.066 0.441 0.099 0.732 0.099h7.769v3.434h-8.684c-1.041 0-1.928-0.104-2.66-0.31-0.731-0.206-1.332-0.502-1.801-0.887-0.46-0.384-0.797-0.853-1.013-1.407-0.207-0.544-0.31-1.154-0.31-1.829 0-0.507 0.047-0.967 0.141-1.38 0.094-0.412 0.244-0.811 0.45-1.196 0.216-0.385 0.498-0.769 0.845-1.154s0.769-0.797 1.266-1.238l1.774-1.563c0.197-0.168 0.356-0.314 0.478-0.436 0.122-0.131 0.216-0.248 0.281-0.352 0.076-0.112 0.122-0.211 0.141-0.295 0.028-0.094 0.042-0.193 0.042-0.296 0-0.187-0.037-0.375-0.112-0.563-0.075-0.197-0.211-0.403-0.408-0.619l-1.956-2.224c-0.357-0.412-0.61-0.769-0.76-1.069-0.151-0.31-0.226-0.629-0.226-0.957 0-0.31 0.08-0.605 0.24-0.887 0.169-0.281 0.459-0.6 0.872-0.957l2.843-2.463 3.265 3.068-0.929 0.817c-0.3 0.262-0.53 0.483-0.689 0.661-0.16 0.178-0.24 0.347-0.24 0.507 0 0.159 0.071 0.333 0.211 0.521 0.151 0.178 0.334 0.384 0.549 0.619l1.14 1.28zm11.358-13.355 2.913 5.531h-3.35l-4.222-5.531h4.659z" fill="#2F2F2F"/>
<rect y="119" width="14.411" height="14.411" fill="#C7003B"/>
<path d="m264.79 119.56h9.165v20.205h-5.274v-15.881h-3.891v-4.324zm19.953 15.968h8.618v4.237h-15.391l-0.029-3.488 7.35-7.551c1.124-1.153 1.96-2.45 1.96-3.315 0-1.095-0.836-1.729-2.306-1.729-1.643 0-3.718 0.98-5.563 2.565l-2.017-3.891c2.594-1.873 5.419-3.026 8.387-3.026 4.064 0 7.033 2.132 7.033 5.303 0 2.19-1.643 4.467-3.92 6.744l-4.122 4.151zm17.826-19.109h4.324l-9.339 26.516h-4.323l9.338-26.516zm12.177 2.968c5.735 0 8.935 3.661 8.935 10.261 0 6.629-3.2 10.29-8.935 10.29-5.794 0-8.993-3.661-8.993-10.29 0-6.6 3.199-10.261 8.993-10.261zm0 3.92c-2.508 0-3.574 1.816-3.574 6.341 0 4.554 1.066 6.37 3.574 6.37 2.45 0 3.545-1.816 3.545-6.37 0-4.525-1.095-6.341-3.545-6.341z" fill="#444"/>
<path d="m463.57 127.12c4.756 0 7.811 2.508 7.811 6.111 0 4.237-3.228 7.004-8.243 7.004-2.71 0-5.794-1.009-7.984-2.508l1.96-3.805c1.643 1.326 3.545 2.249 5.447 2.249 2.018 0 3.171-0.952 3.171-2.537 0-1.556-1.067-2.421-3.286-2.421-0.923 0-4.266 0.029-5.534 0.115v-11.529h13.575v4.237h-8.733v3.084h1.816zm18.965-7.493c5.736 0 8.935 3.66 8.935 10.26 0 6.629-3.199 10.29-8.935 10.29-5.793 0-8.993-3.661-8.993-10.29 0-6.6 3.2-10.26 8.993-10.26zm0 3.919c-2.508 0-3.574 1.816-3.574 6.341 0 4.554 1.066 6.37 3.574 6.37 2.45 0 3.545-1.816 3.545-6.37 0-4.525-1.095-6.341-3.545-6.341zm31.737-5.361v3.401h-4.294v18.418h-5.131v-2.508c-1.066 1.787-2.767 2.739-4.986 2.739-3.372 0-5.563-2.335-5.563-5.967v-9.857h5.131v8.387c0 1.759 0.98 2.854 2.507 2.825 1.816-0.029 2.911-1.47 2.911-3.516v-13.922h9.425zm5.572 24.499h4.266v3.402h-9.397v-21.675h5.131v18.273z" fill="#444"/>
<path d="m347 140.81h-2.646v-1.746c-0.412 0.357-0.806 0.671-1.182 0.943-0.375 0.272-0.755 0.502-1.14 0.69-0.384 0.178-0.778 0.314-1.182 0.408-0.394 0.094-0.816 0.141-1.266 0.141-0.685 0-1.328-0.113-1.929-0.338-0.6-0.216-1.125-0.563-1.576-1.041-0.441-0.479-0.793-1.093-1.055-1.844-0.254-0.76-0.38-1.67-0.38-2.73v-16.382h2.646v6.179h9.71v2.336h-9.71v6.614c0 0.788 0.028 1.478 0.084 2.069 0.066 0.591 0.202 1.079 0.408 1.464 0.216 0.384 0.516 0.675 0.901 0.872 0.394 0.188 0.924 0.282 1.59 0.282 0.319 0 0.657-0.047 1.013-0.141 0.357-0.103 0.713-0.239 1.07-0.408 0.357-0.178 0.704-0.38 1.041-0.605 0.338-0.235 0.657-0.483 0.957-0.746v-6.08h2.646v10.063zm11.245-16.157c0.769 0 1.459 0.132 2.069 0.394 0.619 0.254 1.14 0.634 1.562 1.14 0.422 0.498 0.746 1.117 0.971 1.858s0.338 1.595 0.338 2.561v10.204h-2.646v-8.951c0-0.76-0.033-1.431-0.099-2.013-0.056-0.581-0.187-1.069-0.394-1.463-0.206-0.404-0.506-0.704-0.9-0.901-0.394-0.206-0.925-0.31-1.591-0.31-0.656 0-1.332 0.179-2.026 0.535-0.695 0.347-1.379 0.802-2.055 1.365v17.536h-2.646v-21.518h2.646v1.745c0.798-0.704 1.576-1.243 2.336-1.619 0.77-0.375 1.581-0.563 2.435-0.563zm11.188 0.437v9.091c0 0.769 0.024 1.44 0.071 2.013 0.056 0.572 0.173 1.046 0.352 1.421 0.187 0.375 0.455 0.657 0.802 0.844 0.356 0.179 0.83 0.268 1.421 0.268 0.544 0 1.126-0.164 1.745-0.493 0.619-0.338 1.267-0.821 1.942-1.449-9e-3 -0.16-0.023-0.348-0.042-0.563-9e-3 -0.226-0.014-0.488-0.014-0.788v-10.344h2.646v9.091c0 0.769 0.023 1.44 0.07 2.013 0.057 0.572 0.174 1.046 0.352 1.421 0.188 0.375 0.455 0.657 0.802 0.844 0.357 0.179 0.831 0.268 1.422 0.268 0.572 0 1.172-0.174 1.801-0.521 0.629-0.357 1.239-0.816 1.83-1.379v-11.737h2.645v15.72h-2.645v-1.746c-0.695 0.695-1.384 1.234-2.069 1.619-0.676 0.375-1.422 0.563-2.238 0.563-0.938 0-1.764-0.211-2.477-0.633-0.713-0.423-1.257-1.117-1.632-2.083-0.394 0.45-0.784 0.844-1.168 1.182-0.385 0.338-0.774 0.619-1.168 0.844-0.385 0.225-0.784 0.394-1.197 0.507-0.403 0.122-0.83 0.183-1.28 0.183-0.667 0-1.281-0.108-1.844-0.324s-1.051-0.553-1.464-1.013c-0.412-0.469-0.736-1.07-0.971-1.802-0.225-0.741-0.337-1.632-0.337-2.673v-10.344h2.645zm35.085 15.72h-2.645v-1.746c-0.413 0.357-0.807 0.671-1.183 0.943-0.375 0.272-0.755 0.502-1.139 0.69-0.385 0.178-0.779 0.314-1.183 0.408-0.394 0.094-0.816 0.141-1.266 0.141-0.685 0-1.333-0.113-1.942-0.338-0.601-0.225-1.126-0.582-1.577-1.069-0.45-0.488-0.802-1.098-1.055-1.83-0.244-0.741-0.366-1.647-0.366-2.716v-14.046h-2.97v-2.336h5.616v15.129c0 0.835 0.028 1.53 0.084 2.083 0.066 0.544 0.207 1.023 0.422 1.436 0.216 0.403 0.507 0.699 0.873 0.886 0.375 0.188 0.91 0.282 1.604 0.282 0.648 0 1.337-0.183 2.069-0.549 0.741-0.375 1.412-0.826 2.013-1.351v-11.737h2.645v15.72zm15.946 5.798h-2.646v-7.515c-0.385 0.356-0.76 0.661-1.126 0.914-0.366 0.254-0.741 0.465-1.126 0.634-0.375 0.159-0.765 0.276-1.168 0.352-0.394 0.084-0.816 0.126-1.267 0.126-1.782 0-3.204-0.713-4.264-2.139-1.06-1.445-1.59-3.439-1.59-5.981 0-1.361 0.183-2.557 0.549-3.589s0.858-1.9 1.477-2.603c0.591-0.685 1.286-1.215 2.083-1.591 0.798-0.375 1.637-0.563 2.519-0.563 0.404 0 0.774 0.024 1.112 0.071 0.347 0.047 0.676 0.117 0.985 0.211 0.31 0.094 0.61 0.211 0.901 0.352 0.3 0.14 0.605 0.3 0.915 0.478l0.169-0.675h2.477v13.383h2.969v2.337h-2.969v5.798zm-10.457-13.736c0 1.839 0.3 3.256 0.901 4.25 0.6 0.985 1.534 1.478 2.8 1.478 0.742 0 1.464-0.159 2.168-0.478 0.703-0.319 1.351-0.737 1.942-1.253v-8.951c-0.329-0.159-0.643-0.295-0.943-0.408-0.3-0.122-0.582-0.216-0.844-0.281-0.545-0.132-1.108-0.197-1.689-0.197-1.398 0-2.473 0.502-3.223 1.506-0.741 0.994-1.112 2.439-1.112 4.334zm31.651 0.042h-7.937v-2.547h7.937v2.547z" fill="#444"/>
<path d="m264.79 162.79h9.165v20.204h-5.274v-15.881h-3.891v-4.323zm19.953 15.967h8.618v4.237h-15.391l-0.029-3.487 7.35-7.552c1.124-1.153 1.96-2.45 1.96-3.314 0-1.096-0.836-1.73-2.306-1.73-1.643 0-3.718 0.98-5.563 2.565l-2.017-3.891c2.594-1.873 5.419-3.026 8.387-3.026 4.064 0 7.033 2.133 7.033 5.303 0 2.191-1.643 4.468-3.92 6.745l-4.122 4.15zm17.826-19.109h4.324l-9.339 26.517h-4.323l9.338-26.517zm1.57 3.142h9.166v20.204h-5.275v-15.881h-3.891v-4.323z" fill="#444"/>
<path d="m463.05 162.8c4.352 0 7.119 2.133 7.119 5.477 0 1.7-0.922 3.285-2.392 4.15 2.104 0.951 3.43 2.882 3.43 5.13 0 3.603-3.171 5.909-8.128 5.909-4.929 0-8.128-2.277-8.128-5.822 0-2.277 1.47-4.266 3.689-5.217-1.614-0.951-2.651-2.594-2.651-4.295 0-3.256 2.767-5.332 7.061-5.332zm0.029 3.545c-1.729 0-2.709 0.779-2.709 2.22 0 1.383 0.98 2.161 2.709 2.161 1.758 0 2.709-0.778 2.709-2.161 0-1.441-0.951-2.22-2.709-2.22zm0 8.244c-2.046 0-3.171 0.893-3.171 2.507s1.125 2.508 3.171 2.508 3.199-0.894 3.199-2.508-1.153-2.507-3.199-2.507zm19.624-11.731c5.736 0 8.935 3.66 8.935 10.261 0 6.629-3.199 10.289-8.935 10.289-5.793 0-8.993-3.66-8.993-10.289 0-6.601 3.2-10.261 8.993-10.261zm0 3.92c-2.508 0-3.574 1.816-3.574 6.341 0 4.554 1.066 6.37 3.574 6.37 2.45 0 3.545-1.816 3.545-6.37 0-4.525-1.095-6.341-3.545-6.341zm31.737-5.361v3.401h-4.295v18.417h-5.13v-2.507c-1.066 1.787-2.767 2.738-4.986 2.738-3.372 0-5.563-2.335-5.563-5.966v-9.858h5.13v8.388c0 1.758 0.98 2.853 2.508 2.824 1.816-0.028 2.911-1.47 2.911-3.516v-13.921h9.425zm5.572 24.499h4.265v3.401h-9.396v-21.675h5.131v18.274z" fill="#444"/>
<path d="m347 184.08h-2.645v-1.745c-0.413 0.356-0.807 0.671-1.183 0.943-0.375 0.272-0.755 0.502-1.14 0.689-0.384 0.179-0.778 0.315-1.182 0.409-0.394 0.093-0.816 0.14-1.266 0.14-0.685 0-1.328-0.112-1.928-0.337-0.601-0.216-1.126-0.563-1.577-1.042-0.441-0.478-0.792-1.093-1.055-1.843-0.254-0.76-0.38-1.671-0.38-2.731v-16.381h2.646v6.178h9.71v2.336h-9.71v6.615c0 0.788 0.028 1.477 0.084 2.069 0.066 0.591 0.202 1.079 0.408 1.463 0.216 0.385 0.516 0.676 0.901 0.873 0.394 0.187 0.924 0.281 1.59 0.281 0.319 0 0.657-0.047 1.014-0.141 0.356-0.103 0.713-0.239 1.069-0.408 0.357-0.178 0.704-0.38 1.042-0.605 0.337-0.234 0.656-0.483 0.957-0.746v-6.079h2.645v10.062zm11.245-16.156c0.769 0 1.459 0.131 2.069 0.394 0.619 0.253 1.14 0.633 1.562 1.14 0.422 0.497 0.746 1.116 0.971 1.857 0.225 0.742 0.338 1.595 0.338 2.562v10.203h-2.646v-8.951c0-0.76-0.033-1.43-0.099-2.012-0.056-0.582-0.187-1.07-0.394-1.464-0.206-0.403-0.506-0.703-0.9-0.9-0.394-0.207-0.924-0.31-1.591-0.31-0.656 0-1.332 0.178-2.026 0.535-0.694 0.347-1.379 0.802-2.055 1.365v17.535h-2.646v-21.518h2.646v1.745c0.798-0.704 1.576-1.243 2.336-1.618 0.77-0.376 1.581-0.563 2.435-0.563zm11.188 0.436v9.091c0 0.77 0.024 1.441 0.071 2.013 0.056 0.572 0.173 1.046 0.352 1.421 0.187 0.376 0.455 0.657 0.802 0.845 0.356 0.178 0.83 0.267 1.421 0.267 0.544 0 1.126-0.164 1.745-0.492 0.62-0.338 1.267-0.821 1.942-1.45-9e-3 -0.159-0.023-0.347-0.042-0.563-9e-3 -0.225-0.014-0.488-0.014-0.788v-10.344h2.646v9.091c0 0.77 0.023 1.441 0.07 2.013 0.057 0.572 0.174 1.046 0.352 1.421 0.188 0.376 0.455 0.657 0.802 0.845 0.357 0.178 0.831 0.267 1.422 0.267 0.572 0 1.173-0.173 1.801-0.521 0.629-0.356 1.239-0.816 1.83-1.379v-11.737h2.646v15.72h-2.646v-1.745c-0.695 0.694-1.384 1.234-2.069 1.618-0.676 0.376-1.421 0.563-2.238 0.563-0.938 0-1.764-0.211-2.477-0.633s-1.257-1.116-1.632-2.083c-0.394 0.451-0.784 0.845-1.168 1.182-0.385 0.338-0.774 0.62-1.168 0.845-0.385 0.225-0.784 0.394-1.197 0.506-0.403 0.122-0.83 0.183-1.28 0.183-0.666 0-1.281-0.108-1.844-0.323-0.563-0.216-1.051-0.554-1.464-1.014-0.412-0.469-0.736-1.069-0.971-1.801-0.225-0.741-0.337-1.633-0.337-2.674v-10.344h2.645zm35.086 15.72h-2.646v-1.745c-0.413 0.356-0.807 0.671-1.182 0.943-0.376 0.272-0.756 0.502-1.14 0.689-0.385 0.179-0.779 0.315-1.183 0.409-0.394 0.093-0.816 0.14-1.266 0.14-0.685 0-1.332-0.112-1.942-0.337-0.601-0.226-1.126-0.582-1.577-1.07-0.45-0.488-0.802-1.098-1.055-1.83-0.244-0.741-0.366-1.646-0.366-2.716v-14.045h-2.969v-2.336h5.615v15.129c0 0.835 0.028 1.529 0.084 2.083 0.066 0.544 0.207 1.022 0.422 1.435 0.216 0.404 0.507 0.699 0.873 0.887 0.375 0.187 0.91 0.281 1.604 0.281 0.648 0 1.337-0.183 2.069-0.549 0.741-0.375 1.412-0.825 2.013-1.351v-11.737h2.646v15.72zm15.945 5.798h-2.646v-7.515c-0.385 0.357-0.76 0.662-1.126 0.915s-0.741 0.464-1.126 0.633c-0.375 0.16-0.764 0.277-1.168 0.352-0.394 0.084-0.816 0.127-1.267 0.127-1.782 0-3.204-0.713-4.264-2.139-1.06-1.445-1.59-3.439-1.59-5.982 0-1.36 0.183-2.556 0.549-3.588s0.858-1.9 1.477-2.604c0.592-0.685 1.286-1.215 2.083-1.59 0.798-0.376 1.638-0.563 2.52-0.563 0.403 0 0.774 0.023 1.111 0.07 0.347 0.047 0.676 0.117 0.985 0.211 0.31 0.094 0.61 0.211 0.901 0.352 0.3 0.141 0.605 0.3 0.915 0.479l0.169-0.676h2.477v13.384h2.969v2.336h-2.969v5.798zm-10.457-13.735c0 1.839 0.3 3.255 0.901 4.25 0.6 0.985 1.534 1.478 2.8 1.478 0.742 0 1.464-0.16 2.168-0.479 0.703-0.319 1.351-0.736 1.942-1.252v-8.951c-0.328-0.16-0.643-0.296-0.943-0.408-0.3-0.122-0.582-0.216-0.844-0.282-0.545-0.131-1.108-0.197-1.689-0.197-1.398 0-2.472 0.502-3.223 1.506-0.741 0.995-1.112 2.439-1.112 4.335zm31.651 0.042h-7.937v-2.547h7.937v2.547z" fill="#444"/>
</svg>
