<svg width="536" height="345" viewBox="0 0 536 345" fill="none" xmlns="http://www.w3.org/2000/svg">
<path d="M48.5677 237.795H57.7332V258H52.4587V242.119H48.5677V237.795Z" fill="#2F2F2F"/>
<path d="M46.5677 133.795H55.7332V154H50.4587V138.119H46.5677V133.795Z" fill="#2F2F2F"/>
<path d="M459.568 241.795H468.733V262H463.459V246.119H459.568V241.795ZM481.827 241.623C487.563 241.623 490.762 245.283 490.762 251.883C490.762 258.512 487.563 262.173 481.827 262.173C476.034 262.173 472.835 258.512 472.835 251.883C472.835 245.283 476.034 241.623 481.827 241.623ZM481.827 245.542C479.32 245.542 478.253 247.358 478.253 251.883C478.253 256.437 479.32 258.253 481.827 258.253C484.277 258.253 485.372 256.437 485.372 251.883C485.372 247.358 484.277 245.542 481.827 245.542ZM513.997 246.263V262H509.99V254.276C509.99 253.507 510 252.758 510.019 252.027C510.058 251.297 510.106 250.625 510.163 250.01H510.077L505.725 262H502.496L498.087 249.981H497.971C498.048 250.615 498.096 251.297 498.115 252.027C498.154 252.738 498.173 253.526 498.173 254.391V262H494.167V246.263H500.248L504.168 256.927L508.146 246.263H513.997ZM532.58 262H528.285V249.491H524.337C524.144 251.797 523.904 253.766 523.616 255.4C523.347 257.014 523.001 258.33 522.578 259.348C522.175 260.367 521.656 261.116 521.022 261.596C520.388 262.058 519.61 262.288 518.687 262.288C518.188 262.288 517.736 262.25 517.333 262.173C516.929 262.096 516.564 261.981 516.238 261.827V258.397C516.449 258.474 516.67 258.541 516.9 258.599C517.131 258.657 517.371 258.685 517.621 258.685C517.89 258.685 518.14 258.58 518.37 258.368C518.62 258.157 518.851 257.782 519.062 257.244C519.293 256.706 519.504 255.967 519.696 255.025C519.888 254.083 520.061 252.902 520.215 251.48C520.388 250.039 520.542 248.3 520.676 246.263H532.58V262Z" fill="#444444"/>
<path d="M77.7104 245.294C76.8026 245.294 75.9699 245.18 75.2124 244.951C74.4613 244.722 73.8082 244.37 73.2531 243.893C72.7045 243.416 72.2768 242.819 71.9698 242.1C71.6629 241.375 71.5094 240.523 71.5094 239.544C71.5094 238.492 71.6759 237.597 72.009 236.859C72.3421 236.121 72.7927 235.514 73.3609 235.037C73.9095 234.58 74.5527 234.244 75.2907 234.028C76.0352 233.806 76.8091 233.695 77.6124 233.695C78.2198 233.695 78.8271 233.767 79.4345 233.911C80.0419 234.048 80.6525 234.27 81.2664 234.577V237.516H80.8256C80.6884 237.385 80.5186 237.241 80.3162 237.085C80.1202 236.928 79.9047 236.784 79.6696 236.654C79.4214 236.517 79.1406 236.402 78.8271 236.311C78.5137 236.213 78.1643 236.164 77.7789 236.164C76.9038 236.164 76.2246 236.471 75.7413 237.085C75.2646 237.692 75.0262 238.512 75.0262 239.544C75.0262 240.647 75.2809 241.47 75.7903 242.012C76.3063 242.554 76.9887 242.825 77.8377 242.825C78.2688 242.825 78.6475 242.776 78.9741 242.678C79.3006 242.58 79.5814 242.463 79.8165 242.326C80.0451 242.189 80.241 242.048 80.4043 241.904C80.5676 241.754 80.708 241.62 80.8256 241.503H81.2664V244.442C81.0705 244.527 80.8419 244.624 80.5806 244.736C80.3259 244.847 80.0647 244.938 79.797 245.01C79.4639 245.101 79.1504 245.17 78.8565 245.216C78.5692 245.268 78.1871 245.294 77.7104 245.294ZM92.6789 241.307C92.6789 241.868 92.5679 242.388 92.3458 242.864C92.1238 243.335 91.8332 243.72 91.474 244.02C91.0299 244.38 90.5695 244.634 90.0927 244.784C89.6225 244.928 88.9858 245 88.1825 245H82.8925V233.999H86.3114V237.712H88.1923C88.9825 237.712 89.6192 237.767 90.1025 237.878C90.5923 237.989 91.056 238.208 91.4936 238.535C91.8789 238.822 92.1728 239.21 92.3752 239.7C92.5777 240.19 92.6789 240.726 92.6789 241.307ZM88.9074 242.257C89.0184 242.113 89.0935 241.966 89.1327 241.816C89.1719 241.66 89.1915 241.5 89.1915 241.336C89.1915 240.866 89.0511 240.517 88.7702 240.288C88.4894 240.059 88.0845 239.945 87.5555 239.945H86.3114V242.776H87.5555C87.9082 242.776 88.1955 242.727 88.4176 242.629C88.6396 242.525 88.8029 242.401 88.9074 242.257ZM97.2243 245H93.7957V233.999H97.2243V245ZM110.204 241.679C110.204 242.208 110.1 242.678 109.891 243.09C109.682 243.501 109.401 243.844 109.048 244.118C108.604 244.464 108.134 244.7 107.638 244.824C107.148 244.941 106.563 245 105.884 245H99.8595V233.999H105.6C106.403 233.999 106.994 234.025 107.373 234.077C107.752 234.13 108.124 234.257 108.49 234.459C108.875 234.668 109.163 234.946 109.352 235.292C109.541 235.638 109.636 236.05 109.636 236.526C109.636 237.075 109.489 237.552 109.195 237.957C108.901 238.361 108.532 238.672 108.088 238.887V238.995C108.696 239.145 109.199 239.449 109.597 239.906C110.002 240.357 110.204 240.948 110.204 241.679ZM106.217 237.32C106.217 236.895 106.093 236.601 105.845 236.438C105.603 236.275 105.215 236.193 104.679 236.193H103.259V238.388H104.738C105.215 238.388 105.58 238.293 105.835 238.103C106.09 237.914 106.217 237.653 106.217 237.32ZM106.707 241.571C106.707 241.095 106.573 240.762 106.305 240.572C106.038 240.376 105.639 240.278 105.11 240.278H103.259V242.796H105.169C105.652 242.796 106.028 242.688 106.296 242.473C106.57 242.251 106.707 241.95 106.707 241.571ZM122.626 239.504C122.626 241.313 122.129 242.74 121.137 243.785C120.151 244.824 118.753 245.343 116.944 245.343C115.148 245.343 113.75 244.824 112.751 243.785C111.759 242.74 111.262 241.313 111.262 239.504C111.262 237.676 111.759 236.245 112.751 235.214C113.75 234.175 115.148 233.656 116.944 233.656C118.747 233.656 120.144 234.179 121.137 235.223C122.129 236.262 122.626 237.689 122.626 239.504ZM119.109 239.524C119.109 238.871 119.053 238.329 118.942 237.898C118.838 237.46 118.691 237.111 118.502 236.85C118.299 236.575 118.071 236.386 117.816 236.281C117.561 236.17 117.271 236.115 116.944 236.115C116.637 236.115 116.36 236.164 116.111 236.262C115.863 236.353 115.635 236.533 115.426 236.801C115.23 237.055 115.073 237.405 114.955 237.849C114.838 238.293 114.779 238.851 114.779 239.524C114.779 240.197 114.835 240.742 114.946 241.16C115.057 241.571 115.2 241.901 115.377 242.149C115.559 242.404 115.788 242.59 116.062 242.708C116.337 242.825 116.64 242.884 116.973 242.884C117.248 242.884 117.525 242.825 117.806 242.708C118.093 242.59 118.322 242.414 118.492 242.179C118.694 241.898 118.848 241.562 118.952 241.17C119.057 240.771 119.109 240.223 119.109 239.524ZM135.233 239.348C135.233 241.104 134.786 242.522 133.891 243.599C133.003 244.677 131.906 245.216 130.6 245.216C130.051 245.216 129.575 245.153 129.17 245.029C128.765 244.905 128.334 244.713 127.877 244.451V249.036H124.448V233.999H127.877V235.145C128.379 234.714 128.892 234.365 129.415 234.097C129.937 233.829 130.541 233.695 131.227 233.695C132.5 233.695 133.486 234.201 134.185 235.214C134.884 236.226 135.233 237.604 135.233 239.348ZM131.726 239.416C131.726 238.345 131.56 237.568 131.227 237.085C130.9 236.601 130.388 236.36 129.689 236.36C129.382 236.36 129.075 236.409 128.768 236.507C128.468 236.605 128.17 236.752 127.877 236.948V242.482C128.059 242.561 128.259 242.616 128.474 242.649C128.696 242.682 128.957 242.698 129.258 242.698C130.094 242.698 130.714 242.427 131.119 241.885C131.524 241.336 131.726 240.513 131.726 239.416ZM147.645 239.504C147.645 241.313 147.149 242.74 146.156 243.785C145.17 244.824 143.772 245.343 141.963 245.343C140.167 245.343 138.77 244.824 137.771 243.785C136.778 242.74 136.282 241.313 136.282 239.504C136.282 237.676 136.778 236.245 137.771 235.214C138.77 234.175 140.167 233.656 141.963 233.656C143.766 233.656 145.163 234.179 146.156 235.223C147.149 236.262 147.645 237.689 147.645 239.504ZM144.128 239.524C144.128 238.871 144.073 238.329 143.962 237.898C143.857 237.46 143.71 237.111 143.521 236.85C143.319 236.575 143.09 236.386 142.835 236.281C142.581 236.17 142.29 236.115 141.963 236.115C141.656 236.115 141.379 236.164 141.131 236.262C140.883 236.353 140.654 236.533 140.445 236.801C140.249 237.055 140.092 237.405 139.975 237.849C139.857 238.293 139.798 238.851 139.798 239.524C139.798 240.197 139.854 240.742 139.965 241.16C140.076 241.571 140.22 241.901 140.396 242.149C140.579 242.404 140.807 242.59 141.082 242.708C141.356 242.825 141.66 242.884 141.993 242.884C142.267 242.884 142.545 242.825 142.825 242.708C143.113 242.59 143.341 242.414 143.511 242.179C143.714 241.898 143.867 241.562 143.972 241.17C144.076 240.771 144.128 240.223 144.128 239.524ZM158.499 236.389H155.09V245H151.662V236.389H148.253V233.999H158.499V236.389ZM170.774 245H166.826L164.22 240.641H163.339V245H159.91V233.999H163.339V238.417C163.822 238.41 164.181 238.342 164.416 238.211C164.658 238.074 164.919 237.718 165.2 237.143C165.291 236.948 165.389 236.732 165.494 236.497C165.598 236.262 165.693 236.053 165.778 235.87C166.124 235.145 166.549 234.649 167.051 234.381C167.561 234.113 168.178 233.979 168.903 233.979C169.158 233.979 169.399 233.983 169.628 233.989C169.856 233.996 170.02 233.999 170.118 233.999V236.938H169.451C169.242 236.938 169.053 236.98 168.883 237.065C168.72 237.143 168.576 237.245 168.452 237.369C168.328 237.499 168.233 237.63 168.168 237.761C168.109 237.891 168.051 238.019 167.992 238.143C167.842 238.495 167.731 238.747 167.659 238.897C167.587 239.047 167.46 239.194 167.277 239.338L170.774 245ZM178.082 242.13V239.837C177.501 239.896 177.03 239.948 176.671 239.994C176.312 240.033 175.959 240.115 175.613 240.239C175.313 240.344 175.078 240.504 174.908 240.719C174.745 240.928 174.663 241.209 174.663 241.562C174.663 242.077 174.8 242.433 175.074 242.629C175.355 242.819 175.767 242.913 176.309 242.913C176.609 242.913 176.916 242.845 177.23 242.708C177.543 242.571 177.827 242.378 178.082 242.13ZM178.082 243.834C177.847 244.03 177.635 244.207 177.445 244.363C177.262 244.52 177.014 244.677 176.701 244.833C176.394 244.984 176.093 245.098 175.799 245.176C175.512 245.255 175.107 245.294 174.585 245.294C173.612 245.294 172.802 244.967 172.155 244.314C171.515 243.661 171.195 242.838 171.195 241.846C171.195 241.029 171.358 240.37 171.685 239.867C172.012 239.364 172.482 238.966 173.096 238.672C173.716 238.371 174.457 238.162 175.319 238.045C176.181 237.927 177.109 237.836 178.101 237.77V237.712C178.101 237.104 177.876 236.686 177.426 236.458C176.981 236.223 176.312 236.105 175.417 236.105C175.012 236.105 174.539 236.18 173.997 236.33C173.455 236.474 172.926 236.66 172.41 236.889H172.116V234.234C172.456 234.136 173.004 234.022 173.762 233.891C174.519 233.754 175.283 233.685 176.054 233.685C177.948 233.685 179.326 234.002 180.188 234.636C181.057 235.263 181.491 236.223 181.491 237.516V245H178.082V243.834ZM201.142 247.723H198.095V244.961H191.728V247.723H188.681V242.531H189.475C189.971 241.5 190.366 240.239 190.66 238.75C190.961 237.261 191.111 235.677 191.111 233.999H200.055V242.531H201.142V247.723ZM196.646 242.531V236.419H194.226C194.115 237.64 193.926 238.773 193.658 239.818C193.397 240.856 193.08 241.761 192.708 242.531H196.646ZM213.387 245H209.959V236.419H207.265C207.245 236.889 207.229 237.268 207.216 237.555C207.209 237.842 207.199 238.166 207.186 238.525C207.141 239.576 207.052 240.435 206.922 241.101C206.791 241.761 206.625 242.303 206.422 242.727C206.226 243.152 206.024 243.485 205.815 243.726C205.612 243.962 205.39 244.184 205.149 244.393C204.92 244.589 204.597 244.752 204.179 244.882C203.761 245.007 203.379 245.069 203.033 245.069C202.739 245.069 202.445 245.056 202.151 245.029C201.864 245.01 201.691 245 201.632 245V242.218H201.73C201.756 242.218 201.798 242.221 201.857 242.228C201.922 242.234 201.985 242.237 202.043 242.237C202.2 242.237 202.363 242.221 202.533 242.189C202.703 242.149 202.843 242.074 202.954 241.963C203.405 241.506 203.692 240.895 203.816 240.131C203.947 239.367 204.035 238.512 204.081 237.565C204.107 237.049 204.133 236.474 204.159 235.841C204.185 235.201 204.205 234.587 204.218 233.999H213.387V245ZM225.613 245H222.194V241.179H221.156L218.52 245H214.68L217.835 240.69C217.051 240.33 216.48 239.896 216.12 239.387C215.761 238.871 215.582 238.185 215.582 237.33C215.582 236.722 215.699 236.213 215.934 235.801C216.176 235.383 216.499 235.031 216.904 234.743C217.263 234.495 217.685 234.309 218.168 234.185C218.658 234.061 219.203 233.999 219.804 233.999H225.613V245ZM222.194 239.024V236.281H220.617C220.134 236.281 219.755 236.392 219.48 236.614C219.213 236.83 219.079 237.147 219.079 237.565C219.079 238.081 219.213 238.453 219.48 238.681C219.748 238.91 220.147 239.024 220.676 239.024H222.194ZM82.7652 268H79.3953V261.319L75.183 268H72.3127V256.999H75.6826V262.975L79.5423 256.999H82.7652V268ZM95.8039 268H92.3752V263.288H88.829V268H85.4004V256.999H88.829V260.81H92.3752V256.999H95.8039V268ZM107.461 259.389H104.052V268H100.624V259.389H97.2145V256.999H107.461V259.389ZM114.505 268.294C112.428 268.294 110.834 267.798 109.724 266.805C108.621 265.812 108.069 264.398 108.069 262.563C108.069 260.767 108.585 259.334 109.616 258.263C110.648 257.192 112.092 256.656 113.946 256.656C115.631 256.656 116.898 257.11 117.747 258.018C118.596 258.925 119.021 260.225 119.021 261.917V263.151H111.507C111.54 263.66 111.648 264.088 111.83 264.434C112.013 264.774 112.255 265.045 112.555 265.247C112.849 265.45 113.192 265.597 113.584 265.688C113.976 265.773 114.404 265.815 114.867 265.815C115.266 265.815 115.657 265.773 116.043 265.688C116.428 265.597 116.781 265.479 117.101 265.335C117.382 265.211 117.64 265.077 117.875 264.934C118.116 264.79 118.312 264.663 118.462 264.552H118.825V267.383C118.544 267.494 118.286 267.598 118.051 267.696C117.822 267.788 117.506 267.882 117.101 267.98C116.728 268.078 116.343 268.153 115.945 268.206C115.553 268.264 115.073 268.294 114.505 268.294ZM115.641 261.084C115.622 260.359 115.452 259.807 115.132 259.428C114.818 259.05 114.335 258.86 113.682 258.86C113.016 258.86 112.493 259.059 112.115 259.458C111.742 259.856 111.537 260.398 111.497 261.084H115.641ZM131.188 268H127.759V263.288H124.213V268H120.784V256.999H124.213V260.81H127.759V256.999H131.188V268ZM139.211 268.294C138.303 268.294 137.47 268.18 136.713 267.951C135.962 267.722 135.309 267.37 134.753 266.893C134.205 266.416 133.777 265.819 133.47 265.1C133.163 264.375 133.01 263.523 133.01 262.544C133.01 261.492 133.176 260.597 133.509 259.859C133.842 259.121 134.293 258.514 134.861 258.037C135.41 257.58 136.053 257.244 136.791 257.028C137.536 256.806 138.309 256.695 139.113 256.695C139.72 256.695 140.327 256.767 140.935 256.911C141.542 257.048 142.153 257.27 142.767 257.577V260.516H142.326C142.189 260.385 142.019 260.241 141.816 260.085C141.621 259.928 141.405 259.784 141.17 259.654C140.922 259.517 140.641 259.402 140.327 259.311C140.014 259.213 139.665 259.164 139.279 259.164C138.404 259.164 137.725 259.471 137.242 260.085C136.765 260.692 136.527 261.512 136.527 262.544C136.527 263.647 136.781 264.47 137.291 265.012C137.807 265.554 138.489 265.825 139.338 265.825C139.769 265.825 140.148 265.776 140.474 265.678C140.801 265.58 141.082 265.463 141.317 265.326C141.545 265.189 141.741 265.048 141.905 264.904C142.068 264.754 142.208 264.62 142.326 264.503H142.767V267.442C142.571 267.527 142.342 267.624 142.081 267.736C141.826 267.847 141.565 267.938 141.297 268.01C140.964 268.101 140.651 268.17 140.357 268.216C140.069 268.268 139.687 268.294 139.211 268.294ZM154.845 268H151.475V261.319L147.263 268H144.393V256.999H147.763V262.975L151.622 256.999H154.845V268ZM167.825 264.679C167.825 265.208 167.721 265.678 167.512 266.09C167.303 266.501 167.022 266.844 166.669 267.118C166.225 267.464 165.755 267.7 165.259 267.824C164.769 267.941 164.184 268 163.505 268H157.481V256.999H163.221C164.024 256.999 164.615 257.025 164.994 257.077C165.373 257.13 165.745 257.257 166.111 257.459C166.496 257.668 166.784 257.946 166.973 258.292C167.162 258.638 167.257 259.05 167.257 259.526C167.257 260.075 167.11 260.552 166.816 260.957C166.522 261.361 166.153 261.672 165.709 261.887V261.995C166.317 262.145 166.82 262.449 167.218 262.906C167.623 263.357 167.825 263.948 167.825 264.679ZM163.838 260.32C163.838 259.895 163.714 259.601 163.466 259.438C163.224 259.275 162.836 259.193 162.3 259.193H160.88V261.388H162.359C162.836 261.388 163.202 261.293 163.456 261.103C163.711 260.914 163.838 260.653 163.838 260.32ZM164.328 264.571C164.328 264.095 164.194 263.762 163.926 263.572C163.659 263.376 163.26 263.278 162.731 263.278H160.88V265.796H162.79C163.273 265.796 163.649 265.688 163.917 265.473C164.191 265.251 164.328 264.95 164.328 264.571ZM180.09 268H176.661V263.288H173.115V268H169.687V256.999H173.115V260.81H176.661V256.999H180.09V268ZM193.276 262.504C193.276 264.313 192.779 265.74 191.787 266.785C190.801 267.824 189.403 268.343 187.594 268.343C185.798 268.343 184.4 267.824 183.401 266.785C182.409 265.74 181.912 264.313 181.912 262.504C181.912 260.676 182.409 259.245 183.401 258.214C184.4 257.175 185.798 256.656 187.594 256.656C189.396 256.656 190.794 257.179 191.787 258.223C192.779 259.262 193.276 260.689 193.276 262.504ZM189.759 262.524C189.759 261.871 189.703 261.329 189.592 260.898C189.488 260.46 189.341 260.111 189.152 259.85C188.949 259.575 188.721 259.386 188.466 259.281C188.211 259.17 187.92 259.115 187.594 259.115C187.287 259.115 187.009 259.164 186.761 259.262C186.513 259.353 186.285 259.533 186.076 259.801C185.88 260.055 185.723 260.405 185.605 260.849C185.488 261.293 185.429 261.851 185.429 262.524C185.429 263.197 185.485 263.742 185.596 264.16C185.707 264.571 185.85 264.901 186.027 265.149C186.209 265.404 186.438 265.59 186.712 265.708C186.987 265.825 187.29 265.884 187.623 265.884C187.898 265.884 188.175 265.825 188.456 265.708C188.743 265.59 188.972 265.414 189.142 265.179C189.344 264.898 189.498 264.562 189.602 264.17C189.707 263.771 189.759 263.223 189.759 262.524ZM203.689 259.409H198.526V268H195.098V256.999H203.689V259.409ZM215.67 262.504C215.67 264.313 215.173 265.74 214.181 266.785C213.195 267.824 211.797 268.343 209.988 268.343C208.192 268.343 206.794 267.824 205.795 266.785C204.803 265.74 204.306 264.313 204.306 262.504C204.306 260.676 204.803 259.245 205.795 258.214C206.794 257.175 208.192 256.656 209.988 256.656C211.79 256.656 213.188 257.179 214.181 258.223C215.173 259.262 215.67 260.689 215.67 262.504ZM212.153 262.524C212.153 261.871 212.097 261.329 211.986 260.898C211.882 260.46 211.735 260.111 211.546 259.85C211.343 259.575 211.115 259.386 210.86 259.281C210.605 259.17 210.315 259.115 209.988 259.115C209.681 259.115 209.403 259.164 209.155 259.262C208.907 259.353 208.679 259.533 208.47 259.801C208.274 260.055 208.117 260.405 207.999 260.849C207.882 261.293 207.823 261.851 207.823 262.524C207.823 263.197 207.879 263.742 207.99 264.16C208.101 264.571 208.244 264.901 208.421 265.149C208.603 265.404 208.832 265.59 209.106 265.708C209.381 265.825 209.684 265.884 210.017 265.884C210.292 265.884 210.569 265.825 210.85 265.708C211.137 265.59 211.366 265.414 211.536 265.179C211.738 264.898 211.892 264.562 211.996 264.17C212.101 263.771 212.153 263.223 212.153 262.524ZM232.793 258.743C233.211 259.167 233.541 259.693 233.783 260.32C234.025 260.94 234.145 261.714 234.145 262.641C234.145 264.359 233.633 265.74 232.607 266.785C231.589 267.824 230.211 268.343 228.473 268.343C226.566 268.343 225.149 267.726 224.222 266.491C223.294 265.257 222.831 263.409 222.831 260.947C222.831 260.477 222.854 260 222.899 259.517C222.945 259.027 223.05 258.436 223.213 257.743C223.35 257.169 223.546 256.597 223.801 256.029C224.062 255.454 224.372 254.984 224.731 254.618C225.136 254.2 225.688 253.841 226.387 253.541C227.086 253.234 228.065 253.018 229.326 252.894C229.92 252.836 230.625 252.787 231.442 252.747C232.258 252.708 232.908 252.682 233.391 252.669V255.245C232.98 255.265 232.601 255.285 232.255 255.304C231.915 255.317 231.523 255.34 231.079 255.373C230.805 255.392 230.446 255.425 230.002 255.471C229.557 255.51 229.179 255.559 228.865 255.618C228.486 255.696 228.134 255.817 227.807 255.98C227.487 256.143 227.223 256.359 227.014 256.627C226.857 256.829 226.726 257.1 226.622 257.44C226.524 257.773 226.452 258.184 226.406 258.674C226.89 258.328 227.399 258.05 227.935 257.841C228.47 257.632 229.048 257.528 229.668 257.528C230.282 257.528 230.857 257.629 231.393 257.832C231.928 258.034 232.395 258.338 232.793 258.743ZM229.923 265.267C230.132 265.012 230.299 264.702 230.423 264.336C230.553 263.964 230.619 263.438 230.619 262.759C230.619 261.969 230.416 261.335 230.011 260.859C229.606 260.375 229.071 260.134 228.405 260.134C228.098 260.134 227.775 260.173 227.435 260.251C227.095 260.33 226.739 260.473 226.367 260.682C226.367 260.748 226.364 260.842 226.357 260.966C226.357 261.084 226.357 261.192 226.357 261.29C226.357 262.237 226.387 262.955 226.446 263.445C226.504 263.935 226.635 264.388 226.837 264.806C227.007 265.159 227.236 265.427 227.523 265.61C227.81 265.793 228.144 265.884 228.522 265.884C228.738 265.884 228.976 265.835 229.237 265.737C229.505 265.639 229.734 265.482 229.923 265.267ZM246.459 268H243.03V259.419H240.336C240.317 259.889 240.301 260.268 240.288 260.555C240.281 260.842 240.271 261.166 240.258 261.525C240.212 262.576 240.124 263.435 239.994 264.101C239.863 264.761 239.696 265.303 239.494 265.727C239.298 266.152 239.096 266.485 238.887 266.726C238.684 266.962 238.462 267.184 238.221 267.393C237.992 267.589 237.669 267.752 237.251 267.882C236.833 268.007 236.451 268.069 236.105 268.069C235.811 268.069 235.517 268.056 235.223 268.029C234.936 268.01 234.762 268 234.704 268V265.218H234.802C234.828 265.218 234.87 265.221 234.929 265.228C234.994 265.234 235.056 265.237 235.115 265.237C235.272 265.237 235.435 265.221 235.605 265.189C235.775 265.149 235.915 265.074 236.026 264.963C236.477 264.506 236.764 263.895 236.888 263.131C237.019 262.367 237.107 261.512 237.153 260.565C237.179 260.049 237.205 259.474 237.231 258.841C237.257 258.201 237.277 257.587 237.29 256.999H246.459V268ZM254.727 268.294C252.65 268.294 251.057 267.798 249.947 266.805C248.843 265.812 248.291 264.398 248.291 262.563C248.291 260.767 248.807 259.334 249.839 258.263C250.871 257.192 252.314 256.656 254.169 256.656C255.854 256.656 257.121 257.11 257.97 258.018C258.819 258.925 259.243 260.225 259.243 261.917V263.151H251.729C251.762 263.66 251.87 264.088 252.053 264.434C252.236 264.774 252.477 265.045 252.778 265.247C253.072 265.45 253.414 265.597 253.806 265.688C254.198 265.773 254.626 265.815 255.09 265.815C255.488 265.815 255.88 265.773 256.265 265.688C256.65 265.597 257.003 265.479 257.323 265.335C257.604 265.211 257.862 265.077 258.097 264.934C258.339 264.79 258.535 264.663 258.685 264.552H259.047V267.383C258.766 267.494 258.508 267.598 258.273 267.696C258.045 267.788 257.728 267.882 257.323 267.98C256.951 268.078 256.565 268.153 256.167 268.206C255.775 268.264 255.295 268.294 254.727 268.294ZM255.863 261.084C255.844 260.359 255.674 259.807 255.354 259.428C255.041 259.05 254.557 258.86 253.904 258.86C253.238 258.86 252.716 259.059 252.337 259.458C251.965 259.856 251.759 260.398 251.72 261.084H255.863ZM266.404 268.294C265.496 268.294 264.664 268.18 263.906 267.951C263.155 267.722 262.502 267.37 261.947 266.893C261.398 266.416 260.97 265.819 260.664 265.1C260.357 264.375 260.203 263.523 260.203 262.544C260.203 261.492 260.37 260.597 260.703 259.859C261.036 259.121 261.486 258.514 262.055 258.037C262.603 257.58 263.246 257.244 263.984 257.028C264.729 256.806 265.503 256.695 266.306 256.695C266.913 256.695 267.521 256.767 268.128 256.911C268.736 257.048 269.346 257.27 269.96 257.577V260.516H269.519C269.382 260.385 269.212 260.241 269.01 260.085C268.814 259.928 268.598 259.784 268.363 259.654C268.115 259.517 267.834 259.402 267.521 259.311C267.207 259.213 266.858 259.164 266.473 259.164C265.598 259.164 264.918 259.471 264.435 260.085C263.958 260.692 263.72 261.512 263.72 262.544C263.72 263.647 263.975 264.47 264.484 265.012C265 265.554 265.682 265.825 266.531 265.825C266.962 265.825 267.341 265.776 267.668 265.678C267.994 265.58 268.275 265.463 268.51 265.326C268.739 265.189 268.935 265.048 269.098 264.904C269.261 264.754 269.402 264.62 269.519 264.503H269.96V267.442C269.764 267.527 269.536 267.624 269.274 267.736C269.02 267.847 268.758 267.938 268.491 268.01C268.158 268.101 267.844 268.17 267.55 268.216C267.263 268.268 266.881 268.294 266.404 268.294ZM282.45 268H278.502L275.897 263.641H275.015V268H271.586V256.999H275.015V261.417C275.498 261.41 275.857 261.342 276.093 261.211C276.334 261.074 276.595 260.718 276.876 260.143C276.968 259.948 277.066 259.732 277.17 259.497C277.275 259.262 277.369 259.053 277.454 258.87C277.8 258.145 278.225 257.649 278.728 257.381C279.237 257.113 279.854 256.979 280.579 256.979C280.834 256.979 281.075 256.983 281.304 256.989C281.533 256.996 281.696 256.999 281.794 256.999V259.938H281.128C280.919 259.938 280.729 259.98 280.56 260.065C280.396 260.143 280.253 260.245 280.129 260.369C280.004 260.499 279.91 260.63 279.844 260.761C279.786 260.891 279.727 261.019 279.668 261.143C279.518 261.495 279.407 261.747 279.335 261.897C279.263 262.047 279.136 262.194 278.953 262.338L282.45 268ZM289.758 265.13V262.837C289.177 262.896 288.707 262.948 288.348 262.994C287.988 263.033 287.636 263.115 287.29 263.239C286.989 263.344 286.754 263.504 286.584 263.719C286.421 263.928 286.339 264.209 286.339 264.562C286.339 265.077 286.476 265.433 286.751 265.629C287.032 265.819 287.443 265.913 287.985 265.913C288.285 265.913 288.592 265.845 288.906 265.708C289.219 265.571 289.503 265.378 289.758 265.13ZM289.758 266.834C289.523 267.03 289.311 267.207 289.121 267.363C288.939 267.52 288.69 267.677 288.377 267.833C288.07 267.984 287.77 268.098 287.476 268.176C287.188 268.255 286.783 268.294 286.261 268.294C285.288 268.294 284.478 267.967 283.831 267.314C283.191 266.661 282.871 265.838 282.871 264.846C282.871 264.029 283.035 263.37 283.361 262.867C283.688 262.364 284.158 261.966 284.772 261.672C285.392 261.371 286.134 261.162 286.996 261.045C287.858 260.927 288.785 260.836 289.778 260.77V260.712C289.778 260.104 289.552 259.686 289.102 259.458C288.658 259.223 287.988 259.105 287.094 259.105C286.689 259.105 286.215 259.18 285.673 259.33C285.131 259.474 284.602 259.66 284.086 259.889H283.792V257.234C284.132 257.136 284.68 257.022 285.438 256.891C286.196 256.754 286.96 256.685 287.73 256.685C289.624 256.685 291.002 257.002 291.864 257.636C292.733 258.263 293.167 259.223 293.167 260.516V268H289.758V266.834ZM311.927 264.679C311.927 265.208 311.822 265.678 311.613 266.09C311.404 266.501 311.124 266.844 310.771 267.118C310.327 267.464 309.857 267.7 309.36 267.824C308.87 267.941 308.286 268 307.607 268H301.582V256.999H307.323C308.126 256.999 308.717 257.025 309.096 257.077C309.475 257.13 309.847 257.257 310.213 257.459C310.598 257.668 310.885 257.946 311.075 258.292C311.264 258.638 311.359 259.05 311.359 259.526C311.359 260.075 311.212 260.552 310.918 260.957C310.624 261.361 310.255 261.672 309.811 261.887V261.995C310.418 262.145 310.921 262.449 311.32 262.906C311.724 263.357 311.927 263.948 311.927 264.679ZM307.94 260.32C307.94 259.895 307.816 259.601 307.568 259.438C307.326 259.275 306.937 259.193 306.402 259.193H304.981V261.388H306.461C306.937 261.388 307.303 261.293 307.558 261.103C307.812 260.914 307.94 260.653 307.94 260.32ZM308.43 264.571C308.43 264.095 308.296 263.762 308.028 263.572C307.76 263.376 307.362 263.278 306.833 263.278H304.981V265.796H306.892C307.375 265.796 307.75 265.688 308.018 265.473C308.292 265.251 308.43 264.95 308.43 264.571ZM324.348 262.504C324.348 264.313 323.852 265.74 322.859 266.785C321.873 267.824 320.476 268.343 318.667 268.343C316.871 268.343 315.473 267.824 314.474 266.785C313.481 265.74 312.985 264.313 312.985 262.504C312.985 260.676 313.481 259.245 314.474 258.214C315.473 257.175 316.871 256.656 318.667 256.656C320.469 256.656 321.867 257.179 322.859 258.223C323.852 259.262 324.348 260.689 324.348 262.504ZM320.832 262.524C320.832 261.871 320.776 261.329 320.665 260.898C320.561 260.46 320.414 260.111 320.224 259.85C320.022 259.575 319.793 259.386 319.538 259.281C319.284 259.17 318.993 259.115 318.667 259.115C318.36 259.115 318.082 259.164 317.834 259.262C317.586 259.353 317.357 259.533 317.148 259.801C316.952 260.055 316.796 260.405 316.678 260.849C316.56 261.293 316.502 261.851 316.502 262.524C316.502 263.197 316.557 263.742 316.668 264.16C316.779 264.571 316.923 264.901 317.099 265.149C317.282 265.404 317.511 265.59 317.785 265.708C318.059 265.825 318.363 265.884 318.696 265.884C318.97 265.884 319.248 265.825 319.529 265.708C319.816 265.59 320.045 265.414 320.214 265.179C320.417 264.898 320.57 264.562 320.675 264.17C320.779 263.771 320.832 263.223 320.832 262.524ZM336.662 268H333.234V259.419H330.54C330.52 259.889 330.504 260.268 330.491 260.555C330.484 260.842 330.474 261.166 330.461 261.525C330.416 262.576 330.327 263.435 330.197 264.101C330.066 264.761 329.9 265.303 329.697 265.727C329.501 266.152 329.299 266.485 329.09 266.726C328.887 266.962 328.665 267.184 328.424 267.393C328.195 267.589 327.872 267.752 327.454 267.882C327.036 268.007 326.654 268.069 326.308 268.069C326.014 268.069 325.72 268.056 325.426 268.029C325.139 268.01 324.966 268 324.907 268V265.218H325.005C325.031 265.218 325.073 265.221 325.132 265.228C325.197 265.234 325.259 265.237 325.318 265.237C325.475 265.237 325.638 265.221 325.808 265.189C325.978 265.149 326.118 265.074 326.229 264.963C326.68 264.506 326.967 263.895 327.091 263.131C327.222 262.367 327.31 261.512 327.356 260.565C327.382 260.049 327.408 259.474 327.434 258.841C327.46 258.201 327.48 257.587 327.493 256.999H336.662V268ZM349.858 262.504C349.858 264.313 349.361 265.74 348.369 266.785C347.382 267.824 345.985 268.343 344.176 268.343C342.38 268.343 340.982 267.824 339.983 266.785C338.99 265.74 338.494 264.313 338.494 262.504C338.494 260.676 338.99 259.245 339.983 258.214C340.982 257.175 342.38 256.656 344.176 256.656C345.978 256.656 347.376 257.179 348.369 258.223C349.361 259.262 349.858 260.689 349.858 262.504ZM346.341 262.524C346.341 261.871 346.285 261.329 346.174 260.898C346.07 260.46 345.923 260.111 345.733 259.85C345.531 259.575 345.302 259.386 345.048 259.281C344.793 259.17 344.502 259.115 344.176 259.115C343.869 259.115 343.591 259.164 343.343 259.262C343.095 259.353 342.866 259.533 342.657 259.801C342.462 260.055 342.305 260.405 342.187 260.849C342.07 261.293 342.011 261.851 342.011 262.524C342.011 263.197 342.066 263.742 342.177 264.16C342.288 264.571 342.432 264.901 342.608 265.149C342.791 265.404 343.02 265.59 343.294 265.708C343.568 265.825 343.872 265.884 344.205 265.884C344.48 265.884 344.757 265.825 345.038 265.708C345.325 265.59 345.554 265.414 345.724 265.179C345.926 264.898 346.08 264.562 346.184 264.17C346.289 263.771 346.341 263.223 346.341 262.524ZM357.077 268.294C356.17 268.294 355.337 268.18 354.579 267.951C353.828 267.722 353.175 267.37 352.62 266.893C352.072 266.416 351.644 265.819 351.337 265.1C351.03 264.375 350.876 263.523 350.876 262.544C350.876 261.492 351.043 260.597 351.376 259.859C351.709 259.121 352.16 258.514 352.728 258.037C353.276 257.58 353.92 257.244 354.658 257.028C355.402 256.806 356.176 256.695 356.979 256.695C357.587 256.695 358.194 256.767 358.802 256.911C359.409 257.048 360.02 257.27 360.633 257.577V260.516H360.193C360.055 260.385 359.886 260.241 359.683 260.085C359.487 259.928 359.272 259.784 359.037 259.654C358.788 259.517 358.508 259.402 358.194 259.311C357.881 259.213 357.531 259.164 357.146 259.164C356.271 259.164 355.592 259.471 355.108 260.085C354.632 260.692 354.393 261.512 354.393 262.544C354.393 263.647 354.648 264.47 355.157 265.012C355.673 265.554 356.356 265.825 357.205 265.825C357.636 265.825 358.015 265.776 358.341 265.678C358.668 265.58 358.948 265.463 359.184 265.326C359.412 265.189 359.608 265.048 359.771 264.904C359.935 264.754 360.075 264.62 360.193 264.503H360.633V267.442C360.437 267.527 360.209 267.624 359.948 267.736C359.693 267.847 359.432 267.938 359.164 268.01C358.831 268.101 358.517 268.17 358.224 268.216C357.936 268.268 357.554 268.294 357.077 268.294Z" fill="#2F2F2F"/>
<rect y="241" width="14.4112" height="14.4112" fill="#C7003B"/>
<path d="M47.5677 299.795H56.7332V320H51.4587V304.119H47.5677V299.795Z" fill="#2F2F2F"/>
<path d="M88.1971 319.46H83.4658V307.632H78.6534V319.46H73.9222V304.28H88.1971V319.46ZM100.187 315.5V312.337C99.3854 312.418 98.7366 312.49 98.2409 312.553C97.7452 312.607 97.2586 312.72 96.781 312.891C96.3664 313.035 96.042 313.256 95.8077 313.553C95.5824 313.841 95.4697 314.229 95.4697 314.716C95.4697 315.428 95.659 315.919 96.0375 316.189C96.425 316.45 96.9927 316.581 97.7407 316.581C98.1553 316.581 98.5788 316.487 99.0114 316.297C99.444 316.108 99.836 315.842 100.187 315.5ZM100.187 317.852C99.863 318.122 99.5702 318.365 99.3088 318.582C99.0565 318.798 98.714 319.014 98.2814 319.231C97.8579 319.438 97.4433 319.596 97.0378 319.704C96.6413 319.812 96.0825 319.866 95.3616 319.866C94.0188 319.866 92.9013 319.415 92.0091 318.514C91.126 317.613 90.6844 316.477 90.6844 315.108C90.6844 313.981 90.9097 313.071 91.3603 312.377C91.8109 311.683 92.4597 311.133 93.3069 310.728C94.163 310.313 95.1858 310.025 96.3754 309.863C97.565 309.701 98.8447 309.574 100.215 309.484V309.403C100.215 308.565 99.9036 307.988 99.2818 307.673C98.669 307.348 97.7452 307.186 96.5106 307.186C95.9519 307.186 95.2985 307.29 94.5505 307.497C93.8025 307.695 93.0725 307.952 92.3606 308.268H91.9551V304.604C92.4237 304.469 93.1807 304.311 94.2261 304.131C95.2715 303.942 96.3259 303.847 97.3893 303.847C100.003 303.847 101.904 304.284 103.094 305.158C104.292 306.024 104.892 307.348 104.892 309.133V319.46H100.187V317.852ZM123.276 311.661C123.276 314.085 122.659 316.04 121.424 317.527C120.199 319.014 118.684 319.758 116.882 319.758C116.125 319.758 115.467 319.672 114.908 319.501C114.35 319.33 113.755 319.064 113.124 318.703V325.03H108.393V304.28H113.124V305.861C113.818 305.267 114.525 304.784 115.246 304.415C115.967 304.046 116.801 303.861 117.747 303.861C119.505 303.861 120.865 304.559 121.83 305.956C122.794 307.353 123.276 309.254 123.276 311.661ZM118.437 311.755C118.437 310.277 118.207 309.205 117.747 308.538C117.297 307.871 116.589 307.538 115.625 307.538C115.201 307.538 114.778 307.605 114.354 307.74C113.94 307.876 113.53 308.078 113.124 308.349V315.986C113.376 316.094 113.651 316.171 113.949 316.216C114.255 316.261 114.616 316.284 115.03 316.284C116.184 316.284 117.04 315.91 117.599 315.162C118.157 314.405 118.437 313.269 118.437 311.755ZM134.199 315.5V312.337C133.397 312.418 132.748 312.49 132.252 312.553C131.756 312.607 131.27 312.72 130.792 312.891C130.378 313.035 130.053 313.256 129.819 313.553C129.593 313.841 129.481 314.229 129.481 314.716C129.481 315.428 129.67 315.919 130.049 316.189C130.436 316.45 131.004 316.581 131.752 316.581C132.166 316.581 132.59 316.487 133.023 316.297C133.455 316.108 133.847 315.842 134.199 315.5ZM134.199 317.852C133.874 318.122 133.581 318.365 133.32 318.582C133.068 318.798 132.725 319.014 132.293 319.231C131.869 319.438 131.454 319.596 131.049 319.704C130.652 319.812 130.094 319.866 129.373 319.866C128.03 319.866 126.912 319.415 126.02 318.514C125.137 317.613 124.695 316.477 124.695 315.108C124.695 313.981 124.921 313.071 125.371 312.377C125.822 311.683 126.471 311.133 127.318 310.728C128.174 310.313 129.197 310.025 130.387 309.863C131.576 309.701 132.856 309.574 134.226 309.484V309.403C134.226 308.565 133.915 307.988 133.293 307.673C132.68 307.348 131.756 307.186 130.522 307.186C129.963 307.186 129.31 307.29 128.562 307.497C127.814 307.695 127.084 307.952 126.372 308.268H125.966V304.604C126.435 304.469 127.192 304.311 128.237 304.131C129.283 303.942 130.337 303.847 131.4 303.847C134.014 303.847 135.915 304.284 137.105 305.158C138.304 306.024 138.903 307.348 138.903 309.133V319.46H134.199V317.852ZM164.79 319.46H160.058V307.632H155.246V319.46H150.515V304.28H164.79V319.46ZM176.185 319.866C173.319 319.866 171.121 319.181 169.588 317.811C168.065 316.441 167.304 314.49 167.304 311.958C167.304 309.48 168.016 307.502 169.44 306.024C170.864 304.546 172.855 303.807 175.415 303.807C177.74 303.807 179.488 304.433 180.66 305.686C181.831 306.938 182.417 308.732 182.417 311.066V312.769H172.049C172.094 313.472 172.243 314.062 172.495 314.54C172.747 315.009 173.081 315.383 173.495 315.662C173.901 315.941 174.374 316.144 174.915 316.27C175.455 316.387 176.046 316.446 176.685 316.446C177.235 316.446 177.776 316.387 178.308 316.27C178.839 316.144 179.326 315.982 179.767 315.784C180.155 315.612 180.511 315.428 180.835 315.229C181.169 315.031 181.439 314.855 181.646 314.702H182.147V318.609C181.759 318.762 181.403 318.906 181.079 319.041C180.763 319.168 180.326 319.298 179.767 319.433C179.254 319.569 178.722 319.672 178.172 319.744C177.632 319.825 176.969 319.866 176.185 319.866ZM177.753 309.917C177.726 308.916 177.492 308.155 177.05 307.632C176.618 307.11 175.951 306.848 175.05 306.848C174.131 306.848 173.41 307.123 172.887 307.673C172.373 308.223 172.089 308.971 172.035 309.917H177.753ZM199.733 311.661C199.733 314.085 199.116 316.04 197.881 317.527C196.656 319.014 195.142 319.758 193.339 319.758C192.582 319.758 191.925 319.672 191.366 319.501C190.807 319.33 190.212 319.064 189.581 318.703V325.03H184.85V304.28H189.581V305.861C190.275 305.267 190.983 304.784 191.704 304.415C192.425 304.046 193.258 303.861 194.205 303.861C195.962 303.861 197.323 304.559 198.287 305.956C199.251 307.353 199.733 309.254 199.733 311.661ZM194.894 311.755C194.894 310.277 194.664 309.205 194.205 308.538C193.754 307.871 193.047 307.538 192.082 307.538C191.659 307.538 191.235 307.605 190.812 307.74C190.397 307.876 189.987 308.078 189.581 308.349V315.986C189.834 316.094 190.109 316.171 190.406 316.216C190.712 316.261 191.073 316.284 191.488 316.284C192.641 316.284 193.497 315.91 194.056 315.162C194.615 314.405 194.894 313.269 194.894 311.755ZM215.712 319.46H210.98V314.243C210.322 314.396 209.611 314.535 208.845 314.662C208.088 314.779 207.326 314.837 206.56 314.837C205.875 314.837 205.235 314.752 204.64 314.58C204.055 314.409 203.541 314.13 203.099 313.742C202.658 313.373 202.311 312.891 202.059 312.296C201.815 311.701 201.694 310.994 201.694 310.174V304.28H206.452V307.74C206.452 308.362 206.479 308.885 206.533 309.308C206.587 309.732 206.718 310.106 206.925 310.43C207.123 310.737 207.416 310.971 207.804 311.133C208.2 311.296 208.75 311.377 209.453 311.377C209.642 311.377 209.894 311.368 210.21 311.35C210.525 311.323 210.782 311.291 210.98 311.255V304.28H215.712V319.46ZM227.716 315.5V312.337C226.913 312.418 226.265 312.49 225.769 312.553C225.273 312.607 224.787 312.72 224.309 312.891C223.894 313.035 223.57 313.256 223.336 313.553C223.11 313.841 222.998 314.229 222.998 314.716C222.998 315.428 223.187 315.919 223.566 316.189C223.953 316.45 224.521 316.581 225.269 316.581C225.683 316.581 226.107 316.487 226.539 316.297C226.972 316.108 227.364 315.842 227.716 315.5ZM227.716 317.852C227.391 318.122 227.098 318.365 226.837 318.582C226.585 318.798 226.242 319.014 225.81 319.231C225.386 319.438 224.971 319.596 224.566 319.704C224.169 319.812 223.611 319.866 222.89 319.866C221.547 319.866 220.429 319.415 219.537 318.514C218.654 317.613 218.212 316.477 218.212 315.108C218.212 313.981 218.438 313.071 218.888 312.377C219.339 311.683 219.988 311.133 220.835 310.728C221.691 310.313 222.714 310.025 223.904 309.863C225.093 309.701 226.373 309.574 227.743 309.484V309.403C227.743 308.565 227.432 307.988 226.81 307.673C226.197 307.348 225.273 307.186 224.039 307.186C223.48 307.186 222.827 307.29 222.079 307.497C221.331 307.695 220.601 307.952 219.889 308.268H219.483V304.604C219.952 304.469 220.709 304.311 221.754 304.131C222.8 303.942 223.854 303.847 224.917 303.847C227.531 303.847 229.432 304.284 230.622 305.158C231.82 306.024 232.42 307.348 232.42 309.133V319.46H227.716V317.852ZM248.384 307.578H243.68V319.46H238.949V307.578H234.245V304.28H248.384V307.578ZM264.903 311.877C264.903 314.373 264.218 316.342 262.849 317.784C261.488 319.217 259.559 319.934 257.063 319.934C254.585 319.934 252.656 319.217 251.277 317.784C249.907 316.342 249.223 314.373 249.223 311.877C249.223 309.354 249.907 307.38 251.277 305.956C252.656 304.523 254.585 303.807 257.063 303.807C259.55 303.807 261.479 304.528 262.849 305.97C264.218 307.402 264.903 309.372 264.903 311.877ZM260.05 311.904C260.05 311.003 259.974 310.255 259.821 309.66C259.676 309.056 259.474 308.574 259.212 308.214C258.933 307.835 258.618 307.574 258.266 307.429C257.915 307.276 257.514 307.2 257.063 307.2C256.639 307.2 256.256 307.267 255.914 307.402C255.571 307.529 255.256 307.776 254.968 308.146C254.697 308.497 254.481 308.98 254.319 309.592C254.157 310.205 254.076 310.976 254.076 311.904C254.076 312.832 254.152 313.585 254.305 314.161C254.459 314.729 254.657 315.184 254.9 315.527C255.152 315.878 255.468 316.135 255.846 316.297C256.225 316.459 256.644 316.541 257.104 316.541C257.482 316.541 257.865 316.459 258.253 316.297C258.649 316.135 258.964 315.892 259.199 315.567C259.478 315.18 259.69 314.716 259.834 314.175C259.978 313.625 260.05 312.868 260.05 311.904ZM282.409 319.46H276.961L273.366 313.445H272.149V319.46H267.418V304.28H272.149V310.376C272.816 310.367 273.312 310.273 273.636 310.093C273.969 309.903 274.33 309.412 274.717 308.619C274.844 308.349 274.979 308.051 275.123 307.727C275.267 307.402 275.398 307.114 275.515 306.862C275.993 305.861 276.578 305.177 277.272 304.807C277.975 304.438 278.827 304.253 279.827 304.253C280.179 304.253 280.512 304.257 280.827 304.266C281.143 304.275 281.368 304.28 281.503 304.28V308.335H280.584C280.296 308.335 280.034 308.394 279.8 308.511C279.575 308.619 279.377 308.759 279.205 308.93C279.034 309.11 278.903 309.29 278.813 309.471C278.732 309.651 278.651 309.827 278.57 309.998C278.363 310.485 278.21 310.832 278.11 311.039C278.011 311.246 277.836 311.449 277.583 311.647L282.409 319.46Z" fill="#2F2F2F"/>
<rect y="302" width="14.4112" height="14.4112" fill="#C7003B"/>
<path d="M64.4933 49H58.8217L55.0782 42.7373H53.8116V49H48.8858V33.1955H53.8116V39.5426C54.5058 39.5333 55.0219 39.4347 55.3596 39.2471C55.7068 39.0501 56.0821 38.5387 56.4855 37.7131C56.6169 37.4316 56.7576 37.122 56.9077 36.7842C57.0578 36.4465 57.1939 36.1462 57.3158 35.8835C57.8131 34.8421 58.423 34.1291 59.1454 33.7444C59.8772 33.3597 60.7638 33.1674 61.8053 33.1674C62.1712 33.1674 62.5183 33.1721 62.8467 33.1814C63.1751 33.1908 63.4096 33.1955 63.5504 33.1955V37.4175H62.5934C62.2932 37.4175 62.0211 37.4785 61.7771 37.6005C61.5426 37.7131 61.3362 37.8585 61.1579 38.0368C60.9796 38.2244 60.8436 38.4121 60.7498 38.5997C60.6653 38.7874 60.5809 38.9703 60.4964 39.1486C60.2806 39.6552 60.1211 40.0164 60.0179 40.2322C59.9147 40.448 59.7318 40.6591 59.4691 40.8655L64.4933 49ZM81.7755 40.8796C81.7755 43.4035 81.1328 45.4394 79.8474 46.9875C78.5714 48.5356 76.9952 49.3096 75.1188 49.3096C74.3306 49.3096 73.6457 49.2205 73.064 49.0422C72.4823 48.864 71.8631 48.5872 71.2063 48.2119V54.7983H66.2806V33.1955H71.2063V34.8421C71.9288 34.2229 72.6653 33.7209 73.4159 33.3362C74.1665 32.9516 75.0343 32.7592 76.0195 32.7592C77.849 32.7592 79.2657 33.4864 80.2696 34.9406C81.2735 36.3949 81.7755 38.3745 81.7755 40.8796ZM76.7372 40.9781C76.7372 39.4394 76.498 38.3229 76.0195 37.6287C75.5503 36.9344 74.8138 36.5872 73.8099 36.5872C73.369 36.5872 72.928 36.6576 72.487 36.7983C72.0554 36.9391 71.6285 37.1502 71.2063 37.4316V45.3831C71.469 45.4957 71.7552 45.5755 72.0648 45.6224C72.3838 45.6693 72.7591 45.6927 73.1907 45.6927C74.3916 45.6927 75.2829 45.3034 75.8647 44.5246C76.4464 43.7365 76.7372 42.5544 76.7372 40.9781ZM92.5276 49.4222C89.544 49.4222 87.2548 48.7091 85.6598 47.283C84.0742 45.8569 83.2814 43.8257 83.2814 41.1892C83.2814 38.6091 84.0226 36.5497 85.505 35.011C86.9874 33.4723 89.0609 32.7029 91.7254 32.7029C94.1461 32.7029 95.9662 33.355 97.1859 34.6592C98.4056 35.9633 99.0155 37.8304 99.0155 40.2604V42.0336H88.2211C88.2681 42.7655 88.4229 43.38 88.6856 43.8773C88.9483 44.3651 89.2954 44.7545 89.727 45.0454C90.1492 45.3362 90.6418 45.5473 91.2047 45.6787C91.7676 45.8006 92.3822 45.8616 93.0483 45.8616C93.6207 45.8616 94.1836 45.8006 94.7371 45.6787C95.2907 45.5473 95.7973 45.3784 96.2571 45.172C96.6605 44.9938 97.0311 44.8014 97.3689 44.595C97.716 44.3886 97.9975 44.2056 98.2133 44.0461H98.734V48.1134C98.3306 48.2729 97.96 48.423 97.6222 48.5637C97.2938 48.6951 96.8388 48.8311 96.2571 48.9719C95.7223 49.1126 95.1687 49.2205 94.5964 49.2955C94.0335 49.38 93.3439 49.4222 92.5276 49.4222ZM94.1601 39.0641C94.132 38.0227 93.888 37.2299 93.4283 36.6857C92.978 36.1416 92.2837 35.8695 91.3454 35.8695C90.3885 35.8695 89.6379 36.1556 89.0937 36.7279C88.5589 37.3003 88.2634 38.079 88.2071 39.0641H94.1601ZM119.591 49H114.75V39.0782L111.541 45.6646H109.458L106.249 39.0782V49H101.549V33.1955H106.911L110.57 40.5137L114.229 33.1955H119.591V49ZM132.355 41.71H123.025V37.7975H132.355V41.71ZM151.411 49H145.739L141.996 42.7373H140.729V49H135.803V33.1955H140.729V39.5426C141.423 39.5333 141.94 39.4347 142.277 39.2471C142.624 39.0501 143 38.5387 143.403 37.7131C143.534 37.4316 143.675 37.122 143.825 36.7842C143.975 36.4465 144.112 36.1462 144.233 35.8835C144.731 34.8421 145.341 34.1291 146.063 33.7444C146.795 33.3597 147.681 33.1674 148.723 33.1674C149.089 33.1674 149.436 33.1721 149.764 33.1814C150.093 33.1908 150.327 33.1955 150.468 33.1955V37.4175H149.511C149.211 37.4175 148.939 37.4785 148.695 37.6005C148.46 37.7131 148.254 37.8585 148.076 38.0368C147.897 38.2244 147.761 38.4121 147.667 38.5997C147.583 38.7874 147.499 38.9703 147.414 39.1486C147.198 39.6552 147.039 40.0164 146.936 40.2322C146.832 40.448 146.649 40.6591 146.387 40.8655L151.411 49ZM168.693 40.8796C168.693 43.4035 168.05 45.4394 166.765 46.9875C165.489 48.5356 163.913 49.3096 162.036 49.3096C161.248 49.3096 160.563 49.2205 159.982 49.0422C159.4 48.864 158.781 48.5872 158.124 48.2119V54.7983H153.198V33.1955H158.124V34.8421C158.846 34.2229 159.583 33.7209 160.334 33.3362C161.084 32.9516 161.952 32.7592 162.937 32.7592C164.767 32.7592 166.183 33.4864 167.187 34.9406C168.191 36.3949 168.693 38.3745 168.693 40.8796ZM163.655 40.9781C163.655 39.4394 163.416 38.3229 162.937 37.6287C162.468 36.9344 161.731 36.5872 160.728 36.5872C160.287 36.5872 159.846 36.6576 159.405 36.7983C158.973 36.9391 158.546 37.1502 158.124 37.4316V45.3831C158.387 45.4957 158.673 45.5755 158.982 45.6224C159.301 45.6693 159.677 45.6927 160.108 45.6927C161.309 45.6927 162.201 45.3034 162.782 44.5246C163.364 43.7365 163.655 42.5544 163.655 40.9781ZM180.064 44.8765V41.5833C179.229 41.6677 178.554 41.7428 178.038 41.8085C177.522 41.8648 177.015 41.982 176.518 42.1603C176.086 42.3104 175.749 42.5403 175.505 42.8499C175.27 43.1501 175.153 43.5536 175.153 44.0602C175.153 44.8014 175.35 45.3128 175.744 45.5942C176.147 45.8663 176.738 46.0024 177.517 46.0024C177.949 46.0024 178.39 45.9038 178.84 45.7068C179.29 45.5098 179.699 45.233 180.064 44.8765ZM180.064 47.3253C179.727 47.6067 179.422 47.8601 179.15 48.0852C178.887 48.3104 178.53 48.5356 178.08 48.7608C177.639 48.9765 177.208 49.1407 176.785 49.2533C176.373 49.3659 175.791 49.4222 175.04 49.4222C173.642 49.4222 172.479 48.9531 171.55 48.0149C170.631 47.0766 170.171 45.8945 170.171 44.4683C170.171 43.2956 170.405 42.3479 170.875 41.6255C171.344 40.9031 172.019 40.3308 172.901 39.9086C173.792 39.477 174.857 39.1767 176.096 39.0078C177.334 38.839 178.667 38.7076 180.093 38.6138V38.5294C180.093 37.6568 179.769 37.0563 179.122 36.7279C178.484 36.3902 177.522 36.2213 176.237 36.2213C175.655 36.2213 174.975 36.3292 174.196 36.545C173.417 36.7514 172.657 37.0188 171.916 37.3472H171.494V33.5333C171.982 33.3925 172.77 33.2284 173.858 33.0407C174.946 32.8437 176.044 32.7452 177.151 32.7452C179.872 32.7452 181.852 33.2002 183.09 34.1103C184.338 35.011 184.962 36.3902 184.962 38.2479V49H180.064V47.3253ZM196.362 49.4222C195.057 49.4222 193.861 49.258 192.773 48.9296C191.694 48.6013 190.756 48.0946 189.958 47.4097C189.17 46.7248 188.555 45.8663 188.114 44.8343C187.674 43.7928 187.453 42.5684 187.453 41.1611C187.453 39.6505 187.692 38.3652 188.171 37.305C188.649 36.2448 189.297 35.3722 190.113 34.6873C190.901 34.0305 191.825 33.5473 192.885 33.2377C193.955 32.9187 195.067 32.7592 196.221 32.7592C197.093 32.7592 197.966 32.8624 198.838 33.0689C199.711 33.2659 200.588 33.5849 201.47 34.0258V38.2479H200.837C200.64 38.0602 200.396 37.8538 200.105 37.6287C199.824 37.4035 199.514 37.1971 199.176 37.0094C198.82 36.8124 198.416 36.6482 197.966 36.5168C197.516 36.3761 197.014 36.3057 196.46 36.3057C195.203 36.3057 194.227 36.7467 193.533 37.6287C192.848 38.5012 192.505 39.6787 192.505 41.1611C192.505 42.7467 192.871 43.9289 193.603 44.7076C194.344 45.4863 195.325 45.8757 196.544 45.8757C197.164 45.8757 197.708 45.8053 198.177 45.6646C198.646 45.5239 199.05 45.355 199.387 45.1579C199.716 44.9609 199.997 44.7592 200.232 44.5528C200.466 44.337 200.668 44.1447 200.837 43.9758H201.47V48.1978C201.189 48.3198 200.86 48.4605 200.485 48.62C200.119 48.7795 199.744 48.9109 199.359 49.0141C198.881 49.1454 198.43 49.2439 198.008 49.3096C197.595 49.3847 197.046 49.4222 196.362 49.4222ZM219.414 49H213.742L209.999 42.7373H208.732V49H203.806V33.1955H208.732V39.5426C209.426 39.5333 209.942 39.4347 210.28 39.2471C210.627 39.0501 211.003 38.5387 211.406 37.7131C211.537 37.4316 211.678 37.122 211.828 36.7842C211.978 36.4465 212.114 36.1462 212.236 35.8835C212.734 34.8421 213.344 34.1291 214.066 33.7444C214.798 33.3597 215.684 33.1674 216.726 33.1674C217.092 33.1674 217.439 33.1721 217.767 33.1814C218.096 33.1908 218.33 33.1955 218.471 33.1955V37.4175H217.514C217.214 37.4175 216.942 37.4785 216.698 37.6005C216.463 37.7131 216.257 37.8585 216.078 38.0368C215.9 38.2244 215.764 38.4121 215.67 38.5997C215.586 38.7874 215.501 38.9703 215.417 39.1486C215.201 39.6552 215.042 40.0164 214.939 40.2322C214.835 40.448 214.652 40.6591 214.39 40.8655L219.414 49ZM229.913 44.8765V41.5833C229.078 41.6677 228.402 41.7428 227.886 41.8085C227.37 41.8648 226.863 41.982 226.366 42.1603C225.935 42.3104 225.597 42.5403 225.353 42.8499C225.118 43.1501 225.001 43.5536 225.001 44.0602C225.001 44.8014 225.198 45.3128 225.592 45.5942C225.996 45.8663 226.587 46.0024 227.365 46.0024C227.797 46.0024 228.238 45.9038 228.688 45.7068C229.139 45.5098 229.547 45.233 229.913 44.8765ZM229.913 47.3253C229.575 47.6067 229.27 47.8601 228.998 48.0852C228.735 48.3104 228.379 48.5356 227.928 48.7608C227.487 48.9765 227.056 49.1407 226.634 49.2533C226.221 49.3659 225.639 49.4222 224.888 49.4222C223.49 49.4222 222.327 48.9531 221.398 48.0149C220.479 47.0766 220.019 45.8945 220.019 44.4683C220.019 43.2956 220.254 42.3479 220.723 41.6255C221.192 40.9031 221.867 40.3308 222.749 39.9086C223.641 39.477 224.705 39.1767 225.944 39.0078C227.182 38.839 228.515 38.7076 229.941 38.6138V38.5294C229.941 37.6568 229.617 37.0563 228.97 36.7279C228.332 36.3902 227.37 36.2213 226.085 36.2213C225.503 36.2213 224.823 36.3292 224.044 36.545C223.265 36.7514 222.505 37.0188 221.764 37.3472H221.342V33.5333C221.83 33.3925 222.618 33.2284 223.706 33.0407C224.795 32.8437 225.892 32.7452 226.999 32.7452C229.72 32.7452 231.7 33.2002 232.938 34.1103C234.186 35.011 234.81 36.3902 234.81 38.2479V49H229.913V47.3253Z" fill="#2F2F2F"/>
<rect y="33.6211" width="14.4112" height="14.4112" fill="#C7003B"/>
<path d="M264.793 26.7955H273.958V47H268.684V31.1188H264.793V26.7955ZM284.746 42.7631H293.364V47H277.973L277.944 43.5125L285.294 35.961C286.418 34.8081 287.254 33.5111 287.254 32.6464C287.254 31.5512 286.418 30.9171 284.948 30.9171C283.305 30.9171 281.23 31.897 279.385 33.4823L277.368 29.5913C279.962 27.7178 282.787 26.5649 285.755 26.5649C289.819 26.5649 292.788 28.6978 292.788 31.8682C292.788 34.0587 291.145 36.3357 288.868 38.6127L284.746 42.7631ZM302.572 23.6538H306.896L297.557 50.1705H293.234L302.572 23.6538ZM314.749 26.6225C320.484 26.6225 323.684 30.283 323.684 36.8833C323.684 43.5125 320.484 47.1729 314.749 47.1729C308.955 47.1729 305.756 43.5125 305.756 36.8833C305.756 30.283 308.955 26.6225 314.749 26.6225ZM314.749 30.5424C312.241 30.5424 311.175 32.3582 311.175 36.8833C311.175 41.4373 312.241 43.2531 314.749 43.2531C317.199 43.2531 318.294 41.4373 318.294 36.8833C318.294 32.3582 317.199 30.5424 314.749 30.5424Z" fill="#444444"/>
<path d="M462.223 34.1164C466.979 34.1164 470.034 36.6239 470.034 40.2267C470.034 44.4636 466.806 47.2306 461.791 47.2306C459.082 47.2306 455.998 46.2218 453.807 44.723L455.767 40.9185C457.41 42.2443 459.312 43.1666 461.214 43.1666C463.232 43.1666 464.385 42.2155 464.385 40.6302C464.385 39.0738 463.318 38.2092 461.099 38.2092C460.177 38.2092 456.833 38.238 455.565 38.3244V26.7955H469.141V31.0324H460.407V34.1164H462.223ZM481.188 26.6225C486.924 26.6225 490.123 30.283 490.123 36.8833C490.123 43.5125 486.924 47.1729 481.188 47.1729C475.395 47.1729 472.196 43.5125 472.196 36.8833C472.196 30.283 475.395 26.6225 481.188 26.6225ZM481.188 30.5424C478.681 30.5424 477.614 32.3582 477.614 36.8833C477.614 41.4373 478.681 43.2531 481.188 43.2531C483.638 43.2531 484.733 41.4373 484.733 36.8833C484.733 32.3582 483.638 30.5424 481.188 30.5424ZM513.358 31.263V47H509.351V39.2756C509.351 38.507 509.361 37.7576 509.38 37.0274C509.419 36.2973 509.467 35.6247 509.524 35.0099H509.438L505.086 47H501.858L497.448 34.981H497.332C497.409 35.6151 497.457 36.2973 497.477 37.0274C497.515 37.7384 497.534 38.5262 497.534 39.3909V47H493.528V31.263H499.609L503.529 41.9273L507.507 31.263H513.358ZM531.941 47H527.646V34.4911H523.698C523.506 36.7969 523.265 38.7664 522.977 40.3997C522.708 42.0137 522.362 43.3299 521.94 44.3483C521.536 45.3667 521.017 46.1161 520.383 46.5965C519.749 47.0576 518.971 47.2882 518.049 47.2882C517.549 47.2882 517.097 47.2498 516.694 47.1729C516.29 47.0961 515.925 46.9808 515.599 46.8271V43.3972C515.81 43.4741 516.031 43.5413 516.262 43.599C516.492 43.6566 516.732 43.6854 516.982 43.6854C517.251 43.6854 517.501 43.5797 517.732 43.3684C517.981 43.157 518.212 42.7823 518.423 42.2443C518.654 41.7063 518.865 40.9665 519.057 40.025C519.25 39.0834 519.422 37.9017 519.576 36.4798C519.749 35.0387 519.903 33.2997 520.037 31.263H531.941V47Z" fill="#444444"/>
<path d="M342.504 34.6725V41.8503H343.716V45.8898H342.395V43H336.6V45.8898H335.295V41.8503H335.963C336.44 41.1874 336.833 40.4676 337.144 39.6907C337.465 38.9036 337.703 38.0853 337.859 37.236C338.024 36.3763 338.112 35.5218 338.123 34.6725H342.504ZM339.335 35.7445C339.293 36.4488 339.184 37.179 339.008 37.9351C338.832 38.6809 338.604 39.3956 338.325 40.0792C338.055 40.7628 337.74 41.3531 337.377 41.8503H341.183V35.7445H339.335ZM351.687 43H350.304V35.8066H347.849C347.746 37.1221 347.616 38.2459 347.461 39.178C347.306 40.0999 347.109 40.8508 346.871 41.4308C346.632 42.0108 346.348 42.4355 346.016 42.7048C345.685 42.9741 345.296 43.1088 344.851 43.1088C344.716 43.1088 344.582 43.0984 344.447 43.0777C344.323 43.0673 344.219 43.0414 344.136 43V41.9746C344.198 41.9953 344.266 42.0108 344.338 42.0212C344.411 42.0316 344.483 42.0367 344.556 42.0367C344.784 42.0367 344.991 41.9435 345.177 41.7571C345.364 41.5707 345.529 41.2858 345.674 40.9026C345.83 40.5194 345.97 40.0377 346.094 39.4577C346.218 38.8673 346.327 38.1734 346.42 37.3758C346.513 36.5783 346.596 35.6772 346.669 34.6725H351.687V43ZM354.843 43H353.258L355.635 39.5043C355.314 39.4214 355.003 39.292 354.703 39.1159C354.403 38.9295 354.159 38.6757 353.973 38.3546C353.786 38.0232 353.693 37.614 353.693 37.1272C353.693 36.3297 353.962 35.7238 354.501 35.3095C355.04 34.8848 355.754 34.6725 356.645 34.6725H360.374V43H359.007V39.6907H356.987L354.843 43ZM355.014 37.1428C355.014 37.6192 355.19 37.9766 355.542 38.2148C355.904 38.4427 356.407 38.5566 357.049 38.5566H359.007V35.8066H356.785C356.153 35.8066 355.697 35.9309 355.418 36.1795C355.148 36.4281 355.014 36.7492 355.014 37.1428ZM374.906 38.8207C374.906 39.5147 374.813 40.1309 374.627 40.6695C374.451 41.1978 374.192 41.6483 373.85 42.0212C373.519 42.3941 373.109 42.6789 372.623 42.8757C372.146 43.0621 371.613 43.1554 371.022 43.1554C370.473 43.1554 369.966 43.0621 369.5 42.8757C369.034 42.6789 368.63 42.3941 368.288 42.0212C367.946 41.6483 367.677 41.1978 367.48 40.6695C367.294 40.1309 367.2 39.5147 367.2 38.8207C367.2 37.8989 367.356 37.1221 367.666 36.4902C367.977 35.8481 368.423 35.3613 369.003 35.0298C369.583 34.688 370.271 34.5171 371.069 34.5171C371.825 34.5171 372.488 34.688 373.058 35.0298C373.638 35.3613 374.088 35.8481 374.409 36.4902C374.741 37.1221 374.906 37.8989 374.906 38.8207ZM368.614 38.8207C368.614 39.4732 368.697 40.0429 368.863 40.5297C369.039 41.0062 369.308 41.3739 369.671 41.6328C370.033 41.8917 370.494 42.0212 371.053 42.0212C371.613 42.0212 372.074 41.8917 372.436 41.6328C372.799 41.3739 373.063 41.0062 373.229 40.5297C373.405 40.0429 373.493 39.4732 373.493 38.8207C373.493 38.1578 373.405 37.5933 373.229 37.1272C373.052 36.6612 372.783 36.3038 372.421 36.0552C372.068 35.7963 371.608 35.6668 371.038 35.6668C370.189 35.6668 369.572 35.9465 369.189 36.5058C368.806 37.0651 368.614 37.8367 368.614 38.8207ZM382.67 35.8222H379.951V43H378.599V35.8222H375.912V34.6725H382.67V35.8222ZM390.059 35.8222H387.34V43H385.988V35.8222H383.301V34.6725H390.059V35.8222ZM394.764 34.5171C395.478 34.5171 396.089 34.6725 396.597 34.9832C397.115 35.2939 397.508 35.7341 397.778 36.3038C398.057 36.8631 398.197 37.5208 398.197 38.2769V39.1004H392.495C392.516 40.0429 392.754 40.7628 393.21 41.2599C393.676 41.7467 394.323 41.9901 395.152 41.9901C395.68 41.9901 396.146 41.9435 396.55 41.8503C396.965 41.7467 397.389 41.6017 397.824 41.4153V42.6116C397.4 42.798 396.98 42.9327 396.566 43.0155C396.152 43.1088 395.66 43.1554 395.09 43.1554C394.303 43.1554 393.604 42.9948 392.993 42.6737C392.392 42.3527 391.92 41.8762 391.579 41.2444C391.247 40.6022 391.082 39.8202 391.082 38.8984C391.082 37.9869 391.232 37.2049 391.532 36.5524C391.843 35.8999 392.273 35.3975 392.822 35.0454C393.381 34.6932 394.028 34.5171 394.764 34.5171ZM394.748 35.6357C394.096 35.6357 393.578 35.8481 393.194 36.2727C392.822 36.687 392.599 37.2671 392.526 38.0128H396.768C396.768 37.5364 396.695 37.1221 396.55 36.7699C396.405 36.4177 396.183 36.1433 395.882 35.9465C395.592 35.7393 395.214 35.6357 394.748 35.6357ZM401.684 34.6725V38.1371H406.205V34.6725H407.573V43H406.205V39.2868H401.684V43H400.317V34.6725H401.684ZM415.135 34.6725H416.626L413.068 38.6809L416.921 43H415.337L411.577 38.7741V43H410.21V34.6725H411.577V38.712L415.135 34.6725ZM425.369 38.8207C425.369 39.5147 425.276 40.1309 425.09 40.6695C424.914 41.1978 424.655 41.6483 424.313 42.0212C423.981 42.3941 423.572 42.6789 423.086 42.8757C422.609 43.0621 422.076 43.1554 421.485 43.1554C420.936 43.1554 420.429 43.0621 419.963 42.8757C419.497 42.6789 419.093 42.3941 418.751 42.0212C418.409 41.6483 418.14 41.1978 417.943 40.6695C417.757 40.1309 417.663 39.5147 417.663 38.8207C417.663 37.8989 417.819 37.1221 418.129 36.4902C418.44 35.8481 418.886 35.3613 419.466 35.0298C420.046 34.688 420.734 34.5171 421.532 34.5171C422.288 34.5171 422.951 34.688 423.521 35.0298C424.101 35.3613 424.551 35.8481 424.872 36.4902C425.204 37.1221 425.369 37.8989 425.369 38.8207ZM419.077 38.8207C419.077 39.4732 419.16 40.0429 419.326 40.5297C419.502 41.0062 419.771 41.3739 420.134 41.6328C420.496 41.8917 420.957 42.0212 421.516 42.0212C422.076 42.0212 422.537 41.8917 422.899 41.6328C423.262 41.3739 423.526 41.0062 423.691 40.5297C423.868 40.0429 423.956 39.4732 423.956 38.8207C423.956 38.1578 423.868 37.5933 423.691 37.1272C423.515 36.6612 423.246 36.3038 422.884 36.0552C422.531 35.7963 422.07 35.6668 421.501 35.6668C420.652 35.6668 420.035 35.9465 419.652 36.5058C419.269 37.0651 419.077 37.8367 419.077 38.8207ZM434.232 36.7699C434.232 37.2878 434.077 37.6917 433.766 37.9817C433.456 38.2718 433.057 38.4686 432.57 38.5721V38.6343C433.088 38.7068 433.538 38.8932 433.922 39.1936C434.305 39.4836 434.497 39.9393 434.497 40.5608C434.497 40.9129 434.429 41.2392 434.295 41.5396C434.17 41.8399 433.973 42.0989 433.704 42.3164C433.435 42.5339 433.088 42.7048 432.663 42.8291C432.239 42.943 431.726 43 431.125 43H427.536V34.6725H431.11C431.7 34.6725 432.228 34.7398 432.694 34.8745C433.171 34.9988 433.544 35.2163 433.813 35.527C434.093 35.8274 434.232 36.2417 434.232 36.7699ZM433.083 40.5608C433.083 40.0843 432.901 39.7425 432.539 39.5354C432.176 39.3282 431.643 39.2247 430.939 39.2247H428.903V41.8969H430.97C431.653 41.8969 432.176 41.7985 432.539 41.6017C432.901 41.3946 433.083 41.0476 433.083 40.5608ZM432.85 36.9408C432.85 36.5472 432.705 36.2624 432.415 36.0863C432.135 35.8999 431.674 35.8066 431.032 35.8066H428.903V38.0905H430.783C431.457 38.0905 431.969 37.9973 432.321 37.8108C432.674 37.6244 432.85 37.3344 432.85 36.9408ZM440.804 37.7642H444.517V38.8052H440.804V37.7642Z" fill="#444444"/>
<path d="M342.504 83.6725V90.8503H343.716V94.8898H342.395V92H336.6V94.8898H335.295V90.8503H335.963C336.44 90.1874 336.833 89.4676 337.144 88.6907C337.465 87.9036 337.703 87.0853 337.859 86.236C338.024 85.3763 338.112 84.5218 338.123 83.6725H342.504ZM339.335 84.7445C339.293 85.4488 339.184 86.179 339.008 86.9351C338.832 87.6809 338.604 88.3956 338.325 89.0792C338.055 89.7628 337.74 90.3531 337.377 90.8503H341.183V84.7445H339.335ZM351.687 92H350.304V84.8066H347.849C347.746 86.1221 347.616 87.2459 347.461 88.178C347.306 89.0999 347.109 89.8508 346.871 90.4308C346.632 91.0108 346.348 91.4355 346.016 91.7048C345.685 91.9741 345.296 92.1088 344.851 92.1088C344.716 92.1088 344.582 92.0984 344.447 92.0777C344.323 92.0673 344.219 92.0414 344.136 92V90.9746C344.198 90.9953 344.266 91.0108 344.338 91.0212C344.411 91.0316 344.483 91.0367 344.556 91.0367C344.784 91.0367 344.991 90.9435 345.177 90.7571C345.364 90.5707 345.529 90.2858 345.674 89.9026C345.83 89.5194 345.97 89.0377 346.094 88.4577C346.218 87.8673 346.327 87.1734 346.42 86.3758C346.513 85.5783 346.596 84.6772 346.669 83.6725H351.687V92ZM354.843 92H353.258L355.635 88.5043C355.314 88.4214 355.003 88.292 354.703 88.1159C354.403 87.9295 354.159 87.6757 353.973 87.3546C353.786 87.0232 353.693 86.614 353.693 86.1272C353.693 85.3297 353.962 84.7238 354.501 84.3095C355.04 83.8848 355.754 83.6725 356.645 83.6725H360.374V92H359.007V88.6907H356.987L354.843 92ZM355.014 86.1428C355.014 86.6192 355.19 86.9766 355.542 87.2148C355.904 87.4427 356.407 87.5566 357.049 87.5566H359.007V84.8066H356.785C356.153 84.8066 355.697 84.9309 355.418 85.1795C355.148 85.4281 355.014 85.7492 355.014 86.1428ZM374.906 87.8207C374.906 88.5147 374.813 89.1309 374.627 89.6695C374.451 90.1978 374.192 90.6483 373.85 91.0212C373.519 91.3941 373.109 91.6789 372.623 91.8757C372.146 92.0621 371.613 92.1554 371.022 92.1554C370.473 92.1554 369.966 92.0621 369.5 91.8757C369.034 91.6789 368.63 91.3941 368.288 91.0212C367.946 90.6483 367.677 90.1978 367.48 89.6695C367.294 89.1309 367.2 88.5147 367.2 87.8207C367.2 86.8989 367.356 86.1221 367.666 85.4902C367.977 84.8481 368.423 84.3613 369.003 84.0298C369.583 83.688 370.271 83.5171 371.069 83.5171C371.825 83.5171 372.488 83.688 373.058 84.0298C373.638 84.3613 374.088 84.8481 374.409 85.4902C374.741 86.1221 374.906 86.8989 374.906 87.8207ZM368.614 87.8207C368.614 88.4732 368.697 89.0429 368.863 89.5297C369.039 90.0062 369.308 90.3739 369.671 90.6328C370.033 90.8917 370.494 91.0212 371.053 91.0212C371.613 91.0212 372.074 90.8917 372.436 90.6328C372.799 90.3739 373.063 90.0062 373.229 89.5297C373.405 89.0429 373.493 88.4732 373.493 87.8207C373.493 87.1578 373.405 86.5933 373.229 86.1272C373.052 85.6612 372.783 85.3038 372.421 85.0552C372.068 84.7963 371.608 84.6668 371.038 84.6668C370.189 84.6668 369.572 84.9465 369.189 85.5058C368.806 86.0651 368.614 86.8367 368.614 87.8207ZM382.67 84.8222H379.951V92H378.599V84.8222H375.912V83.6725H382.67V84.8222ZM390.059 84.8222H387.34V92H385.988V84.8222H383.301V83.6725H390.059V84.8222ZM394.764 83.5171C395.478 83.5171 396.089 83.6725 396.597 83.9832C397.115 84.2939 397.508 84.7341 397.778 85.3038C398.057 85.8631 398.197 86.5208 398.197 87.2769V88.1004H392.495C392.516 89.0429 392.754 89.7628 393.21 90.2599C393.676 90.7467 394.323 90.9901 395.152 90.9901C395.68 90.9901 396.146 90.9435 396.55 90.8503C396.965 90.7467 397.389 90.6017 397.824 90.4153V91.6116C397.4 91.798 396.98 91.9327 396.566 92.0155C396.152 92.1088 395.66 92.1554 395.09 92.1554C394.303 92.1554 393.604 91.9948 392.993 91.6737C392.392 91.3527 391.92 90.8762 391.579 90.2444C391.247 89.6022 391.082 88.8202 391.082 87.8984C391.082 86.9869 391.232 86.2049 391.532 85.5524C391.843 84.8999 392.273 84.3975 392.822 84.0454C393.381 83.6932 394.028 83.5171 394.764 83.5171ZM394.748 84.6357C394.096 84.6357 393.578 84.8481 393.194 85.2727C392.822 85.687 392.599 86.2671 392.526 87.0128H396.768C396.768 86.5364 396.695 86.1221 396.55 85.7699C396.405 85.4177 396.183 85.1433 395.882 84.9465C395.592 84.7393 395.214 84.6357 394.748 84.6357ZM401.684 83.6725V87.1371H406.205V83.6725H407.573V92H406.205V88.2868H401.684V92H400.317V83.6725H401.684ZM415.135 83.6725H416.626L413.068 87.6809L416.921 92H415.337L411.577 87.7741V92H410.21V83.6725H411.577V87.712L415.135 83.6725ZM425.369 87.8207C425.369 88.5147 425.276 89.1309 425.09 89.6695C424.914 90.1978 424.655 90.6483 424.313 91.0212C423.981 91.3941 423.572 91.6789 423.086 91.8757C422.609 92.0621 422.076 92.1554 421.485 92.1554C420.936 92.1554 420.429 92.0621 419.963 91.8757C419.497 91.6789 419.093 91.3941 418.751 91.0212C418.409 90.6483 418.14 90.1978 417.943 89.6695C417.757 89.1309 417.663 88.5147 417.663 87.8207C417.663 86.8989 417.819 86.1221 418.129 85.4902C418.44 84.8481 418.886 84.3613 419.466 84.0298C420.046 83.688 420.734 83.5171 421.532 83.5171C422.288 83.5171 422.951 83.688 423.521 84.0298C424.101 84.3613 424.551 84.8481 424.872 85.4902C425.204 86.1221 425.369 86.8989 425.369 87.8207ZM419.077 87.8207C419.077 88.4732 419.16 89.0429 419.326 89.5297C419.502 90.0062 419.771 90.3739 420.134 90.6328C420.496 90.8917 420.957 91.0212 421.516 91.0212C422.076 91.0212 422.537 90.8917 422.899 90.6328C423.262 90.3739 423.526 90.0062 423.691 89.5297C423.868 89.0429 423.956 88.4732 423.956 87.8207C423.956 87.1578 423.868 86.5933 423.691 86.1272C423.515 85.6612 423.246 85.3038 422.884 85.0552C422.531 84.7963 422.07 84.6668 421.501 84.6668C420.652 84.6668 420.035 84.9465 419.652 85.5058C419.269 86.0651 419.077 86.8367 419.077 87.8207ZM434.232 85.7699C434.232 86.2878 434.077 86.6917 433.766 86.9817C433.456 87.2718 433.057 87.4686 432.57 87.5721V87.6343C433.088 87.7068 433.538 87.8932 433.922 88.1936C434.305 88.4836 434.497 88.9393 434.497 89.5608C434.497 89.9129 434.429 90.2392 434.295 90.5396C434.17 90.8399 433.973 91.0989 433.704 91.3164C433.435 91.5339 433.088 91.7048 432.663 91.8291C432.239 91.943 431.726 92 431.125 92H427.536V83.6725H431.11C431.7 83.6725 432.228 83.7398 432.694 83.8745C433.171 83.9988 433.544 84.2163 433.813 84.527C434.093 84.8274 434.232 85.2417 434.232 85.7699ZM433.083 89.5608C433.083 89.0843 432.901 88.7425 432.539 88.5354C432.176 88.3282 431.643 88.2247 430.939 88.2247H428.903V90.8969H430.97C431.653 90.8969 432.176 90.7985 432.539 90.6017C432.901 90.3946 433.083 90.0476 433.083 89.5608ZM432.85 85.9408C432.85 85.5472 432.705 85.2624 432.415 85.0863C432.135 84.8999 431.674 84.8066 431.032 84.8066H428.903V87.0905H430.783C431.457 87.0905 431.969 86.9973 432.321 86.8108C432.674 86.6244 432.85 86.3344 432.85 85.9408ZM440.804 86.7642H444.517V87.8052H440.804V86.7642Z" fill="#444444"/>
<path d="M340.504 139.672V146.85H341.716V150.89H340.395V148H334.6V150.89H333.295V146.85H333.963C334.44 146.187 334.833 145.468 335.144 144.691C335.465 143.904 335.703 143.085 335.859 142.236C336.024 141.376 336.112 140.522 336.123 139.672H340.504ZM337.335 140.745C337.293 141.449 337.184 142.179 337.008 142.935C336.832 143.681 336.604 144.396 336.325 145.079C336.055 145.763 335.74 146.353 335.377 146.85H339.183V140.745H337.335ZM349.687 148H348.304V140.807H345.849C345.746 142.122 345.616 143.246 345.461 144.178C345.306 145.1 345.109 145.851 344.871 146.431C344.632 147.011 344.348 147.436 344.016 147.705C343.685 147.974 343.296 148.109 342.851 148.109C342.716 148.109 342.582 148.098 342.447 148.078C342.323 148.067 342.219 148.041 342.136 148V146.975C342.198 146.995 342.266 147.011 342.338 147.021C342.411 147.032 342.483 147.037 342.556 147.037C342.784 147.037 342.991 146.944 343.177 146.757C343.364 146.571 343.529 146.286 343.674 145.903C343.83 145.519 343.97 145.038 344.094 144.458C344.218 143.867 344.327 143.173 344.42 142.376C344.513 141.578 344.596 140.677 344.669 139.672H349.687V148ZM352.843 148H351.258L353.635 144.504C353.314 144.421 353.003 144.292 352.703 144.116C352.403 143.929 352.159 143.676 351.973 143.355C351.786 143.023 351.693 142.614 351.693 142.127C351.693 141.33 351.962 140.724 352.501 140.309C353.04 139.885 353.754 139.672 354.645 139.672H358.374V148H357.007V144.691H354.987L352.843 148ZM353.014 142.143C353.014 142.619 353.19 142.977 353.542 143.215C353.904 143.443 354.407 143.557 355.049 143.557H357.007V140.807H354.785C354.153 140.807 353.697 140.931 353.418 141.18C353.148 141.428 353.014 141.749 353.014 142.143ZM372.906 143.821C372.906 144.515 372.813 145.131 372.627 145.67C372.451 146.198 372.192 146.648 371.85 147.021C371.519 147.394 371.109 147.679 370.623 147.876C370.146 148.062 369.613 148.155 369.022 148.155C368.473 148.155 367.966 148.062 367.5 147.876C367.034 147.679 366.63 147.394 366.288 147.021C365.946 146.648 365.677 146.198 365.48 145.67C365.294 145.131 365.2 144.515 365.2 143.821C365.2 142.899 365.356 142.122 365.666 141.49C365.977 140.848 366.423 140.361 367.003 140.03C367.583 139.688 368.271 139.517 369.069 139.517C369.825 139.517 370.488 139.688 371.058 140.03C371.638 140.361 372.088 140.848 372.409 141.49C372.741 142.122 372.906 142.899 372.906 143.821ZM366.614 143.821C366.614 144.473 366.697 145.043 366.863 145.53C367.039 146.006 367.308 146.374 367.671 146.633C368.033 146.892 368.494 147.021 369.053 147.021C369.613 147.021 370.074 146.892 370.436 146.633C370.799 146.374 371.063 146.006 371.229 145.53C371.405 145.043 371.493 144.473 371.493 143.821C371.493 143.158 371.405 142.593 371.229 142.127C371.052 141.661 370.783 141.304 370.421 141.055C370.068 140.796 369.608 140.667 369.038 140.667C368.189 140.667 367.572 140.946 367.189 141.506C366.806 142.065 366.614 142.837 366.614 143.821ZM380.67 140.822H377.951V148H376.599V140.822H373.912V139.672H380.67V140.822ZM388.059 140.822H385.34V148H383.988V140.822H381.301V139.672H388.059V140.822ZM392.764 139.517C393.478 139.517 394.089 139.672 394.597 139.983C395.115 140.294 395.508 140.734 395.778 141.304C396.057 141.863 396.197 142.521 396.197 143.277V144.1H390.495C390.516 145.043 390.754 145.763 391.21 146.26C391.676 146.747 392.323 146.99 393.152 146.99C393.68 146.99 394.146 146.944 394.55 146.85C394.965 146.747 395.389 146.602 395.824 146.415V147.612C395.4 147.798 394.98 147.933 394.566 148.016C394.152 148.109 393.66 148.155 393.09 148.155C392.303 148.155 391.604 147.995 390.993 147.674C390.392 147.353 389.92 146.876 389.579 146.244C389.247 145.602 389.082 144.82 389.082 143.898C389.082 142.987 389.232 142.205 389.532 141.552C389.843 140.9 390.273 140.398 390.822 140.045C391.381 139.693 392.028 139.517 392.764 139.517ZM392.748 140.636C392.096 140.636 391.578 140.848 391.194 141.273C390.822 141.687 390.599 142.267 390.526 143.013H394.768C394.768 142.536 394.695 142.122 394.55 141.77C394.405 141.418 394.183 141.143 393.882 140.946C393.592 140.739 393.214 140.636 392.748 140.636ZM399.684 139.672V143.137H404.205V139.672H405.573V148H404.205V144.287H399.684V148H398.317V139.672H399.684ZM413.135 139.672H414.626L411.068 143.681L414.921 148H413.337L409.577 143.774V148H408.21V139.672H409.577V143.712L413.135 139.672ZM423.369 143.821C423.369 144.515 423.276 145.131 423.09 145.67C422.914 146.198 422.655 146.648 422.313 147.021C421.981 147.394 421.572 147.679 421.086 147.876C420.609 148.062 420.076 148.155 419.485 148.155C418.936 148.155 418.429 148.062 417.963 147.876C417.497 147.679 417.093 147.394 416.751 147.021C416.409 146.648 416.14 146.198 415.943 145.67C415.757 145.131 415.663 144.515 415.663 143.821C415.663 142.899 415.819 142.122 416.129 141.49C416.44 140.848 416.886 140.361 417.466 140.03C418.046 139.688 418.734 139.517 419.532 139.517C420.288 139.517 420.951 139.688 421.521 140.03C422.101 140.361 422.551 140.848 422.872 141.49C423.204 142.122 423.369 142.899 423.369 143.821ZM417.077 143.821C417.077 144.473 417.16 145.043 417.326 145.53C417.502 146.006 417.771 146.374 418.134 146.633C418.496 146.892 418.957 147.021 419.516 147.021C420.076 147.021 420.537 146.892 420.899 146.633C421.262 146.374 421.526 146.006 421.691 145.53C421.868 145.043 421.956 144.473 421.956 143.821C421.956 143.158 421.868 142.593 421.691 142.127C421.515 141.661 421.246 141.304 420.884 141.055C420.531 140.796 420.07 140.667 419.501 140.667C418.652 140.667 418.035 140.946 417.652 141.506C417.269 142.065 417.077 142.837 417.077 143.821ZM432.232 141.77C432.232 142.288 432.077 142.692 431.766 142.982C431.456 143.272 431.057 143.469 430.57 143.572V143.634C431.088 143.707 431.538 143.893 431.922 144.194C432.305 144.484 432.497 144.939 432.497 145.561C432.497 145.913 432.429 146.239 432.295 146.54C432.17 146.84 431.973 147.099 431.704 147.316C431.435 147.534 431.088 147.705 430.663 147.829C430.239 147.943 429.726 148 429.125 148H425.536V139.672H429.11C429.7 139.672 430.228 139.74 430.694 139.874C431.171 139.999 431.544 140.216 431.813 140.527C432.093 140.827 432.232 141.242 432.232 141.77ZM431.083 145.561C431.083 145.084 430.901 144.743 430.539 144.535C430.176 144.328 429.643 144.225 428.939 144.225H426.903V146.897H428.97C429.653 146.897 430.176 146.799 430.539 146.602C430.901 146.395 431.083 146.048 431.083 145.561ZM430.85 141.941C430.85 141.547 430.705 141.262 430.415 141.086C430.135 140.9 429.674 140.807 429.032 140.807H426.903V143.09H428.783C429.457 143.09 429.969 142.997 430.321 142.811C430.674 142.624 430.85 142.334 430.85 141.941ZM438.804 142.764H442.517V143.805H438.804V142.764Z" fill="#444444"/>
<path d="M342.504 188.672V195.85H343.716V199.89H342.395V197H336.6V199.89H335.295V195.85H335.963C336.44 195.187 336.833 194.468 337.144 193.691C337.465 192.904 337.703 192.085 337.859 191.236C338.024 190.376 338.112 189.522 338.123 188.672H342.504ZM339.335 189.745C339.293 190.449 339.184 191.179 339.008 191.935C338.832 192.681 338.604 193.396 338.325 194.079C338.055 194.763 337.74 195.353 337.377 195.85H341.183V189.745H339.335ZM351.687 197H350.304V189.807H347.849C347.746 191.122 347.616 192.246 347.461 193.178C347.306 194.1 347.109 194.851 346.871 195.431C346.632 196.011 346.348 196.436 346.016 196.705C345.685 196.974 345.296 197.109 344.851 197.109C344.716 197.109 344.582 197.098 344.447 197.078C344.323 197.067 344.219 197.041 344.136 197V195.975C344.198 195.995 344.266 196.011 344.338 196.021C344.411 196.032 344.483 196.037 344.556 196.037C344.784 196.037 344.991 195.944 345.177 195.757C345.364 195.571 345.529 195.286 345.674 194.903C345.83 194.519 345.97 194.038 346.094 193.458C346.218 192.867 346.327 192.173 346.42 191.376C346.513 190.578 346.596 189.677 346.669 188.672H351.687V197ZM354.843 197H353.258L355.635 193.504C355.314 193.421 355.003 193.292 354.703 193.116C354.403 192.929 354.159 192.676 353.973 192.355C353.786 192.023 353.693 191.614 353.693 191.127C353.693 190.33 353.962 189.724 354.501 189.309C355.04 188.885 355.754 188.672 356.645 188.672H360.374V197H359.007V193.691H356.987L354.843 197ZM355.014 191.143C355.014 191.619 355.19 191.977 355.542 192.215C355.904 192.443 356.407 192.557 357.049 192.557H359.007V189.807H356.785C356.153 189.807 355.697 189.931 355.418 190.18C355.148 190.428 355.014 190.749 355.014 191.143ZM374.906 192.821C374.906 193.515 374.813 194.131 374.627 194.67C374.451 195.198 374.192 195.648 373.85 196.021C373.519 196.394 373.109 196.679 372.623 196.876C372.146 197.062 371.613 197.155 371.022 197.155C370.473 197.155 369.966 197.062 369.5 196.876C369.034 196.679 368.63 196.394 368.288 196.021C367.946 195.648 367.677 195.198 367.48 194.67C367.294 194.131 367.2 193.515 367.2 192.821C367.2 191.899 367.356 191.122 367.666 190.49C367.977 189.848 368.423 189.361 369.003 189.03C369.583 188.688 370.271 188.517 371.069 188.517C371.825 188.517 372.488 188.688 373.058 189.03C373.638 189.361 374.088 189.848 374.409 190.49C374.741 191.122 374.906 191.899 374.906 192.821ZM368.614 192.821C368.614 193.473 368.697 194.043 368.863 194.53C369.039 195.006 369.308 195.374 369.671 195.633C370.033 195.892 370.494 196.021 371.053 196.021C371.613 196.021 372.074 195.892 372.436 195.633C372.799 195.374 373.063 195.006 373.229 194.53C373.405 194.043 373.493 193.473 373.493 192.821C373.493 192.158 373.405 191.593 373.229 191.127C373.052 190.661 372.783 190.304 372.421 190.055C372.068 189.796 371.608 189.667 371.038 189.667C370.189 189.667 369.572 189.946 369.189 190.506C368.806 191.065 368.614 191.837 368.614 192.821ZM382.67 189.822H379.951V197H378.599V189.822H375.912V188.672H382.67V189.822ZM390.059 189.822H387.34V197H385.988V189.822H383.301V188.672H390.059V189.822ZM394.764 188.517C395.478 188.517 396.089 188.672 396.597 188.983C397.115 189.294 397.508 189.734 397.778 190.304C398.057 190.863 398.197 191.521 398.197 192.277V193.1H392.495C392.516 194.043 392.754 194.763 393.21 195.26C393.676 195.747 394.323 195.99 395.152 195.99C395.68 195.99 396.146 195.944 396.55 195.85C396.965 195.747 397.389 195.602 397.824 195.415V196.612C397.4 196.798 396.98 196.933 396.566 197.016C396.152 197.109 395.66 197.155 395.09 197.155C394.303 197.155 393.604 196.995 392.993 196.674C392.392 196.353 391.92 195.876 391.579 195.244C391.247 194.602 391.082 193.82 391.082 192.898C391.082 191.987 391.232 191.205 391.532 190.552C391.843 189.9 392.273 189.398 392.822 189.045C393.381 188.693 394.028 188.517 394.764 188.517ZM394.748 189.636C394.096 189.636 393.578 189.848 393.194 190.273C392.822 190.687 392.599 191.267 392.526 192.013H396.768C396.768 191.536 396.695 191.122 396.55 190.77C396.405 190.418 396.183 190.143 395.882 189.946C395.592 189.739 395.214 189.636 394.748 189.636ZM401.684 188.672V192.137H406.205V188.672H407.573V197H406.205V193.287H401.684V197H400.317V188.672H401.684ZM415.135 188.672H416.626L413.068 192.681L416.921 197H415.337L411.577 192.774V197H410.21V188.672H411.577V192.712L415.135 188.672ZM425.369 192.821C425.369 193.515 425.276 194.131 425.09 194.67C424.914 195.198 424.655 195.648 424.313 196.021C423.981 196.394 423.572 196.679 423.086 196.876C422.609 197.062 422.076 197.155 421.485 197.155C420.936 197.155 420.429 197.062 419.963 196.876C419.497 196.679 419.093 196.394 418.751 196.021C418.409 195.648 418.14 195.198 417.943 194.67C417.757 194.131 417.663 193.515 417.663 192.821C417.663 191.899 417.819 191.122 418.129 190.49C418.44 189.848 418.886 189.361 419.466 189.03C420.046 188.688 420.734 188.517 421.532 188.517C422.288 188.517 422.951 188.688 423.521 189.03C424.101 189.361 424.551 189.848 424.872 190.49C425.204 191.122 425.369 191.899 425.369 192.821ZM419.077 192.821C419.077 193.473 419.16 194.043 419.326 194.53C419.502 195.006 419.771 195.374 420.134 195.633C420.496 195.892 420.957 196.021 421.516 196.021C422.076 196.021 422.537 195.892 422.899 195.633C423.262 195.374 423.526 195.006 423.691 194.53C423.868 194.043 423.956 193.473 423.956 192.821C423.956 192.158 423.868 191.593 423.691 191.127C423.515 190.661 423.246 190.304 422.884 190.055C422.531 189.796 422.07 189.667 421.501 189.667C420.652 189.667 420.035 189.946 419.652 190.506C419.269 191.065 419.077 191.837 419.077 192.821ZM434.232 190.77C434.232 191.288 434.077 191.692 433.766 191.982C433.456 192.272 433.057 192.469 432.57 192.572V192.634C433.088 192.707 433.538 192.893 433.922 193.194C434.305 193.484 434.497 193.939 434.497 194.561C434.497 194.913 434.429 195.239 434.295 195.54C434.17 195.84 433.973 196.099 433.704 196.316C433.435 196.534 433.088 196.705 432.663 196.829C432.239 196.943 431.726 197 431.125 197H427.536V188.672H431.11C431.7 188.672 432.228 188.74 432.694 188.874C433.171 188.999 433.544 189.216 433.813 189.527C434.093 189.827 434.232 190.242 434.232 190.77ZM433.083 194.561C433.083 194.084 432.901 193.743 432.539 193.535C432.176 193.328 431.643 193.225 430.939 193.225H428.903V195.897H430.97C431.653 195.897 432.176 195.799 432.539 195.602C432.901 195.395 433.083 195.048 433.083 194.561ZM432.85 190.941C432.85 190.547 432.705 190.262 432.415 190.086C432.135 189.9 431.674 189.807 431.032 189.807H428.903V192.09H430.783C431.457 192.09 431.969 191.997 432.321 191.811C432.674 191.624 432.85 191.334 432.85 190.941ZM440.804 191.764H444.517V192.805H440.804V191.764Z" fill="#444444"/>
<path d="M265.209 131.795H274.374V152H269.1V136.119H265.209V131.795ZM285.162 147.763H293.78V152H278.389L278.36 148.512L285.71 140.961C286.834 139.808 287.67 138.511 287.67 137.646C287.67 136.551 286.834 135.917 285.364 135.917C283.721 135.917 281.646 136.897 279.801 138.482L277.784 134.591C280.378 132.718 283.203 131.565 286.171 131.565C290.235 131.565 293.204 133.698 293.204 136.868C293.204 139.059 291.561 141.336 289.284 143.613L285.162 147.763ZM302.988 128.654H307.312L297.973 155.17H293.65L302.988 128.654ZM315.165 131.623C320.9 131.623 324.1 135.283 324.1 141.883C324.1 148.512 320.9 152.173 315.165 152.173C309.371 152.173 306.172 148.512 306.172 141.883C306.172 135.283 309.371 131.623 315.165 131.623ZM315.165 135.542C312.657 135.542 311.591 137.358 311.591 141.883C311.591 146.437 312.657 148.253 315.165 148.253C317.615 148.253 318.71 146.437 318.71 141.883C318.71 137.358 317.615 135.542 315.165 135.542Z" fill="#444444"/>
<path d="M462.639 139.116C467.395 139.116 470.45 141.624 470.45 145.227C470.45 149.464 467.222 152.231 462.207 152.231C459.498 152.231 456.414 151.222 454.223 149.723L456.183 145.918C457.826 147.244 459.728 148.167 461.63 148.167C463.648 148.167 464.801 147.215 464.801 145.63C464.801 144.074 463.734 143.209 461.515 143.209C460.593 143.209 457.249 143.238 455.981 143.324V131.795H469.557V136.032H460.823V139.116H462.639ZM481.604 131.623C487.34 131.623 490.539 135.283 490.539 141.883C490.539 148.512 487.34 152.173 481.604 152.173C475.811 152.173 472.612 148.512 472.612 141.883C472.612 135.283 475.811 131.623 481.604 131.623ZM481.604 135.542C479.097 135.542 478.03 137.358 478.03 141.883C478.03 146.437 479.097 148.253 481.604 148.253C484.054 148.253 485.15 146.437 485.15 141.883C485.15 137.358 484.054 135.542 481.604 135.542ZM513.774 136.263V152H509.767V144.276C509.767 143.507 509.777 142.758 509.796 142.027C509.835 141.297 509.883 140.625 509.94 140.01H509.854L505.502 152H502.274L497.864 139.981H497.749C497.825 140.615 497.873 141.297 497.893 142.027C497.931 142.738 497.95 143.526 497.95 144.391V152H493.944V136.263H500.025L503.945 146.927L507.923 136.263H513.774ZM532.357 152H528.063V139.491H524.114C523.922 141.797 523.681 143.766 523.393 145.4C523.124 147.014 522.778 148.33 522.356 149.348C521.952 150.367 521.433 151.116 520.799 151.596C520.165 152.058 519.387 152.288 518.465 152.288C517.965 152.288 517.513 152.25 517.11 152.173C516.706 152.096 516.341 151.981 516.015 151.827V148.397C516.226 148.474 516.447 148.541 516.678 148.599C516.908 148.657 517.148 148.685 517.398 148.685C517.667 148.685 517.917 148.58 518.148 148.368C518.397 148.157 518.628 147.782 518.839 147.244C519.07 146.706 519.281 145.967 519.473 145.025C519.666 144.083 519.839 142.902 519.992 141.48C520.165 140.039 520.319 138.3 520.453 136.263H532.357V152Z" fill="#444444"/>
<path d="M264.793 76.7955H273.958V97H268.684V81.1188H264.793V76.7955ZM284.746 92.7631H293.364V97H277.973L277.944 93.5125L285.294 85.961C286.418 84.8081 287.254 83.5111 287.254 82.6464C287.254 81.5512 286.418 80.9171 284.948 80.9171C283.305 80.9171 281.23 81.897 279.385 83.4823L277.368 79.5913C279.962 77.7178 282.787 76.5649 285.755 76.5649C289.819 76.5649 292.788 78.6978 292.788 81.8682C292.788 84.0587 291.145 86.3357 288.868 88.6127L284.746 92.7631ZM302.572 73.6538H306.896L297.557 100.17H293.234L302.572 73.6538ZM304.142 76.7955H313.308V97H308.033V81.1188H304.142V76.7955Z" fill="#444444"/>
<path d="M469.544 87.6415V91.6478H466.95V96H462.108V91.6478H452.971V88.0738L458.707 75.7955H463.722L458.332 87.6415H462.108V83.347H466.95V87.6415H469.544ZM480.682 75.6225C486.417 75.6225 489.617 79.283 489.617 85.8833C489.617 92.5125 486.417 96.1729 480.682 96.1729C474.888 96.1729 471.689 92.5125 471.689 85.8833C471.689 79.283 474.888 75.6225 480.682 75.6225ZM480.682 79.5424C478.174 79.5424 477.108 81.3582 477.108 85.8833C477.108 90.4373 478.174 92.2531 480.682 92.2531C483.132 92.2531 484.227 90.4373 484.227 85.8833C484.227 81.3582 483.132 79.5424 480.682 79.5424ZM512.851 80.263V96H508.845V88.2756C508.845 87.507 508.854 86.7576 508.874 86.0274C508.912 85.2973 508.96 84.6247 509.018 84.0099H508.931L504.579 96H501.351L496.941 83.981H496.826C496.903 84.6151 496.951 85.2973 496.97 86.0274C497.008 86.7384 497.028 87.5262 497.028 88.3909V96H493.021V80.263H499.103L503.023 90.9273L507 80.263H512.851ZM531.434 96H527.14V83.4911H523.191C522.999 85.7969 522.759 87.7664 522.471 89.3997C522.202 91.0137 521.856 92.3299 521.433 93.3483C521.029 94.3667 520.511 95.1161 519.877 95.5965C519.243 96.0576 518.464 96.2882 517.542 96.2882C517.042 96.2882 516.591 96.2498 516.187 96.1729C515.784 96.0961 515.419 95.9808 515.092 95.8271V92.3972C515.303 92.4741 515.524 92.5413 515.755 92.599C515.986 92.6566 516.226 92.6854 516.476 92.6854C516.745 92.6854 516.994 92.5797 517.225 92.3684C517.475 92.157 517.705 91.7823 517.917 91.2443C518.147 90.7063 518.359 89.9665 518.551 89.025C518.743 88.0834 518.916 86.9017 519.07 85.4798C519.243 84.0387 519.396 82.2997 519.531 80.263H531.434V96Z" fill="#444444"/>
<path d="M265.209 181.795H274.374V202H269.1V186.119H265.209V181.795ZM285.162 197.763H293.78V202H278.389L278.36 198.512L285.71 190.961C286.834 189.808 287.67 188.511 287.67 187.646C287.67 186.551 286.834 185.917 285.364 185.917C283.721 185.917 281.646 186.897 279.801 188.482L277.784 184.591C280.378 182.718 283.203 181.565 286.171 181.565C290.235 181.565 293.204 183.698 293.204 186.868C293.204 189.059 291.561 191.336 289.284 193.613L285.162 197.763ZM302.988 178.654H307.312L297.973 205.17H293.65L302.988 178.654ZM304.558 181.795H313.724V202H308.449V186.119H304.558V181.795Z" fill="#444444"/>
<path d="M462.12 180.565C466.473 180.565 469.24 182.698 469.24 186.041C469.24 187.742 468.317 189.327 466.847 190.192C468.951 191.143 470.277 193.074 470.277 195.322C470.277 198.925 467.107 201.231 462.149 201.231C457.221 201.231 454.021 198.954 454.021 195.408C454.021 193.131 455.491 191.143 457.711 190.192C456.097 189.24 455.059 187.598 455.059 185.897C455.059 182.64 457.826 180.565 462.12 180.565ZM462.149 184.11C460.42 184.11 459.44 184.888 459.44 186.329C459.44 187.713 460.42 188.491 462.149 188.491C463.907 188.491 464.859 187.713 464.859 186.329C464.859 184.888 463.907 184.11 462.149 184.11ZM462.149 192.353C460.103 192.353 458.979 193.247 458.979 194.861C458.979 196.475 460.103 197.368 462.149 197.368C464.196 197.368 465.349 196.475 465.349 194.861C465.349 193.247 464.196 192.353 462.149 192.353ZM481.773 180.623C487.509 180.623 490.708 184.283 490.708 190.883C490.708 197.512 487.509 201.173 481.773 201.173C475.98 201.173 472.781 197.512 472.781 190.883C472.781 184.283 475.98 180.623 481.773 180.623ZM481.773 184.542C479.266 184.542 478.199 186.358 478.199 190.883C478.199 195.437 479.266 197.253 481.773 197.253C484.223 197.253 485.318 195.437 485.318 190.883C485.318 186.358 484.223 184.542 481.773 184.542ZM513.943 185.263V201H509.936V193.276C509.936 192.507 509.946 191.758 509.965 191.027C510.004 190.297 510.052 189.625 510.109 189.01H510.023L505.671 201H502.443L498.033 188.981H497.917C497.994 189.615 498.042 190.297 498.062 191.027C498.1 191.738 498.119 192.526 498.119 193.391V201H494.113V185.263H500.194L504.114 195.927L508.092 185.263H513.943ZM532.526 201H528.231V188.491H524.283C524.091 190.797 523.85 192.766 523.562 194.4C523.293 196.014 522.947 197.33 522.525 198.348C522.121 199.367 521.602 200.116 520.968 200.596C520.334 201.058 519.556 201.288 518.634 201.288C518.134 201.288 517.682 201.25 517.279 201.173C516.875 201.096 516.51 200.981 516.184 200.827V197.397C516.395 197.474 516.616 197.541 516.847 197.599C517.077 197.657 517.317 197.685 517.567 197.685C517.836 197.685 518.086 197.58 518.316 197.368C518.566 197.157 518.797 196.782 519.008 196.244C519.239 195.706 519.45 194.967 519.642 194.025C519.834 193.083 520.007 191.902 520.161 190.48C520.334 189.039 520.488 187.3 520.622 185.263H532.526V201Z" fill="#444444"/>
<path d="M83.057 145.421C83.057 148.02 82.344 150.07 80.9179 151.571C79.5011 153.063 77.4933 153.809 74.8944 153.809C72.3143 153.809 70.3065 153.063 68.871 151.571C67.4449 150.07 66.7318 148.02 66.7318 145.421C66.7318 142.794 67.4449 140.739 68.871 139.257C70.3065 137.765 72.3143 137.019 74.8944 137.019C77.4839 137.019 79.4917 137.77 80.9179 139.271C82.344 140.763 83.057 142.813 83.057 145.421ZM78.0047 145.449C78.0047 144.511 77.9249 143.732 77.7654 143.113C77.6153 142.485 77.4042 141.983 77.1321 141.607C76.8412 141.213 76.5129 140.941 76.147 140.791C75.781 140.632 75.3635 140.552 74.8944 140.552C74.4535 140.552 74.0547 140.622 73.6982 140.763C73.3417 140.894 73.0133 141.152 72.713 141.537C72.4316 141.903 72.2064 142.405 72.0375 143.043C71.8686 143.681 71.7842 144.483 71.7842 145.449C71.7842 146.416 71.8639 147.199 72.0234 147.8C72.1829 148.391 72.3893 148.865 72.6427 149.221C72.9054 149.587 73.2338 149.854 73.6278 150.023C74.0219 150.192 74.4581 150.277 74.9366 150.277C75.3307 150.277 75.7294 150.192 76.1329 150.023C76.5457 149.854 76.8741 149.601 77.118 149.263C77.4089 148.86 77.6294 148.377 77.7795 147.814C77.9296 147.241 78.0047 146.453 78.0047 145.449ZM101.282 153.316H95.6105L91.867 147.054H90.6004V153.316H85.6747V137.512H90.6004V143.859C91.2947 143.85 91.8107 143.751 92.1485 143.564C92.4956 143.366 92.8709 142.855 93.2743 142.029C93.4057 141.748 93.5464 141.438 93.6966 141.101C93.8467 140.763 93.9827 140.463 94.1047 140.2C94.6019 139.159 95.2118 138.445 95.9342 138.061C96.6661 137.676 97.5527 137.484 98.5941 137.484C98.96 137.484 99.3072 137.488 99.6356 137.498C99.9639 137.507 100.198 137.512 100.339 137.512V141.734H99.3822C99.082 141.734 98.8099 141.795 98.566 141.917C98.3314 142.029 98.125 142.175 97.9467 142.353C97.7685 142.541 97.6324 142.728 97.5386 142.916C97.4542 143.104 97.3697 143.287 97.2853 143.465C97.0695 143.972 96.91 144.333 96.8068 144.549C96.7036 144.764 96.5206 144.976 96.2579 145.182L101.282 153.316ZM118.086 153.316H113.245V143.718L107.193 153.316H103.069V137.512H107.911V146.097L113.456 137.512H118.086V153.316ZM129.626 153.739C128.322 153.739 127.126 153.574 126.037 153.246C124.958 152.918 124.02 152.411 123.223 151.726C122.435 151.041 121.82 150.183 121.379 149.151C120.938 148.109 120.718 146.885 120.718 145.477C120.718 143.967 120.957 142.682 121.435 141.621C121.914 140.561 122.561 139.689 123.377 139.004C124.166 138.347 125.09 137.864 126.15 137.554C127.22 137.235 128.331 137.076 129.485 137.076C130.358 137.076 131.23 137.179 132.103 137.385C132.976 137.582 133.853 137.901 134.735 138.342V142.564H134.101C133.904 142.377 133.66 142.17 133.37 141.945C133.088 141.72 132.779 141.513 132.441 141.326C132.084 141.129 131.681 140.965 131.23 140.833C130.78 140.693 130.278 140.622 129.725 140.622C128.467 140.622 127.492 141.063 126.797 141.945C126.112 142.818 125.77 143.995 125.77 145.477C125.77 147.063 126.136 148.245 126.868 149.024C127.609 149.803 128.589 150.192 129.809 150.192C130.428 150.192 130.972 150.122 131.442 149.981C131.911 149.84 132.314 149.671 132.652 149.474C132.98 149.277 133.262 149.076 133.496 148.869C133.731 148.653 133.933 148.461 134.101 148.292H134.735V152.514C134.453 152.636 134.125 152.777 133.75 152.936C133.384 153.096 133.008 153.227 132.624 153.33C132.145 153.462 131.695 153.56 131.273 153.626C130.86 153.701 130.311 153.739 129.626 153.739ZM152.144 153.316H147.218V140.988H143.348C143.32 141.664 143.296 142.208 143.277 142.621C143.268 143.033 143.254 143.498 143.235 144.014C143.169 145.524 143.043 146.758 142.855 147.715C142.667 148.663 142.428 149.442 142.137 150.051C141.856 150.661 141.565 151.14 141.265 151.487C140.974 151.825 140.655 152.144 140.308 152.444C139.979 152.725 139.515 152.96 138.915 153.148C138.314 153.326 137.765 153.415 137.268 153.415C136.846 153.415 136.424 153.396 136.001 153.359C135.589 153.33 135.34 153.316 135.255 153.316V149.32H135.396C135.434 149.32 135.495 149.324 135.579 149.334C135.673 149.343 135.762 149.348 135.847 149.348C136.072 149.348 136.306 149.324 136.55 149.277C136.794 149.221 136.996 149.113 137.155 148.954C137.803 148.297 138.216 147.42 138.394 146.322C138.581 145.224 138.708 143.995 138.774 142.635C138.811 141.893 138.849 141.068 138.886 140.158C138.924 139.238 138.952 138.356 138.971 137.512H152.144V153.316ZM170.946 153.316H166.104V143.718L160.053 153.316H155.929V137.512H160.771V146.097L166.316 137.512H170.946V153.316ZM187.707 140.946H182.81V153.316H177.884V140.946H172.986V137.512H187.707V140.946ZM197.826 153.739C194.842 153.739 192.553 153.026 190.958 151.599C189.373 150.173 188.58 148.142 188.58 145.506C188.58 142.926 189.321 140.866 190.803 139.327C192.286 137.789 194.359 137.019 197.024 137.019C199.444 137.019 201.265 137.671 202.484 138.976C203.704 140.28 204.314 142.147 204.314 144.577V146.35H193.52C193.566 147.082 193.721 147.696 193.984 148.194C194.247 148.682 194.594 149.071 195.025 149.362C195.448 149.653 195.94 149.864 196.503 149.995C197.066 150.117 197.681 150.178 198.347 150.178C198.919 150.178 199.482 150.117 200.036 149.995C200.589 149.864 201.096 149.695 201.555 149.488C201.959 149.31 202.33 149.118 202.667 148.911C203.014 148.705 203.296 148.522 203.512 148.363H204.032V152.43C203.629 152.589 203.258 152.739 202.921 152.88C202.592 153.011 202.137 153.148 201.555 153.288C201.021 153.429 200.467 153.537 199.895 153.612C199.332 153.696 198.642 153.739 197.826 153.739ZM199.459 143.381C199.43 142.339 199.186 141.546 198.727 141.002C198.276 140.458 197.582 140.186 196.644 140.186C195.687 140.186 194.936 140.472 194.392 141.044C193.857 141.617 193.562 142.395 193.505 143.381H199.459ZM221.92 153.316H216.994V140.988H213.124C213.096 141.664 213.072 142.208 213.053 142.621C213.044 143.033 213.03 143.498 213.011 144.014C212.946 145.524 212.819 146.758 212.631 147.715C212.444 148.663 212.204 149.442 211.914 150.051C211.632 150.661 211.341 151.14 211.041 151.487C210.75 151.825 210.431 152.144 210.084 152.444C209.756 152.725 209.291 152.96 208.691 153.148C208.09 153.326 207.541 153.415 207.044 153.415C206.622 153.415 206.2 153.396 205.778 153.359C205.365 153.33 205.116 153.316 205.032 153.316V149.32H205.172C205.21 149.32 205.271 149.324 205.355 149.334C205.449 149.343 205.538 149.348 205.623 149.348C205.848 149.348 206.082 149.324 206.326 149.277C206.57 149.221 206.772 149.113 206.932 148.954C207.579 148.297 207.992 147.42 208.17 146.322C208.358 145.224 208.484 143.995 208.55 142.635C208.588 141.893 208.625 141.068 208.663 140.158C208.7 139.238 208.728 138.356 208.747 137.512H221.92V153.316ZM239.934 148.011C239.934 148.818 239.774 149.563 239.455 150.248C239.136 150.924 238.719 151.477 238.203 151.909C237.565 152.425 236.903 152.791 236.218 153.007C235.543 153.213 234.628 153.316 233.474 153.316H225.706V137.512H230.617V142.846H233.488C234.623 142.846 235.538 142.926 236.232 143.085C236.936 143.245 237.602 143.559 238.231 144.028C238.784 144.441 239.207 144.999 239.498 145.703C239.788 146.406 239.934 147.176 239.934 148.011ZM234.516 149.376C234.675 149.169 234.783 148.958 234.839 148.743C234.895 148.517 234.924 148.287 234.924 148.053C234.924 147.377 234.722 146.875 234.318 146.547C233.915 146.219 233.333 146.055 232.573 146.055H230.617V150.122H232.573C233.08 150.122 233.493 150.051 233.812 149.911C234.131 149.761 234.365 149.582 234.516 149.376Z" fill="#2F2F2F"/>
<rect y="136" width="14.4112" height="14.4112" fill="#C7003B"/>
</svg>
