<svg width="532" height="345" viewBox="0 0 532 345" fill="none" xmlns="http://www.w3.org/2000/svg">
<path d="M48.5677 237.795H57.7332V258H52.4587V242.119H48.5677V237.795Z" fill="#2F2F2F"/>
<path d="M46.5677 133.795H55.7332V154H50.4587V138.119H46.5677V133.795Z" fill="#2F2F2F"/>
<path d="M459.568 241.795H468.733V262H463.459V246.119H459.568V241.795ZM481.827 241.623C487.563 241.623 490.762 245.283 490.762 251.883C490.762 258.512 487.563 262.173 481.827 262.173C476.034 262.173 472.835 258.512 472.835 251.883C472.835 245.283 476.034 241.623 481.827 241.623ZM481.827 245.542C479.32 245.542 478.253 247.358 478.253 251.883C478.253 256.437 479.32 258.253 481.827 258.253C484.277 258.253 485.372 256.437 485.372 251.883C485.372 247.358 484.277 245.542 481.827 245.542ZM514.688 246.205C518.061 246.205 520.28 248.511 520.28 252.172V262H515.149V253.641C515.149 251.855 514.17 250.788 512.584 250.788C510.768 250.817 509.644 252.258 509.644 254.304V262H504.514V253.641C504.514 251.855 503.534 250.788 501.949 250.788C500.133 250.817 498.98 252.258 498.98 254.304V262H493.879V246.407H498.98V248.972C500.047 247.156 501.805 246.205 504.053 246.205C506.589 246.205 508.463 247.502 509.241 249.693C510.25 247.387 512.152 246.205 514.688 246.205ZM523.915 240.614H529.045V262H523.915V240.614Z" fill="#444444"/>
<path d="M82.1095 257H72.1655V253.776H74.8189V241.762H72.1655V238.538H82.1095V241.762H79.4561V253.776H82.1095V257ZM97.9802 257H93.6158V250.094C93.6158 249.532 93.591 248.974 93.5414 248.42C93.5001 247.858 93.4174 247.444 93.2934 247.18C93.1446 246.866 92.9297 246.643 92.6487 246.51C92.3676 246.37 91.9915 246.3 91.5204 246.3C91.1649 246.3 90.8054 246.366 90.4416 246.498C90.0779 246.63 89.6894 246.841 89.2761 247.13V257H84.9365V243.076H89.2761V244.613C89.987 244.01 90.6772 243.539 91.3468 243.2C92.0246 242.861 92.7727 242.692 93.591 242.692C95.0128 242.692 96.0997 243.142 96.8519 244.043C97.6041 244.936 97.9802 246.234 97.9802 247.936V257ZM106.536 257.273C104.767 257.273 103.477 256.909 102.667 256.182C101.865 255.454 101.464 254.264 101.464 252.611V246.101H99.8029V243.076H101.464V239.096H105.804V243.076H109.982V246.101H105.804V251.036C105.804 251.524 105.808 251.949 105.816 252.313C105.825 252.677 105.891 253.003 106.015 253.293C106.131 253.582 106.333 253.813 106.622 253.987C106.92 254.152 107.35 254.235 107.912 254.235C108.143 254.235 108.445 254.185 108.817 254.086C109.197 253.987 109.462 253.896 109.611 253.813H109.982V256.876C109.511 257 109.011 257.095 108.482 257.161C107.953 257.236 107.304 257.273 106.536 257.273ZM118.897 257.372C116.269 257.372 114.252 256.744 112.847 255.487C111.45 254.231 110.751 252.441 110.751 250.119C110.751 247.845 111.404 246.031 112.71 244.675C114.016 243.32 115.843 242.642 118.191 242.642C120.323 242.642 121.927 243.216 123.001 244.365C124.076 245.514 124.613 247.159 124.613 249.3V250.862H115.103C115.145 251.507 115.281 252.049 115.512 252.487C115.744 252.917 116.05 253.26 116.43 253.516C116.802 253.772 117.236 253.958 117.732 254.074C118.228 254.181 118.769 254.235 119.356 254.235C119.86 254.235 120.356 254.181 120.844 254.074C121.332 253.958 121.778 253.809 122.183 253.627C122.539 253.47 122.865 253.301 123.163 253.119C123.468 252.937 123.716 252.776 123.907 252.636H124.365V256.219C124.01 256.359 123.683 256.492 123.386 256.616C123.097 256.731 122.696 256.851 122.183 256.975C121.712 257.099 121.224 257.194 120.72 257.26C120.224 257.335 119.617 257.372 118.897 257.372ZM120.336 248.246C120.311 247.329 120.096 246.63 119.691 246.151C119.294 245.671 118.682 245.432 117.856 245.432C117.013 245.432 116.351 245.684 115.872 246.188C115.401 246.692 115.14 247.378 115.091 248.246H120.336ZM139.889 257H135.524V250.094C135.524 249.532 135.5 248.974 135.45 248.42C135.409 247.858 135.326 247.444 135.202 247.18C135.053 246.866 134.838 246.643 134.557 246.51C134.276 246.37 133.9 246.3 133.429 246.3C133.074 246.3 132.714 246.366 132.35 246.498C131.987 246.63 131.598 246.841 131.185 247.13V257H126.845V243.076H131.185V244.613C131.896 244.01 132.586 243.539 133.255 243.2C133.933 242.861 134.681 242.692 135.5 242.692C136.921 242.692 138.008 243.142 138.761 244.043C139.513 244.936 139.889 246.234 139.889 247.936V257ZM147.353 257.384C146.328 257.384 145.357 257.273 144.439 257.05C143.53 256.826 142.778 256.566 142.183 256.268V252.598H142.542C142.749 252.755 142.985 252.929 143.249 253.119C143.514 253.309 143.881 253.508 144.353 253.714C144.758 253.904 145.212 254.07 145.716 254.21C146.229 254.342 146.783 254.409 147.378 254.409C147.99 254.409 148.527 254.314 148.99 254.123C149.461 253.933 149.697 253.632 149.697 253.218C149.697 252.896 149.589 252.652 149.374 252.487C149.159 252.321 148.742 252.164 148.122 252.016C147.791 251.933 147.374 251.846 146.87 251.755C146.365 251.656 145.919 251.544 145.53 251.42C144.439 251.082 143.617 250.581 143.063 249.92C142.517 249.251 142.245 248.374 142.245 247.292C142.245 246.672 142.385 246.089 142.666 245.543C142.956 244.989 143.377 244.498 143.931 244.068C144.485 243.646 145.167 243.311 145.977 243.064C146.795 242.816 147.717 242.692 148.742 242.692C149.717 242.692 150.614 242.791 151.432 242.989C152.251 243.179 152.941 243.411 153.503 243.683V247.205H153.156C153.007 247.089 152.771 246.936 152.449 246.746C152.127 246.548 151.813 246.378 151.507 246.238C151.143 246.072 150.734 245.936 150.279 245.828C149.833 245.721 149.374 245.667 148.903 245.667C148.275 245.667 147.742 245.775 147.304 245.99C146.874 246.205 146.659 246.49 146.659 246.845C146.659 247.159 146.766 247.407 146.981 247.589C147.196 247.771 147.663 247.949 148.382 248.122C148.754 248.213 149.18 248.304 149.659 248.395C150.147 248.478 150.614 248.593 151.06 248.742C152.061 249.065 152.817 249.54 153.329 250.168C153.85 250.788 154.111 251.615 154.111 252.648C154.111 253.301 153.958 253.925 153.652 254.52C153.346 255.107 152.912 255.603 152.35 256.008C151.755 256.446 151.052 256.785 150.242 257.025C149.44 257.265 148.477 257.384 147.353 257.384ZM163.311 257.372C160.682 257.372 158.665 256.744 157.26 255.487C155.863 254.231 155.164 252.441 155.164 250.119C155.164 247.845 155.818 246.031 157.124 244.675C158.43 243.32 160.256 242.642 162.604 242.642C164.737 242.642 166.34 243.216 167.415 244.365C168.489 245.514 169.027 247.159 169.027 249.3V250.862H159.517C159.558 251.507 159.694 252.049 159.926 252.487C160.157 252.917 160.463 253.26 160.843 253.516C161.215 253.772 161.649 253.958 162.145 254.074C162.641 254.181 163.183 254.235 163.769 254.235C164.274 254.235 164.77 254.181 165.257 254.074C165.745 253.958 166.191 253.809 166.596 253.627C166.952 253.47 167.278 253.301 167.576 253.119C167.882 252.937 168.13 252.776 168.32 252.636H168.779V256.219C168.423 256.359 168.097 256.492 167.799 256.616C167.51 256.731 167.109 256.851 166.596 256.975C166.125 257.099 165.638 257.194 165.133 257.26C164.637 257.335 164.03 257.372 163.311 257.372ZM164.749 248.246C164.724 247.329 164.509 246.63 164.104 246.151C163.707 245.671 163.096 245.432 162.269 245.432C161.426 245.432 160.765 245.684 160.285 246.188C159.814 246.692 159.554 247.378 159.504 248.246H164.749ZM182.938 257.384C181.913 257.384 180.942 257.273 180.025 257.05C179.115 256.826 178.363 256.566 177.768 256.268V252.598H178.127C178.334 252.755 178.57 252.929 178.834 253.119C179.099 253.309 179.467 253.508 179.938 253.714C180.343 253.904 180.797 254.07 181.302 254.21C181.814 254.342 182.368 254.409 182.963 254.409C183.575 254.409 184.112 254.314 184.575 254.123C185.046 253.933 185.282 253.632 185.282 253.218C185.282 252.896 185.174 252.652 184.959 252.487C184.744 252.321 184.327 252.164 183.707 252.016C183.376 251.933 182.959 251.846 182.455 251.755C181.95 251.656 181.504 251.544 181.116 251.42C180.025 251.082 179.202 250.581 178.648 249.92C178.103 249.251 177.83 248.374 177.83 247.292C177.83 246.672 177.97 246.089 178.251 245.543C178.541 244.989 178.962 244.498 179.516 244.068C180.07 243.646 180.752 243.311 181.562 243.064C182.38 242.816 183.302 242.692 184.327 242.692C185.302 242.692 186.199 242.791 187.018 242.989C187.836 243.179 188.526 243.411 189.088 243.683V247.205H188.741C188.592 247.089 188.357 246.936 188.034 246.746C187.712 246.548 187.398 246.378 187.092 246.238C186.728 246.072 186.319 245.936 185.864 245.828C185.418 245.721 184.959 245.667 184.488 245.667C183.86 245.667 183.327 245.775 182.889 245.99C182.459 246.205 182.244 246.49 182.244 246.845C182.244 247.159 182.351 247.407 182.566 247.589C182.781 247.771 183.248 247.949 183.967 248.122C184.339 248.213 184.765 248.304 185.244 248.395C185.732 248.478 186.199 248.593 186.646 248.742C187.646 249.065 188.402 249.54 188.915 250.168C189.435 250.788 189.696 251.615 189.696 252.648C189.696 253.301 189.543 253.925 189.237 254.52C188.931 255.107 188.497 255.603 187.935 256.008C187.34 256.446 186.637 256.785 185.827 257.025C185.025 257.265 184.062 257.384 182.938 257.384ZM204.81 257H200.446V250.094C200.446 249.532 200.421 248.974 200.371 248.42C200.33 247.858 200.247 247.444 200.123 247.18C199.975 246.866 199.76 246.643 199.479 246.51C199.198 246.37 198.821 246.3 198.35 246.3C197.995 246.3 197.635 246.366 197.272 246.498C196.908 246.63 196.519 246.841 196.106 247.13V257H191.766V237.707H196.106V244.613C196.817 244.01 197.507 243.539 198.177 243.2C198.854 242.861 199.603 242.692 200.421 242.692C201.843 242.692 202.93 243.142 203.682 244.043C204.434 244.936 204.81 246.234 204.81 247.936V257ZM212.374 257H208.034V243.076H212.374V257ZM212.498 241.092H207.91V237.707H212.498V241.092ZM228.74 257H224.376V250.094C224.376 249.532 224.351 248.974 224.301 248.42C224.26 247.858 224.177 247.444 224.053 247.18C223.905 246.866 223.69 246.643 223.409 246.51C223.128 246.37 222.751 246.3 222.28 246.3C221.925 246.3 221.565 246.366 221.202 246.498C220.838 246.63 220.449 246.841 220.036 247.13V257H215.696V243.076H220.036V244.613C220.747 244.01 221.437 243.539 222.107 243.2C222.785 242.861 223.533 242.692 224.351 242.692C225.773 242.692 226.86 243.142 227.612 244.043C228.364 244.936 228.74 246.234 228.74 247.936V257ZM239.093 257.372C236.465 257.372 234.448 256.744 233.043 255.487C231.646 254.231 230.947 252.441 230.947 250.119C230.947 247.845 231.6 246.031 232.906 244.675C234.212 243.32 236.039 242.642 238.387 242.642C240.519 242.642 242.123 243.216 243.197 244.365C244.272 245.514 244.809 247.159 244.809 249.3V250.862H235.299C235.341 251.507 235.477 252.049 235.708 252.487C235.94 252.917 236.246 253.26 236.626 253.516C236.998 253.772 237.432 253.958 237.928 254.074C238.424 254.181 238.965 254.235 239.552 254.235C240.056 254.235 240.552 254.181 241.04 254.074C241.528 253.958 241.974 253.809 242.379 253.627C242.735 253.47 243.061 253.301 243.359 253.119C243.664 252.937 243.912 252.776 244.103 252.636H244.561V256.219C244.206 256.359 243.879 256.492 243.582 256.616C243.293 256.731 242.892 256.851 242.379 256.975C241.908 257.099 241.42 257.194 240.916 257.26C240.42 257.335 239.813 257.372 239.093 257.372ZM240.532 248.246C240.507 247.329 240.292 246.63 239.887 246.151C239.49 245.671 238.878 245.432 238.052 245.432C237.209 245.432 236.547 245.684 236.068 246.188C235.597 246.692 235.336 247.378 235.287 248.246H240.532ZM258.721 257.384C257.696 257.384 256.725 257.273 255.807 257.05C254.898 256.826 254.146 256.566 253.551 256.268V252.598H253.91C254.117 252.755 254.352 252.929 254.617 253.119C254.881 253.309 255.249 253.508 255.72 253.714C256.125 253.904 256.58 254.07 257.084 254.21C257.597 254.342 258.151 254.409 258.746 254.409C259.358 254.409 259.895 254.314 260.358 254.123C260.829 253.933 261.064 253.632 261.064 253.218C261.064 252.896 260.957 252.652 260.742 252.487C260.527 252.321 260.11 252.164 259.49 252.016C259.159 251.933 258.742 251.846 258.237 251.755C257.733 251.656 257.287 251.544 256.898 251.42C255.807 251.082 254.985 250.581 254.431 249.92C253.885 249.251 253.613 248.374 253.613 247.292C253.613 246.672 253.753 246.089 254.034 245.543C254.324 244.989 254.745 244.498 255.299 244.068C255.853 243.646 256.535 243.311 257.345 243.064C258.163 242.816 259.085 242.692 260.11 242.692C261.085 242.692 261.982 242.791 262.8 242.989C263.619 243.179 264.309 243.411 264.871 243.683V247.205H264.524C264.375 247.089 264.139 246.936 263.817 246.746C263.495 246.548 263.181 246.378 262.875 246.238C262.511 246.072 262.102 245.936 261.647 245.828C261.201 245.721 260.742 245.667 260.271 245.667C259.643 245.667 259.11 245.775 258.671 245.99C258.242 246.205 258.027 246.49 258.027 246.845C258.027 247.159 258.134 247.407 258.349 247.589C258.564 247.771 259.031 247.949 259.75 248.122C260.122 248.213 260.548 248.304 261.027 248.395C261.515 248.478 261.982 248.593 262.428 248.742C263.429 249.065 264.185 249.54 264.697 250.168C265.218 250.788 265.478 251.615 265.478 252.648C265.478 253.301 265.326 253.925 265.02 254.52C264.714 255.107 264.28 255.603 263.718 256.008C263.123 256.446 262.42 256.785 261.61 257.025C260.808 257.265 259.845 257.384 258.721 257.384ZM274.679 257.372C272.05 257.372 270.033 256.744 268.628 255.487C267.231 254.231 266.532 252.441 266.532 250.119C266.532 247.845 267.185 246.031 268.491 244.675C269.797 243.32 271.624 242.642 273.972 242.642C276.104 242.642 277.708 243.216 278.783 244.365C279.857 245.514 280.394 247.159 280.394 249.3V250.862H270.884C270.926 251.507 271.062 252.049 271.294 252.487C271.525 252.917 271.831 253.26 272.211 253.516C272.583 253.772 273.017 253.958 273.513 254.074C274.009 254.181 274.55 254.235 275.137 254.235C275.642 254.235 276.137 254.181 276.625 254.074C277.113 253.958 277.559 253.809 277.964 253.627C278.32 253.47 278.646 253.301 278.944 253.119C279.25 252.937 279.498 252.776 279.688 252.636H280.147V256.219C279.791 256.359 279.465 256.492 279.167 256.616C278.878 256.731 278.477 256.851 277.964 256.975C277.493 257.099 277.005 257.194 276.501 257.26C276.005 257.335 275.398 257.372 274.679 257.372ZM276.117 248.246C276.092 247.329 275.877 246.63 275.472 246.151C275.075 245.671 274.464 245.432 273.637 245.432C272.794 245.432 272.133 245.684 271.653 246.188C271.182 246.692 270.922 247.378 270.872 248.246H276.117ZM291.975 247.18H291.616C291.45 247.122 291.211 247.081 290.896 247.056C290.582 247.023 290.235 247.006 289.855 247.006C289.4 247.006 288.921 247.073 288.417 247.205C287.921 247.337 287.437 247.494 286.966 247.676V257H282.626V243.076H286.966V245.072C287.164 244.89 287.437 244.663 287.784 244.39C288.14 244.109 288.462 243.886 288.751 243.721C289.066 243.531 289.429 243.369 289.843 243.237C290.264 243.097 290.661 243.026 291.033 243.026C291.173 243.026 291.33 243.03 291.504 243.039C291.678 243.047 291.835 243.059 291.975 243.076V247.18ZM306.569 257H302.229V255.463C301.477 256.091 300.787 256.57 300.159 256.901C299.53 257.223 298.782 257.384 297.914 257.384C296.534 257.384 295.455 256.95 294.678 256.082C293.909 255.206 293.525 253.892 293.525 252.14V243.076H297.889V249.982C297.889 250.701 297.906 251.288 297.939 251.743C297.98 252.197 298.071 252.582 298.212 252.896C298.344 253.185 298.547 253.404 298.819 253.553C299.1 253.702 299.489 253.776 299.985 253.776C300.291 253.776 300.65 253.702 301.064 253.553C301.485 253.404 301.874 253.202 302.229 252.946V243.076H306.569V257ZM326.544 257V250.044C326.544 249.358 326.531 248.779 326.506 248.308C326.482 247.837 326.407 247.453 326.283 247.155C326.159 246.858 325.965 246.643 325.7 246.51C325.444 246.37 325.081 246.3 324.609 246.3C324.279 246.3 323.952 246.374 323.63 246.523C323.307 246.663 322.956 246.866 322.576 247.13V257H318.211V250.044C318.211 249.366 318.195 248.792 318.162 248.321C318.137 247.841 318.063 247.453 317.939 247.155C317.815 246.858 317.62 246.643 317.356 246.51C317.1 246.37 316.74 246.3 316.277 246.3C315.922 246.3 315.575 246.382 315.236 246.548C314.897 246.713 314.566 246.907 314.244 247.13V257H309.904V243.076H314.244V244.613C314.955 244.01 315.624 243.539 316.252 243.2C316.881 242.861 317.587 242.692 318.373 242.692C319.224 242.692 319.972 242.894 320.617 243.299C321.262 243.704 321.753 244.308 322.092 245.109C322.927 244.332 323.712 243.737 324.448 243.324C325.192 242.902 325.944 242.692 326.705 242.692C327.35 242.692 327.928 242.795 328.441 243.002C328.953 243.208 329.387 243.518 329.743 243.931C330.131 244.378 330.42 244.911 330.61 245.531C330.809 246.143 330.908 246.944 330.908 247.936V257H326.544Z" fill="#2F2F2F"/>
<rect y="241" width="14.4112" height="14.4112" fill="#C7003B"/>
<path d="M47.5677 299.795H56.7332V320H51.4587V304.119H47.5677V299.795Z" fill="#2F2F2F"/>
<path d="M87.6946 311.661C87.6946 314.085 87.0773 316.04 85.8427 317.527C84.6171 319.014 83.103 319.758 81.3007 319.758C80.5437 319.758 79.8858 319.672 79.327 319.501C78.7683 319.33 78.1735 319.064 77.5427 318.703V325.03H72.8114V304.28H77.5427V305.861C78.2366 305.267 78.944 304.784 79.665 304.415C80.3859 304.046 81.2195 303.861 82.1658 303.861C83.9231 303.861 85.2839 304.559 86.2482 305.956C87.2125 307.353 87.6946 309.254 87.6946 311.661ZM82.8552 311.755C82.8552 310.277 82.6254 309.205 82.1658 308.538C81.7152 307.871 81.0078 307.538 80.0435 307.538C79.6199 307.538 79.1964 307.605 78.7728 307.74C78.3583 307.876 77.9482 308.078 77.5427 308.349V315.986C77.795 316.094 78.0699 316.171 78.3673 316.216C78.6737 316.261 79.0342 316.284 79.4487 316.284C80.6022 316.284 81.4584 315.91 82.0171 315.162C82.5758 314.405 82.8552 313.269 82.8552 311.755ZM98.6171 315.5V312.337C97.8151 312.418 97.1662 312.49 96.6705 312.553C96.1749 312.607 95.6882 312.72 95.2106 312.891C94.796 313.035 94.4716 313.256 94.2373 313.553C94.012 313.841 93.8994 314.229 93.8994 314.716C93.8994 315.428 94.0886 315.919 94.4671 316.189C94.8546 316.45 95.4224 316.581 96.1704 316.581C96.5849 316.581 97.0085 316.487 97.4411 316.297C97.8736 316.108 98.2656 315.842 98.6171 315.5ZM98.6171 317.852C98.2927 318.122 97.9998 318.365 97.7385 318.582C97.4861 318.798 97.1437 319.014 96.7111 319.231C96.2875 319.438 95.873 319.596 95.4674 319.704C95.0709 319.812 94.5122 319.866 93.7912 319.866C92.4484 319.866 91.331 319.415 90.4388 318.514C89.5556 317.613 89.114 316.477 89.114 315.108C89.114 313.981 89.3393 313.071 89.7899 312.377C90.2405 311.683 90.8894 311.133 91.7365 310.728C92.5926 310.313 93.6155 310.025 94.8051 309.863C95.9946 309.701 97.2743 309.574 98.6442 309.484V309.403C98.6442 308.565 98.3332 307.988 97.7114 307.673C97.0986 307.348 96.1749 307.186 94.9402 307.186C94.3815 307.186 93.7281 307.29 92.9801 307.497C92.2321 307.695 91.5022 307.952 90.7902 308.268H90.3847V304.604C90.8533 304.469 91.6103 304.311 92.6557 304.131C93.7011 303.942 94.7555 303.847 95.8189 303.847C98.4324 303.847 100.334 304.284 101.523 305.158C102.722 306.024 103.321 307.348 103.321 309.133V319.46H98.6171V317.852ZM111.554 319.46H106.822V304.28H111.554V319.46ZM111.689 302.117H106.687V298.427H111.689V302.117ZM125.369 308.754H124.977C124.797 308.691 124.535 308.646 124.193 308.619C123.851 308.583 123.472 308.565 123.058 308.565C122.562 308.565 122.039 308.637 121.489 308.781C120.949 308.925 120.422 309.097 119.908 309.295V319.46H115.177V304.28H119.908V306.456C120.124 306.258 120.422 306.01 120.8 305.713C121.188 305.406 121.539 305.163 121.854 304.983C122.197 304.775 122.593 304.6 123.044 304.456C123.504 304.302 123.936 304.226 124.342 304.226C124.495 304.226 124.666 304.23 124.855 304.239C125.045 304.248 125.216 304.262 125.369 304.28V308.754ZM149.864 311.877C149.864 314.373 149.179 316.342 147.809 317.784C146.448 319.217 144.519 319.934 142.023 319.934C139.545 319.934 137.616 319.217 136.237 317.784C134.868 316.342 134.183 314.373 134.183 311.877C134.183 309.354 134.868 307.38 136.237 305.956C137.616 304.523 139.545 303.807 142.023 303.807C144.51 303.807 146.439 304.528 147.809 305.97C149.179 307.402 149.864 309.372 149.864 311.877ZM145.011 311.904C145.011 311.003 144.934 310.255 144.781 309.66C144.637 309.056 144.434 308.574 144.173 308.214C143.893 307.835 143.578 307.574 143.226 307.429C142.875 307.276 142.474 307.2 142.023 307.2C141.6 307.2 141.217 307.267 140.874 307.402C140.532 307.529 140.216 307.776 139.928 308.146C139.658 308.497 139.441 308.98 139.279 309.592C139.117 310.205 139.036 310.976 139.036 311.904C139.036 312.832 139.112 313.585 139.266 314.161C139.419 314.729 139.617 315.184 139.86 315.527C140.113 315.878 140.428 316.135 140.807 316.297C141.185 316.459 141.604 316.541 142.064 316.541C142.442 316.541 142.825 316.459 143.213 316.297C143.609 316.135 143.925 315.892 144.159 315.567C144.438 315.18 144.65 314.716 144.794 314.175C144.939 313.625 145.011 312.868 145.011 311.904ZM162.084 301.995H161.719C161.539 301.941 161.255 301.874 160.867 301.793C160.489 301.702 160.128 301.657 159.786 301.657C158.83 301.657 158.177 301.833 157.826 302.185C157.483 302.536 157.312 303.194 157.312 304.158V304.28H161.07V307.578H157.474V319.46H152.743V307.578H150.85V304.28H152.743V303.861C152.743 302.004 153.23 300.612 154.203 299.684C155.176 298.755 156.65 298.291 158.623 298.291C159.308 298.291 159.948 298.318 160.543 298.372C161.138 298.418 161.651 298.481 162.084 298.562V301.995ZM180.157 314.675V307.794C179.923 307.686 179.635 307.596 179.292 307.524C178.95 307.452 178.607 307.416 178.265 307.416C177.129 307.416 176.273 307.785 175.696 308.524C175.129 309.254 174.845 310.277 174.845 311.593C174.845 312.251 174.885 312.81 174.966 313.269C175.056 313.72 175.219 314.121 175.453 314.472C175.678 314.815 175.971 315.076 176.332 315.256C176.701 315.428 177.17 315.513 177.738 315.513C178.161 315.513 178.576 315.441 178.981 315.297C179.396 315.153 179.788 314.945 180.157 314.675ZM184.888 317.717C184.888 319.123 184.686 320.317 184.28 321.299C183.875 322.281 183.32 323.047 182.617 323.597C181.915 324.156 181.072 324.557 180.09 324.8C179.107 325.052 178.017 325.179 176.818 325.179C175.809 325.179 174.849 325.111 173.939 324.976C173.038 324.85 172.254 324.701 171.587 324.53V320.731H172.141C172.375 320.821 172.65 320.92 172.966 321.029C173.29 321.137 173.615 321.236 173.939 321.326C174.326 321.425 174.705 321.506 175.074 321.569C175.444 321.632 175.822 321.664 176.21 321.664C177.012 321.664 177.679 321.578 178.211 321.407C178.751 321.245 179.157 321.011 179.427 320.704C179.698 320.389 179.887 320.015 179.995 319.582C180.103 319.159 180.157 318.622 180.157 317.973V317.69C179.626 318.158 179.008 318.537 178.305 318.825C177.611 319.104 176.895 319.244 176.156 319.244C174.191 319.244 172.673 318.604 171.6 317.325C170.537 316.045 170.005 314.098 170.005 311.485C170.005 310.295 170.167 309.227 170.492 308.281C170.825 307.335 171.285 306.528 171.871 305.861C172.429 305.222 173.105 304.73 173.898 304.388C174.691 304.037 175.516 303.861 176.372 303.861C177.147 303.861 177.841 303.96 178.454 304.158C179.067 304.356 179.626 304.622 180.13 304.956L180.306 304.28H184.888V317.717ZM193.256 319.46H188.525V298.427H193.256V319.46ZM211.451 311.877C211.451 314.373 210.766 316.342 209.396 317.784C208.036 319.217 206.107 319.934 203.611 319.934C201.133 319.934 199.204 319.217 197.825 317.784C196.455 316.342 195.77 314.373 195.77 311.877C195.77 309.354 196.455 307.38 197.825 305.956C199.204 304.523 201.133 303.807 203.611 303.807C206.098 303.807 208.027 304.528 209.396 305.97C210.766 307.402 211.451 309.372 211.451 311.877ZM206.598 311.904C206.598 311.003 206.522 310.255 206.368 309.66C206.224 309.056 206.022 308.574 205.76 308.214C205.481 307.835 205.165 307.574 204.814 307.429C204.462 307.276 204.061 307.2 203.611 307.2C203.187 307.2 202.804 307.267 202.462 307.402C202.119 307.529 201.804 307.776 201.516 308.146C201.245 308.497 201.029 308.98 200.867 309.592C200.704 310.205 200.623 310.976 200.623 311.904C200.623 312.832 200.7 313.585 200.853 314.161C201.006 314.729 201.205 315.184 201.448 315.527C201.7 315.878 202.016 316.135 202.394 316.297C202.773 316.459 203.192 316.541 203.651 316.541C204.03 316.541 204.413 316.459 204.8 316.297C205.197 316.135 205.512 315.892 205.747 315.567C206.026 315.18 206.238 314.716 206.382 314.175C206.526 313.625 206.598 312.868 206.598 311.904ZM228.173 304.28L222.725 319.46H217.561L212.154 304.28H217.129L220.238 314.324L223.306 304.28H228.173ZM237.771 319.866C234.905 319.866 232.706 319.181 231.174 317.811C229.651 316.441 228.889 314.49 228.889 311.958C228.889 309.48 229.601 307.502 231.025 306.024C232.449 304.546 234.441 303.807 237 303.807C239.325 303.807 241.073 304.433 242.245 305.686C243.417 306.938 244.002 308.732 244.002 311.066V312.769H233.634C233.679 313.472 233.828 314.062 234.08 314.54C234.333 315.009 234.666 315.383 235.081 315.662C235.486 315.941 235.959 316.144 236.5 316.27C237.041 316.387 237.631 316.446 238.271 316.446C238.82 316.446 239.361 316.387 239.893 316.27C240.425 316.144 240.911 315.982 241.353 315.784C241.74 315.612 242.096 315.428 242.421 315.229C242.754 315.031 243.025 314.855 243.232 314.702H243.732V318.609C243.344 318.762 242.989 318.906 242.664 319.041C242.349 319.168 241.912 319.298 241.353 319.433C240.839 319.569 240.307 319.672 239.758 319.744C239.217 319.825 238.555 319.866 237.771 319.866ZM239.339 309.917C239.312 308.916 239.077 308.155 238.636 307.632C238.203 307.11 237.536 306.848 236.635 306.848C235.716 306.848 234.995 307.123 234.472 307.673C233.959 308.223 233.675 308.971 233.621 309.917H239.339ZM251.059 319.88C249.941 319.88 248.882 319.758 247.882 319.515C246.891 319.271 246.071 318.987 245.422 318.663V314.662H245.814C246.039 314.833 246.296 315.022 246.584 315.229C246.873 315.437 247.274 315.653 247.787 315.878C248.229 316.085 248.725 316.266 249.274 316.419C249.833 316.563 250.437 316.635 251.086 316.635C251.753 316.635 252.338 316.532 252.843 316.324C253.357 316.117 253.614 315.788 253.614 315.337C253.614 314.986 253.496 314.72 253.262 314.54C253.028 314.36 252.573 314.188 251.897 314.026C251.536 313.936 251.081 313.841 250.532 313.742C249.982 313.634 249.495 313.513 249.072 313.377C247.882 313.008 246.985 312.463 246.382 311.742C245.787 311.012 245.489 310.056 245.489 308.876C245.489 308.2 245.643 307.565 245.949 306.97C246.264 306.366 246.724 305.83 247.328 305.361C247.932 304.902 248.675 304.537 249.558 304.266C250.45 303.996 251.455 303.861 252.573 303.861C253.636 303.861 254.614 303.969 255.506 304.185C256.398 304.392 257.151 304.645 257.764 304.942V308.781H257.385C257.223 308.655 256.966 308.488 256.615 308.281C256.263 308.065 255.921 307.88 255.587 307.727C255.191 307.547 254.745 307.398 254.249 307.281C253.762 307.164 253.262 307.105 252.748 307.105C252.064 307.105 251.482 307.222 251.005 307.457C250.536 307.691 250.302 308.002 250.302 308.389C250.302 308.732 250.419 309.002 250.653 309.2C250.887 309.399 251.397 309.592 252.181 309.782C252.586 309.881 253.05 309.98 253.573 310.079C254.105 310.169 254.614 310.295 255.101 310.458C256.191 310.809 257.016 311.327 257.574 312.012C258.142 312.688 258.426 313.589 258.426 314.716C258.426 315.428 258.259 316.108 257.926 316.757C257.592 317.397 257.119 317.937 256.506 318.379C255.858 318.857 255.092 319.226 254.208 319.487C253.334 319.749 252.284 319.88 251.059 319.88Z" fill="#2F2F2F"/>
<rect y="302" width="14.4112" height="14.4112" fill="#C7003B"/>
<path d="M56.6403 49.4222C55.3362 49.4222 54.1399 49.258 53.0516 48.9296C51.9726 48.6013 51.0344 48.0946 50.2369 47.4097C49.4488 46.7248 48.8342 45.8663 48.3933 44.8343C47.9523 43.7928 47.7318 42.5684 47.7318 41.1611C47.7318 39.6505 47.9711 38.3652 48.4496 37.305C48.9281 36.2448 49.5754 35.3722 50.3917 34.6873C51.1798 34.0305 52.104 33.5473 53.1642 33.2377C54.2338 32.9187 55.3456 32.7592 56.4996 32.7592C57.3721 32.7592 58.2447 32.8624 59.1172 33.0689C59.9898 33.2659 60.867 33.5849 61.749 34.0258V38.2479H61.1157C60.9186 38.0602 60.6747 37.8538 60.3839 37.6287C60.1024 37.4035 59.7928 37.1971 59.455 37.0094C59.0985 36.8124 58.695 36.6482 58.2447 36.5168C57.7943 36.3761 57.2924 36.3057 56.7388 36.3057C55.4816 36.3057 54.5058 36.7467 53.8116 37.6287C53.1266 38.5012 52.7842 39.6787 52.7842 41.1611C52.7842 42.7467 53.1501 43.9289 53.8819 44.7076C54.6231 45.4863 55.6036 45.8757 56.8233 45.8757C57.4425 45.8757 57.9867 45.8053 58.4558 45.6646C58.9249 45.5239 59.3283 45.355 59.6661 45.1579C59.9945 44.9609 60.276 44.7592 60.5105 44.5528C60.7451 44.337 60.9468 44.1447 61.1157 43.9758H61.749V48.1978C61.4675 48.3198 61.1391 48.4605 60.7638 48.62C60.3979 48.7795 60.0226 48.9109 59.638 49.0141C59.1595 49.1454 58.7091 49.2439 58.2869 49.3096C57.8741 49.3847 57.3252 49.4222 56.6403 49.4222ZM79.2564 41.1048C79.2564 43.7037 78.5433 45.7537 77.1172 47.2549C75.7005 48.7467 73.6926 49.4926 71.0938 49.4926C68.5136 49.4926 66.5058 48.7467 65.0703 47.2549C63.6442 45.7537 62.9311 43.7037 62.9311 41.1048C62.9311 38.4777 63.6442 36.423 65.0703 34.9406C66.5058 33.4488 68.5136 32.7029 71.0938 32.7029C73.6833 32.7029 75.6911 33.4535 77.1172 34.9547C78.5433 36.4465 79.2564 38.4965 79.2564 41.1048ZM74.204 41.1329C74.204 40.1947 74.1242 39.416 73.9647 38.7967C73.8146 38.1681 73.6035 37.6662 73.3314 37.2909C73.0406 36.8968 72.7122 36.6247 72.3463 36.4746C71.9804 36.3151 71.5629 36.2354 71.0938 36.2354C70.6528 36.2354 70.254 36.3057 69.8975 36.4465C69.541 36.5778 69.2126 36.8358 68.9124 37.2205C68.6309 37.5864 68.4057 38.0884 68.2368 38.7264C68.068 39.3644 67.9835 40.1666 67.9835 41.1329C67.9835 42.0993 68.0633 42.8827 68.2228 43.4832C68.3823 44.0743 68.5887 44.5481 68.842 44.9046C69.1047 45.2705 69.4331 45.5379 69.8271 45.7068C70.2212 45.8757 70.6575 45.9601 71.136 45.9601C71.53 45.9601 71.9288 45.8757 72.3322 45.7068C72.745 45.5379 73.0734 45.2846 73.3174 44.9468C73.6082 44.5434 73.8287 44.0602 73.9788 43.4973C74.1289 42.925 74.204 42.1368 74.204 41.1329ZM86.7997 49H81.874V27.1017H86.7997V49ZM105.743 41.1048C105.743 43.7037 105.03 45.7537 103.603 47.2549C102.187 48.7467 100.179 49.4926 97.58 49.4926C94.9999 49.4926 92.992 48.7467 91.5566 47.2549C90.1304 45.7537 89.4174 43.7037 89.4174 41.1048C89.4174 38.4777 90.1304 36.423 91.5566 34.9406C92.992 33.4488 94.9999 32.7029 97.58 32.7029C100.17 32.7029 102.177 33.4535 103.603 34.9547C105.03 36.4465 105.743 38.4965 105.743 41.1048ZM100.69 41.1329C100.69 40.1947 100.61 39.416 100.451 38.7967C100.301 38.1681 100.09 37.6662 99.8177 37.2909C99.5268 36.8968 99.1984 36.6247 98.8325 36.4746C98.4666 36.3151 98.0491 36.2354 97.58 36.2354C97.139 36.2354 96.7403 36.3057 96.3837 36.4465C96.0272 36.5778 95.6988 36.8358 95.3986 37.2205C95.1171 37.5864 94.892 38.0884 94.7231 38.7264C94.5542 39.3644 94.4698 40.1666 94.4698 41.1329C94.4698 42.0993 94.5495 42.8827 94.709 43.4832C94.8685 44.0743 95.0749 44.5481 95.3282 44.9046C95.5909 45.2705 95.9193 45.5379 96.3134 45.7068C96.7074 45.8757 97.1437 45.9601 97.6222 45.9601C98.0163 45.9601 98.415 45.8757 98.8185 45.7068C99.2313 45.5379 99.5597 45.2846 99.8036 44.9468C100.094 44.5434 100.315 44.0602 100.465 43.4973C100.615 42.925 100.69 42.1368 100.69 41.1329ZM118.972 37.8538H118.564C118.376 37.7881 118.104 37.7412 117.747 37.7131C117.391 37.6756 116.997 37.6568 116.565 37.6568C116.049 37.6568 115.505 37.7319 114.933 37.882C114.37 38.0321 113.821 38.2104 113.286 38.4168V49H108.36V33.1955H113.286V35.4613C113.511 35.2549 113.821 34.9969 114.215 34.6873C114.618 34.3683 114.984 34.115 115.313 33.9273C115.669 33.7115 116.082 33.5286 116.551 33.3785C117.029 33.219 117.48 33.1392 117.902 33.1392C118.062 33.1392 118.24 33.1439 118.437 33.1533C118.634 33.1627 118.812 33.1767 118.972 33.1955V37.8538ZM137.056 49.4222C135.752 49.4222 134.556 49.258 133.467 48.9296C132.388 48.6013 131.45 48.0946 130.653 47.4097C129.864 46.7248 129.25 45.8663 128.809 44.8343C128.368 43.7928 128.148 42.5684 128.148 41.1611C128.148 39.6505 128.387 38.3652 128.865 37.305C129.344 36.2448 129.991 35.3722 130.807 34.6873C131.596 34.0305 132.52 33.5473 133.58 33.2377C134.649 32.9187 135.761 32.7592 136.915 32.7592C137.788 32.7592 138.66 32.8624 139.533 33.0689C140.405 33.2659 141.283 33.5849 142.165 34.0258V38.2479H141.531C141.334 38.0602 141.09 37.8538 140.8 37.6287C140.518 37.4035 140.208 37.1971 139.871 37.0094C139.514 36.8124 139.111 36.6482 138.66 36.5168C138.21 36.3761 137.708 36.3057 137.155 36.3057C135.897 36.3057 134.922 36.7467 134.227 37.6287C133.542 38.5012 133.2 39.6787 133.2 41.1611C133.2 42.7467 133.566 43.9289 134.298 44.7076C135.039 45.4863 136.019 45.8757 137.239 45.8757C137.858 45.8757 138.402 45.8053 138.871 45.6646C139.341 45.5239 139.744 45.355 140.082 45.1579C140.41 44.9609 140.692 44.7592 140.926 44.5528C141.161 44.337 141.362 44.1447 141.531 43.9758H142.165V48.1978C141.883 48.3198 141.555 48.4605 141.18 48.62C140.814 48.7795 140.438 48.9109 140.054 49.0141C139.575 49.1454 139.125 49.2439 138.703 49.3096C138.29 49.3847 137.741 49.4222 137.056 49.4222ZM155.112 37.8538H154.704C154.516 37.7881 154.244 37.7412 153.888 37.7131C153.531 37.6756 153.137 37.6568 152.706 37.6568C152.19 37.6568 151.646 37.7319 151.073 37.882C150.51 38.0321 149.961 38.2104 149.427 38.4168V49H144.501V33.1955H149.427V35.4613C149.652 35.2549 149.961 34.9969 150.355 34.6873C150.759 34.3683 151.125 34.115 151.453 33.9273C151.81 33.7115 152.223 33.5286 152.692 33.3785C153.17 33.219 153.62 33.1392 154.043 33.1392C154.202 33.1392 154.38 33.1439 154.577 33.1533C154.774 33.1627 154.953 33.1767 155.112 33.1955V37.8538ZM165.09 49.4222C162.107 49.4222 159.817 48.7091 158.222 47.283C156.637 45.8569 155.844 43.8257 155.844 41.1892C155.844 38.6091 156.585 36.5497 158.068 35.011C159.55 33.4723 161.624 32.7029 164.288 32.7029C166.709 32.7029 168.529 33.355 169.749 34.6592C170.968 35.9633 171.578 37.8304 171.578 40.2604V42.0336H160.784C160.831 42.7655 160.986 43.38 161.248 43.8773C161.511 44.3651 161.858 44.7545 162.29 45.0454C162.712 45.3362 163.204 45.5473 163.767 45.6787C164.33 45.8006 164.945 45.8616 165.611 45.8616C166.183 45.8616 166.746 45.8006 167.3 45.6787C167.853 45.5473 168.36 45.3784 168.82 45.172C169.223 44.9938 169.594 44.8014 169.932 44.595C170.279 44.3886 170.56 44.2056 170.776 44.0461H171.297V48.1134C170.893 48.2729 170.523 48.423 170.185 48.5637C169.857 48.6951 169.402 48.8311 168.82 48.9719C168.285 49.1126 167.731 49.2205 167.159 49.2955C166.596 49.38 165.907 49.4222 165.09 49.4222ZM166.723 39.0641C166.695 38.0227 166.451 37.2299 165.991 36.6857C165.541 36.1416 164.846 35.8695 163.908 35.8695C162.951 35.8695 162.201 36.1556 161.656 36.7279C161.122 37.3003 160.826 38.079 160.77 39.0641H166.723ZM182.823 44.8765V41.5833C181.988 41.6677 181.312 41.7428 180.796 41.8085C180.28 41.8648 179.774 41.982 179.276 42.1603C178.845 42.3104 178.507 42.5403 178.263 42.8499C178.029 43.1501 177.911 43.5536 177.911 44.0602C177.911 44.8014 178.108 45.3128 178.502 45.5942C178.906 45.8663 179.497 46.0024 180.276 46.0024C180.707 46.0024 181.148 45.9038 181.598 45.7068C182.049 45.5098 182.457 45.233 182.823 44.8765ZM182.823 47.3253C182.485 47.6067 182.18 47.8601 181.908 48.0852C181.645 48.3104 181.289 48.5356 180.839 48.7608C180.398 48.9765 179.966 49.1407 179.544 49.2533C179.131 49.3659 178.549 49.4222 177.799 49.4222C176.401 49.4222 175.237 48.9531 174.308 48.0149C173.389 47.0766 172.929 45.8945 172.929 44.4683C172.929 43.2956 173.164 42.3479 173.633 41.6255C174.102 40.9031 174.778 40.3308 175.66 39.9086C176.551 39.477 177.616 39.1767 178.854 39.0078C180.093 38.839 181.425 38.7076 182.851 38.6138V38.5294C182.851 37.6568 182.527 37.0563 181.88 36.7279C181.242 36.3902 180.28 36.2213 178.995 36.2213C178.413 36.2213 177.733 36.3292 176.954 36.545C176.176 36.7514 175.416 37.0188 174.674 37.3472H174.252V33.5333C174.74 33.3925 175.528 33.2284 176.616 33.0407C177.705 32.8437 178.803 32.7452 179.91 32.7452C182.631 32.7452 184.61 33.2002 185.849 34.1103C187.097 35.011 187.72 36.3902 187.72 38.2479V49H182.823V47.3253ZM210.252 49V41.1048C210.252 40.3261 210.238 39.6693 210.21 39.1345C210.182 38.5997 210.097 38.1634 209.957 37.8257C209.816 37.4879 209.595 37.244 209.295 37.0939C209.004 36.9344 208.591 36.8546 208.057 36.8546C207.681 36.8546 207.311 36.9391 206.945 37.1079C206.579 37.2674 206.18 37.4973 205.749 37.7975V49H200.795V41.1048C200.795 40.3354 200.776 39.6834 200.738 39.1486C200.71 38.6044 200.626 38.1634 200.485 37.8257C200.344 37.4879 200.124 37.244 199.824 37.0939C199.533 36.9344 199.125 36.8546 198.599 36.8546C198.196 36.8546 197.802 36.9484 197.417 37.1361C197.032 37.3237 196.657 37.5442 196.291 37.7975V49H191.365V33.1955H196.291V34.9406C197.098 34.2557 197.858 33.7209 198.571 33.3362C199.284 32.9516 200.086 32.7592 200.978 32.7592C201.944 32.7592 202.793 32.9891 203.525 33.4488C204.257 33.9086 204.815 34.5935 205.2 35.5036C206.147 34.6216 207.039 33.9461 207.874 33.477C208.718 32.9985 209.572 32.7592 210.435 32.7592C211.167 32.7592 211.824 32.8765 212.405 33.1111C212.987 33.3456 213.48 33.6975 213.883 34.1666C214.324 34.6732 214.652 35.2784 214.868 35.9821C215.093 36.6763 215.206 37.5864 215.206 38.7123V49H210.252Z" fill="#2F2F2F"/>
<rect y="33.6211" width="14.4112" height="14.4112" fill="#C7003B"/>
<path d="M264.793 26.7955H273.958V47H268.684V31.1188H264.793V26.7955ZM284.746 42.7631H293.364V47H277.973L277.944 43.5125L285.294 35.961C286.418 34.8081 287.254 33.5111 287.254 32.6464C287.254 31.5512 286.418 30.9171 284.948 30.9171C283.305 30.9171 281.23 31.897 279.385 33.4823L277.368 29.5913C279.962 27.7178 282.787 26.5649 285.755 26.5649C289.819 26.5649 292.788 28.6978 292.788 31.8682C292.788 34.0587 291.145 36.3357 288.868 38.6127L284.746 42.7631ZM302.572 23.6538H306.896L297.557 50.1705H293.234L302.572 23.6538ZM314.749 26.6225C320.484 26.6225 323.684 30.283 323.684 36.8833C323.684 43.5125 320.484 47.1729 314.749 47.1729C308.955 47.1729 305.756 43.5125 305.756 36.8833C305.756 30.283 308.955 26.6225 314.749 26.6225ZM314.749 30.5424C312.241 30.5424 311.175 32.3582 311.175 36.8833C311.175 41.4373 312.241 43.2531 314.749 43.2531C317.199 43.2531 318.294 41.4373 318.294 36.8833C318.294 32.3582 317.199 30.5424 314.749 30.5424Z" fill="#444444"/>
<path d="M462.223 34.1164C466.979 34.1164 470.034 36.6239 470.034 40.2267C470.034 44.4636 466.806 47.2306 461.791 47.2306C459.082 47.2306 455.998 46.2218 453.807 44.723L455.767 40.9185C457.41 42.2443 459.312 43.1666 461.214 43.1666C463.232 43.1666 464.385 42.2155 464.385 40.6302C464.385 39.0738 463.318 38.2092 461.099 38.2092C460.177 38.2092 456.833 38.238 455.565 38.3244V26.7955H469.141V31.0324H460.407V34.1164H462.223ZM481.188 26.6225C486.924 26.6225 490.123 30.283 490.123 36.8833C490.123 43.5125 486.924 47.1729 481.188 47.1729C475.395 47.1729 472.196 43.5125 472.196 36.8833C472.196 30.283 475.395 26.6225 481.188 26.6225ZM481.188 30.5424C478.681 30.5424 477.614 32.3582 477.614 36.8833C477.614 41.4373 478.681 43.2531 481.188 43.2531C483.638 43.2531 484.733 41.4373 484.733 36.8833C484.733 32.3582 483.638 30.5424 481.188 30.5424ZM514.05 31.2053C517.422 31.2053 519.641 33.5111 519.641 37.1716V47H514.511V38.6415C514.511 36.8545 513.531 35.7881 511.945 35.7881C510.13 35.8169 509.006 37.258 509.006 39.3044V47H503.875V38.6415C503.875 36.8545 502.895 35.7881 501.31 35.7881C499.494 35.8169 498.341 37.258 498.341 39.3044V47H493.24V31.4071H498.341V33.9723C499.408 32.1564 501.166 31.2053 503.414 31.2053C505.95 31.2053 507.824 32.5023 508.602 34.6928C509.611 32.387 511.513 31.2053 514.05 31.2053ZM523.276 25.6138H528.406V47H523.276V25.6138Z" fill="#444444"/>
<path d="M340.087 31.2327C339.108 31.2327 338.299 31.8286 338.299 33.0417V34.5102H341.406V36.0213H338.299V45.3857H336.32V36.0213H334.851V34.5102H336.32V33.2971C336.32 30.7432 338.129 29.4662 340.044 29.4662C340.704 29.4662 341.406 29.6791 342.002 29.977L341.534 31.5945C341.13 31.403 340.619 31.2327 340.087 31.2327ZM347.685 34.0633C351.069 34.0633 353.453 36.3831 353.453 39.7458C353.453 43.1298 351.069 45.4496 347.685 45.4496C344.259 45.4496 341.897 43.1298 341.897 39.7458C341.897 36.3831 344.259 34.0633 347.685 34.0633ZM347.685 35.7872C345.451 35.7872 343.897 37.426 343.897 39.7671C343.897 42.1508 345.451 43.7683 347.685 43.7683C349.878 43.7683 351.453 42.1508 351.453 39.7671C351.453 37.426 349.878 35.7872 347.685 35.7872ZM358.201 36.5534C358.946 34.9359 360.329 34.0846 362.202 34.0633V35.9788C359.861 35.8936 358.393 37.3409 358.201 39.4478V45.3857H356.222V34.1272H358.201V36.5534ZM378.625 37.128C377.795 36.3193 376.688 35.8085 375.326 35.8298C373.155 35.8298 371.602 37.426 371.602 39.7671C371.602 42.1295 373.155 43.7257 375.326 43.7257C376.773 43.7257 377.965 43.2362 378.731 42.321L379.859 43.4703C378.859 44.726 377.263 45.4496 375.241 45.4496C371.942 45.4496 369.622 43.1298 369.622 39.7671C369.622 36.4044 371.942 34.0633 375.241 34.0633C377.156 34.0633 378.689 34.6805 379.71 35.7659L378.625 37.128ZM386.863 34.0633C390.247 34.0633 392.631 36.3831 392.631 39.7458C392.631 43.1298 390.247 45.4496 386.863 45.4496C383.437 45.4496 381.074 43.1298 381.074 39.7458C381.074 36.3831 383.437 34.0633 386.863 34.0633ZM386.863 35.7872C384.629 35.7872 383.075 37.426 383.075 39.7671C383.075 42.1508 384.629 43.7683 386.863 43.7683C389.055 43.7683 390.63 42.1508 390.63 39.7671C390.63 37.426 389.055 35.7872 386.863 35.7872ZM395.506 29.5939H397.485V45.3857H395.506V29.5939ZM406.151 34.0633C409.535 34.0633 411.918 36.3831 411.918 39.7458C411.918 43.1298 409.535 45.4496 406.151 45.4496C402.724 45.4496 400.362 43.1298 400.362 39.7458C400.362 36.3831 402.724 34.0633 406.151 34.0633ZM406.151 35.7872C403.916 35.7872 402.362 37.426 402.362 39.7671C402.362 42.1508 403.916 43.7683 406.151 43.7683C408.343 43.7683 409.918 42.1508 409.918 39.7671C409.918 37.426 408.343 35.7872 406.151 35.7872ZM416.666 36.5534C417.411 34.9359 418.795 34.0846 420.668 34.0633V35.9788C418.327 35.8936 416.858 37.3409 416.666 39.4478V45.3857H414.687V34.1272H416.666V36.5534ZM428.964 36.6172C428.028 36.0426 426.836 35.6808 425.815 35.6808C424.687 35.6808 423.835 36.0639 423.835 37.0216C423.835 39.3627 430.007 38.1283 429.986 42.2146C429.986 44.4493 427.985 45.4496 425.793 45.4496C424.155 45.4496 422.452 44.8962 421.366 43.8959L422.111 42.4487C423.069 43.3213 424.58 43.8534 425.857 43.8534C427.07 43.8534 428.028 43.4277 428.028 42.4062C428.071 39.8309 421.92 41.193 421.941 37.1706C421.941 34.9572 423.857 34.042 425.964 34.042C427.326 34.042 428.73 34.4464 429.688 35.1062L428.964 36.6172ZM438.388 38.2134H443.474V39.6394H438.388V38.2134Z" fill="#444444"/>
<path d="M339.087 79.847C338.108 79.847 337.299 80.4429 337.299 81.656V83.1245H340.406V84.6356H337.299V94H335.32V84.6356H333.851V83.1245H335.32V81.9114C335.32 79.3574 337.129 78.0805 339.044 78.0805C339.704 78.0805 340.406 78.2933 341.002 78.5913L340.534 80.2088C340.13 80.0172 339.619 79.847 339.087 79.847ZM346.685 82.6776C350.069 82.6776 352.453 84.9974 352.453 88.3601C352.453 91.744 350.069 94.0638 346.685 94.0638C343.259 94.0638 340.897 91.744 340.897 88.3601C340.897 84.9974 343.259 82.6776 346.685 82.6776ZM346.685 84.4015C344.451 84.4015 342.897 86.0402 342.897 88.3813C342.897 90.765 344.451 92.3825 346.685 92.3825C348.878 92.3825 350.453 90.765 350.453 88.3813C350.453 86.0402 348.878 84.4015 346.685 84.4015ZM357.201 85.1676C357.946 83.5502 359.329 82.6988 361.202 82.6776V84.593C358.861 84.5079 357.393 85.9551 357.201 88.0621V94H355.222V82.7414H357.201V85.1676ZM377.625 85.7423C376.795 84.9335 375.688 84.4227 374.326 84.444C372.155 84.444 370.602 86.0402 370.602 88.3813C370.602 90.7437 372.155 92.3399 374.326 92.3399C375.773 92.3399 376.965 91.8504 377.731 90.9353L378.859 92.0845C377.859 93.3402 376.263 94.0638 374.241 94.0638C370.942 94.0638 368.622 91.744 368.622 88.3813C368.622 85.0187 370.942 82.6776 374.241 82.6776C376.156 82.6776 377.689 83.2948 378.71 84.3802L377.625 85.7423ZM385.863 82.6776C389.247 82.6776 391.631 84.9974 391.631 88.3601C391.631 91.744 389.247 94.0638 385.863 94.0638C382.437 94.0638 380.074 91.744 380.074 88.3601C380.074 84.9974 382.437 82.6776 385.863 82.6776ZM385.863 84.4015C383.629 84.4015 382.075 86.0402 382.075 88.3813C382.075 90.765 383.629 92.3825 385.863 92.3825C388.055 92.3825 389.63 90.765 389.63 88.3813C389.63 86.0402 388.055 84.4015 385.863 84.4015ZM394.506 78.2082H396.485V94H394.506V78.2082ZM405.151 82.6776C408.535 82.6776 410.918 84.9974 410.918 88.3601C410.918 91.744 408.535 94.0638 405.151 94.0638C401.724 94.0638 399.362 91.744 399.362 88.3601C399.362 84.9974 401.724 82.6776 405.151 82.6776ZM405.151 84.4015C402.916 84.4015 401.362 86.0402 401.362 88.3813C401.362 90.765 402.916 92.3825 405.151 92.3825C407.343 92.3825 408.918 90.765 408.918 88.3813C408.918 86.0402 407.343 84.4015 405.151 84.4015ZM415.666 85.1676C416.411 83.5502 417.795 82.6988 419.668 82.6776V84.593C417.327 84.5079 415.858 85.9551 415.666 88.0621V94H413.687V82.7414H415.666V85.1676ZM427.964 85.2315C427.028 84.6569 425.836 84.2951 424.815 84.2951C423.687 84.2951 422.835 84.6781 422.835 85.6359C422.835 87.977 429.007 86.7426 428.986 90.8289C428.986 93.0636 426.985 94.0638 424.793 94.0638C423.155 94.0638 421.452 93.5105 420.366 92.5102L421.111 91.063C422.069 91.9356 423.58 92.4676 424.857 92.4676C426.07 92.4676 427.028 92.042 427.028 91.0204C427.071 88.4452 420.92 89.8073 420.941 85.7848C420.941 83.5714 422.857 82.6563 424.964 82.6563C426.326 82.6563 427.73 83.0607 428.688 83.7204L427.964 85.2315ZM437.388 86.8277H442.474V88.2536H437.388V86.8277Z" fill="#444444"/>
<path d="M339.087 184.847C338.108 184.847 337.299 185.443 337.299 186.656V188.124H340.406V189.636H337.299V199H335.32V189.636H333.851V188.124H335.32V186.911C335.32 184.357 337.129 183.08 339.044 183.08C339.704 183.08 340.406 183.293 341.002 183.591L340.534 185.209C340.13 185.017 339.619 184.847 339.087 184.847ZM346.685 187.678C350.069 187.678 352.453 189.997 352.453 193.36C352.453 196.744 350.069 199.064 346.685 199.064C343.259 199.064 340.897 196.744 340.897 193.36C340.897 189.997 343.259 187.678 346.685 187.678ZM346.685 189.401C344.451 189.401 342.897 191.04 342.897 193.381C342.897 195.765 344.451 197.383 346.685 197.383C348.878 197.383 350.453 195.765 350.453 193.381C350.453 191.04 348.878 189.401 346.685 189.401ZM357.201 190.168C357.946 188.55 359.329 187.699 361.202 187.678V189.593C358.861 189.508 357.393 190.955 357.201 193.062V199H355.222V187.741H357.201V190.168ZM377.625 190.742C376.795 189.934 375.688 189.423 374.326 189.444C372.155 189.444 370.602 191.04 370.602 193.381C370.602 195.744 372.155 197.34 374.326 197.34C375.773 197.34 376.965 196.85 377.731 195.935L378.859 197.085C377.859 198.34 376.263 199.064 374.241 199.064C370.942 199.064 368.622 196.744 368.622 193.381C368.622 190.019 370.942 187.678 374.241 187.678C376.156 187.678 377.689 188.295 378.71 189.38L377.625 190.742ZM385.863 187.678C389.247 187.678 391.631 189.997 391.631 193.36C391.631 196.744 389.247 199.064 385.863 199.064C382.437 199.064 380.074 196.744 380.074 193.36C380.074 189.997 382.437 187.678 385.863 187.678ZM385.863 189.401C383.629 189.401 382.075 191.04 382.075 193.381C382.075 195.765 383.629 197.383 385.863 197.383C388.055 197.383 389.63 195.765 389.63 193.381C389.63 191.04 388.055 189.401 385.863 189.401ZM394.506 183.208H396.485V199H394.506V183.208ZM405.151 187.678C408.535 187.678 410.918 189.997 410.918 193.36C410.918 196.744 408.535 199.064 405.151 199.064C401.724 199.064 399.362 196.744 399.362 193.36C399.362 189.997 401.724 187.678 405.151 187.678ZM405.151 189.401C402.916 189.401 401.362 191.04 401.362 193.381C401.362 195.765 402.916 197.383 405.151 197.383C407.343 197.383 408.918 195.765 408.918 193.381C408.918 191.04 407.343 189.401 405.151 189.401ZM415.666 190.168C416.411 188.55 417.795 187.699 419.668 187.678V189.593C417.327 189.508 415.858 190.955 415.666 193.062V199H413.687V187.741H415.666V190.168ZM427.964 190.231C427.028 189.657 425.836 189.295 424.815 189.295C423.687 189.295 422.835 189.678 422.835 190.636C422.835 192.977 429.007 191.743 428.986 195.829C428.986 198.064 426.985 199.064 424.793 199.064C423.155 199.064 421.452 198.51 420.366 197.51L421.111 196.063C422.069 196.936 423.58 197.468 424.857 197.468C426.07 197.468 427.028 197.042 427.028 196.02C427.071 193.445 420.92 194.807 420.941 190.785C420.941 188.571 422.857 187.656 424.964 187.656C426.326 187.656 427.73 188.061 428.688 188.72L427.964 190.231ZM437.388 191.828H442.474V193.254H437.388V191.828Z" fill="#444444"/>
<path d="M339.087 136.847C338.108 136.847 337.299 137.443 337.299 138.656V140.124H340.406V141.636H337.299V151H335.32V141.636H333.851V140.124H335.32V138.911C335.32 136.357 337.129 135.08 339.044 135.08C339.704 135.08 340.406 135.293 341.002 135.591L340.534 137.209C340.13 137.017 339.619 136.847 339.087 136.847ZM346.685 139.678C350.069 139.678 352.453 141.997 352.453 145.36C352.453 148.744 350.069 151.064 346.685 151.064C343.259 151.064 340.897 148.744 340.897 145.36C340.897 141.997 343.259 139.678 346.685 139.678ZM346.685 141.401C344.451 141.401 342.897 143.04 342.897 145.381C342.897 147.765 344.451 149.383 346.685 149.383C348.878 149.383 350.453 147.765 350.453 145.381C350.453 143.04 348.878 141.401 346.685 141.401ZM357.201 142.168C357.946 140.55 359.329 139.699 361.202 139.678V141.593C358.861 141.508 357.393 142.955 357.201 145.062V151H355.222V139.741H357.201V142.168ZM377.625 142.742C376.795 141.934 375.688 141.423 374.326 141.444C372.155 141.444 370.602 143.04 370.602 145.381C370.602 147.744 372.155 149.34 374.326 149.34C375.773 149.34 376.965 148.85 377.731 147.935L378.859 149.085C377.859 150.34 376.263 151.064 374.241 151.064C370.942 151.064 368.622 148.744 368.622 145.381C368.622 142.019 370.942 139.678 374.241 139.678C376.156 139.678 377.689 140.295 378.71 141.38L377.625 142.742ZM385.863 139.678C389.247 139.678 391.631 141.997 391.631 145.36C391.631 148.744 389.247 151.064 385.863 151.064C382.437 151.064 380.074 148.744 380.074 145.36C380.074 141.997 382.437 139.678 385.863 139.678ZM385.863 141.401C383.629 141.401 382.075 143.04 382.075 145.381C382.075 147.765 383.629 149.383 385.863 149.383C388.055 149.383 389.63 147.765 389.63 145.381C389.63 143.04 388.055 141.401 385.863 141.401ZM394.506 135.208H396.485V151H394.506V135.208ZM405.151 139.678C408.535 139.678 410.918 141.997 410.918 145.36C410.918 148.744 408.535 151.064 405.151 151.064C401.724 151.064 399.362 148.744 399.362 145.36C399.362 141.997 401.724 139.678 405.151 139.678ZM405.151 141.401C402.916 141.401 401.362 143.04 401.362 145.381C401.362 147.765 402.916 149.383 405.151 149.383C407.343 149.383 408.918 147.765 408.918 145.381C408.918 143.04 407.343 141.401 405.151 141.401ZM415.666 142.168C416.411 140.55 417.795 139.699 419.668 139.678V141.593C417.327 141.508 415.858 142.955 415.666 145.062V151H413.687V139.741H415.666V142.168ZM427.964 142.231C427.028 141.657 425.836 141.295 424.815 141.295C423.687 141.295 422.835 141.678 422.835 142.636C422.835 144.977 429.007 143.743 428.986 147.829C428.986 150.064 426.985 151.064 424.793 151.064C423.155 151.064 421.452 150.51 420.366 149.51L421.111 148.063C422.069 148.936 423.58 149.468 424.857 149.468C426.07 149.468 427.028 149.042 427.028 148.02C427.071 145.445 420.92 146.807 420.941 142.785C420.941 140.571 422.857 139.656 424.964 139.656C426.326 139.656 427.73 140.061 428.688 140.72L427.964 142.231ZM437.388 143.828H442.474V145.254H437.388V143.828Z" fill="#444444"/>
<path d="M265.209 131.795H274.374V152H269.1V136.119H265.209V131.795ZM285.162 147.763H293.78V152H278.389L278.36 148.512L285.71 140.961C286.834 139.808 287.67 138.511 287.67 137.646C287.67 136.551 286.834 135.917 285.364 135.917C283.721 135.917 281.646 136.897 279.801 138.482L277.784 134.591C280.378 132.718 283.203 131.565 286.171 131.565C290.235 131.565 293.204 133.698 293.204 136.868C293.204 139.059 291.561 141.336 289.284 143.613L285.162 147.763ZM302.988 128.654H307.312L297.973 155.17H293.65L302.988 128.654ZM315.165 131.623C320.9 131.623 324.1 135.283 324.1 141.883C324.1 148.512 320.9 152.173 315.165 152.173C309.371 152.173 306.172 148.512 306.172 141.883C306.172 135.283 309.371 131.623 315.165 131.623ZM315.165 135.542C312.657 135.542 311.591 137.358 311.591 141.883C311.591 146.437 312.657 148.253 315.165 148.253C317.615 148.253 318.71 146.437 318.71 141.883C318.71 137.358 317.615 135.542 315.165 135.542Z" fill="#444444"/>
<path d="M462.639 139.116C467.395 139.116 470.45 141.624 470.45 145.227C470.45 149.464 467.222 152.231 462.207 152.231C459.498 152.231 456.414 151.222 454.223 149.723L456.183 145.918C457.826 147.244 459.728 148.167 461.63 148.167C463.648 148.167 464.801 147.215 464.801 145.63C464.801 144.074 463.734 143.209 461.515 143.209C460.593 143.209 457.249 143.238 455.981 143.324V131.795H469.557V136.032H460.823V139.116H462.639ZM481.604 131.623C487.34 131.623 490.539 135.283 490.539 141.883C490.539 148.512 487.34 152.173 481.604 152.173C475.811 152.173 472.612 148.512 472.612 141.883C472.612 135.283 475.811 131.623 481.604 131.623ZM481.604 135.542C479.097 135.542 478.03 137.358 478.03 141.883C478.03 146.437 479.097 148.253 481.604 148.253C484.054 148.253 485.15 146.437 485.15 141.883C485.15 137.358 484.054 135.542 481.604 135.542ZM514.466 136.205C517.838 136.205 520.057 138.511 520.057 142.172V152H514.927V143.641C514.927 141.855 513.947 140.788 512.361 140.788C510.546 140.817 509.422 142.258 509.422 144.304V152H504.291V143.641C504.291 141.855 503.311 140.788 501.726 140.788C499.91 140.817 498.757 142.258 498.757 144.304V152H493.656V136.407H498.757V138.972C499.824 137.156 501.582 136.205 503.83 136.205C506.366 136.205 508.24 137.502 509.018 139.693C510.027 137.387 511.929 136.205 514.466 136.205ZM523.692 130.614H528.822V152H523.692V130.614Z" fill="#444444"/>
<path d="M264.793 76.7955H273.958V97H268.684V81.1188H264.793V76.7955ZM284.746 92.7631H293.364V97H277.973L277.944 93.5125L285.294 85.961C286.418 84.8081 287.254 83.5111 287.254 82.6464C287.254 81.5512 286.418 80.9171 284.948 80.9171C283.305 80.9171 281.23 81.897 279.385 83.4823L277.368 79.5913C279.962 77.7178 282.787 76.5649 285.755 76.5649C289.819 76.5649 292.788 78.6978 292.788 81.8682C292.788 84.0587 291.145 86.3357 288.868 88.6127L284.746 92.7631ZM302.572 73.6538H306.896L297.557 100.17H293.234L302.572 73.6538ZM304.142 76.7955H313.308V97H308.033V81.1188H304.142V76.7955Z" fill="#444444"/>
<path d="M469.544 87.6415V91.6478H466.95V96H462.108V91.6478H452.971V88.0738L458.707 75.7955H463.722L458.332 87.6415H462.108V83.347H466.95V87.6415H469.544ZM480.682 75.6225C486.417 75.6225 489.617 79.283 489.617 85.8833C489.617 92.5125 486.417 96.1729 480.682 96.1729C474.888 96.1729 471.689 92.5125 471.689 85.8833C471.689 79.283 474.888 75.6225 480.682 75.6225ZM480.682 79.5424C478.174 79.5424 477.108 81.3582 477.108 85.8833C477.108 90.4373 478.174 92.2531 480.682 92.2531C483.132 92.2531 484.227 90.4373 484.227 85.8833C484.227 81.3582 483.132 79.5424 480.682 79.5424ZM513.543 80.2053C516.915 80.2053 519.134 82.5111 519.134 86.1716V96H514.004V87.6415C514.004 85.8545 513.024 84.7881 511.439 84.7881C509.623 84.8169 508.499 86.258 508.499 88.3044V96H503.369V87.6415C503.369 85.8545 502.389 84.7881 500.803 84.7881C498.988 84.8169 497.835 86.258 497.835 88.3044V96H492.733V80.4071H497.835V82.9723C498.901 81.1564 500.659 80.2053 502.907 80.2053C505.444 80.2053 507.317 81.5023 508.095 83.6928C509.104 81.387 511.006 80.2053 513.543 80.2053ZM522.769 74.6138H527.9V96H522.769V74.6138Z" fill="#444444"/>
<path d="M265.209 181.795H274.374V202H269.1V186.119H265.209V181.795ZM285.162 197.763H293.78V202H278.389L278.36 198.512L285.71 190.961C286.834 189.808 287.67 188.511 287.67 187.646C287.67 186.551 286.834 185.917 285.364 185.917C283.721 185.917 281.646 186.897 279.801 188.482L277.784 184.591C280.378 182.718 283.203 181.565 286.171 181.565C290.235 181.565 293.204 183.698 293.204 186.868C293.204 189.059 291.561 191.336 289.284 193.613L285.162 197.763ZM302.988 178.654H307.312L297.973 205.17H293.65L302.988 178.654ZM304.558 181.795H313.724V202H308.449V186.119H304.558V181.795Z" fill="#444444"/>
<path d="M462.12 180.565C466.473 180.565 469.24 182.698 469.24 186.041C469.24 187.742 468.317 189.327 466.847 190.192C468.951 191.143 470.277 193.074 470.277 195.322C470.277 198.925 467.107 201.231 462.149 201.231C457.221 201.231 454.021 198.954 454.021 195.408C454.021 193.131 455.491 191.143 457.711 190.192C456.097 189.24 455.059 187.598 455.059 185.897C455.059 182.64 457.826 180.565 462.12 180.565ZM462.149 184.11C460.42 184.11 459.44 184.888 459.44 186.329C459.44 187.713 460.42 188.491 462.149 188.491C463.907 188.491 464.859 187.713 464.859 186.329C464.859 184.888 463.907 184.11 462.149 184.11ZM462.149 192.353C460.103 192.353 458.979 193.247 458.979 194.861C458.979 196.475 460.103 197.368 462.149 197.368C464.196 197.368 465.349 196.475 465.349 194.861C465.349 193.247 464.196 192.353 462.149 192.353ZM481.773 180.623C487.509 180.623 490.708 184.283 490.708 190.883C490.708 197.512 487.509 201.173 481.773 201.173C475.98 201.173 472.781 197.512 472.781 190.883C472.781 184.283 475.98 180.623 481.773 180.623ZM481.773 184.542C479.266 184.542 478.199 186.358 478.199 190.883C478.199 195.437 479.266 197.253 481.773 197.253C484.223 197.253 485.318 195.437 485.318 190.883C485.318 186.358 484.223 184.542 481.773 184.542ZM514.634 185.205C518.007 185.205 520.226 187.511 520.226 191.172V201H515.096V192.641C515.096 190.855 514.116 189.788 512.53 189.788C510.715 189.817 509.59 191.258 509.59 193.304V201H504.46V192.641C504.46 190.855 503.48 189.788 501.895 189.788C500.079 189.817 498.926 191.258 498.926 193.304V201H493.825V185.407H498.926V187.972C499.993 186.156 501.751 185.205 503.999 185.205C506.535 185.205 508.409 186.502 509.187 188.693C510.196 186.387 512.098 185.205 514.634 185.205ZM523.861 179.614H528.991V201H523.861V179.614Z" fill="#444444"/>
<path d="M82.2548 153.316H77.3291V151.67C77.0101 151.933 76.6442 152.214 76.2314 152.514C75.828 152.814 75.4714 153.04 75.1618 153.19C74.7678 153.377 74.3784 153.518 73.9937 153.612C73.609 153.706 73.1493 153.753 72.6145 153.753C70.8131 153.753 69.387 153.007 68.3362 151.515C67.2854 150.023 66.76 148.029 66.76 145.534C66.76 144.155 66.9382 142.958 67.2948 141.945C67.6513 140.932 68.1439 140.05 68.7725 139.299C69.3448 138.614 70.0391 138.075 70.8553 137.681C71.6716 137.277 72.5348 137.076 73.4449 137.076C74.2705 137.076 74.946 137.165 75.4714 137.343C76.0062 137.512 76.6255 137.779 77.3291 138.145V131.418H82.2548V153.316ZM77.3291 148.954V141.199C77.0852 141.077 76.7662 140.979 76.3721 140.904C75.9781 140.819 75.6403 140.777 75.3588 140.777C74.1767 140.777 73.2854 141.19 72.6849 142.015C72.0938 142.841 71.7983 143.995 71.7983 145.477C71.7983 147.035 72.0328 148.161 72.5019 148.855C72.9804 149.549 73.7498 149.897 74.81 149.897C75.2416 149.897 75.6778 149.812 76.1188 149.643C76.5598 149.474 76.9632 149.244 77.3291 148.954ZM94.1328 153.739C91.1493 153.739 88.86 153.026 87.265 151.599C85.6794 150.173 84.8866 148.142 84.8866 145.506C84.8866 142.926 85.6278 140.866 87.1102 139.327C88.5926 137.789 90.6661 137.019 93.3306 137.019C95.7513 137.019 97.5714 137.671 98.7911 138.976C100.011 140.28 100.621 142.147 100.621 144.577V146.35H89.8264C89.8733 147.082 90.0281 147.696 90.2908 148.194C90.5535 148.682 90.9006 149.071 91.3322 149.362C91.7544 149.653 92.247 149.864 92.8099 149.995C93.3729 150.117 93.9874 150.178 94.6535 150.178C95.2259 150.178 95.7888 150.117 96.3424 149.995C96.8959 149.864 97.4026 149.695 97.8623 149.488C98.2657 149.31 98.6363 149.118 98.9741 148.911C99.3212 148.705 99.6027 148.522 99.8185 148.363H100.339V152.43C99.9358 152.589 99.5652 152.739 99.2274 152.88C98.899 153.011 98.444 153.148 97.8623 153.288C97.3275 153.429 96.7739 153.537 96.2016 153.612C95.6387 153.696 94.9491 153.739 94.1328 153.739ZM95.7654 143.381C95.7372 142.339 95.4933 141.546 95.0335 141.002C94.5832 140.458 93.8889 140.186 92.9507 140.186C91.9937 140.186 91.2431 140.472 90.6989 141.044C90.1641 141.617 89.8686 142.395 89.8123 143.381H95.7654ZM117.945 137.512L112.274 153.316H106.897L101.268 137.512H106.447L109.684 147.968L112.879 137.512H117.945ZM127.937 153.739C124.954 153.739 122.664 153.026 121.069 151.599C119.484 150.173 118.691 148.142 118.691 145.506C118.691 142.926 119.432 140.866 120.915 139.327C122.397 137.789 124.47 137.019 127.135 137.019C129.556 137.019 131.376 137.671 132.596 138.976C133.815 140.28 134.425 142.147 134.425 144.577V146.35H123.631C123.678 147.082 123.833 147.696 124.095 148.194C124.358 148.682 124.705 149.071 125.137 149.362C125.559 149.653 126.051 149.864 126.614 149.995C127.177 150.117 127.792 150.178 128.458 150.178C129.03 150.178 129.593 150.117 130.147 149.995C130.7 149.864 131.207 149.695 131.667 149.488C132.07 149.31 132.441 149.118 132.779 148.911C133.126 148.705 133.407 148.522 133.623 148.363H134.144V152.43C133.74 152.589 133.37 152.739 133.032 152.88C132.703 153.011 132.248 153.148 131.667 153.288C131.132 153.429 130.578 153.537 130.006 153.612C129.443 153.696 128.754 153.739 127.937 153.739ZM129.57 143.381C129.542 142.339 129.298 141.546 128.838 141.002C128.388 140.458 127.693 140.186 126.755 140.186C125.798 140.186 125.048 140.472 124.503 141.044C123.969 141.617 123.673 142.395 123.617 143.381H129.57ZM141.884 153.316H136.958V131.418H141.884V153.316ZM160.827 145.421C160.827 148.02 160.114 150.07 158.688 151.571C157.271 153.063 155.263 153.809 152.664 153.809C150.084 153.809 148.076 153.063 146.641 151.571C145.215 150.07 144.502 148.02 144.502 145.421C144.502 142.794 145.215 140.739 146.641 139.257C148.076 137.765 150.084 137.019 152.664 137.019C155.254 137.019 157.262 137.77 158.688 139.271C160.114 140.763 160.827 142.813 160.827 145.421ZM155.775 145.449C155.775 144.511 155.695 143.732 155.535 143.113C155.385 142.485 155.174 141.983 154.902 141.607C154.611 141.213 154.283 140.941 153.917 140.791C153.551 140.632 153.133 140.552 152.664 140.552C152.223 140.552 151.825 140.622 151.468 140.763C151.112 140.894 150.783 141.152 150.483 141.537C150.201 141.903 149.976 142.405 149.807 143.043C149.639 143.681 149.554 144.483 149.554 145.449C149.554 146.416 149.634 147.199 149.793 147.8C149.953 148.391 150.159 148.865 150.413 149.221C150.675 149.587 151.004 149.854 151.398 150.023C151.792 150.192 152.228 150.277 152.707 150.277C153.101 150.277 153.499 150.192 153.903 150.023C154.316 149.854 154.644 149.601 154.888 149.263C155.179 148.86 155.399 148.377 155.549 147.814C155.699 147.241 155.775 146.453 155.775 145.449ZM178.939 145.196C178.939 147.72 178.297 149.756 177.011 151.304C175.735 152.852 174.159 153.626 172.283 153.626C171.495 153.626 170.81 153.537 170.228 153.359C169.646 153.18 169.027 152.904 168.37 152.528V159.115H163.445V137.512H168.37V139.159C169.093 138.539 169.829 138.037 170.58 137.653C171.33 137.268 172.198 137.076 173.183 137.076C175.013 137.076 176.43 137.803 177.434 139.257C178.437 140.711 178.939 142.691 178.939 145.196ZM173.901 145.295C173.901 143.756 173.662 142.639 173.183 141.945C172.714 141.251 171.978 140.904 170.974 140.904C170.533 140.904 170.092 140.974 169.651 141.115C169.219 141.255 168.792 141.467 168.37 141.748V149.7C168.633 149.812 168.919 149.892 169.229 149.939C169.548 149.986 169.923 150.009 170.355 150.009C171.556 150.009 172.447 149.62 173.029 148.841C173.61 148.053 173.901 146.871 173.901 145.295ZM189.692 153.739C186.708 153.739 184.419 153.026 182.824 151.599C181.238 150.173 180.445 148.142 180.445 145.506C180.445 142.926 181.187 140.866 182.669 139.327C184.151 137.789 186.225 137.019 188.889 137.019C191.31 137.019 193.13 137.671 194.35 138.976C195.57 140.28 196.179 142.147 196.179 144.577V146.35H185.385C185.432 147.082 185.587 147.696 185.85 148.194C186.112 148.682 186.459 149.071 186.891 149.362C187.313 149.653 187.806 149.864 188.369 149.995C188.932 150.117 189.546 150.178 190.212 150.178C190.785 150.178 191.348 150.117 191.901 149.995C192.455 149.864 192.961 149.695 193.421 149.488C193.824 149.31 194.195 149.118 194.533 148.911C194.88 148.705 195.161 148.522 195.377 148.363H195.898V152.43C195.495 152.589 195.124 152.739 194.786 152.88C194.458 153.011 194.003 153.148 193.421 153.288C192.886 153.429 192.333 153.537 191.76 153.612C191.197 153.696 190.508 153.739 189.692 153.739ZM191.324 143.381C191.296 142.339 191.052 141.546 190.592 141.002C190.142 140.458 189.448 140.186 188.509 140.186C187.552 140.186 186.802 140.472 186.258 141.044C185.723 141.617 185.427 142.395 185.371 143.381H191.324ZM209.324 142.17H208.916C208.728 142.105 208.456 142.058 208.1 142.029C207.743 141.992 207.349 141.973 206.917 141.973C206.401 141.973 205.857 142.048 205.285 142.198C204.722 142.348 204.173 142.527 203.638 142.733V153.316H198.713V137.512H203.638V139.778C203.864 139.571 204.173 139.313 204.567 139.004C204.971 138.685 205.337 138.431 205.665 138.244C206.021 138.028 206.434 137.845 206.903 137.695C207.382 137.535 207.832 137.456 208.254 137.456C208.414 137.456 208.592 137.46 208.789 137.47C208.986 137.479 209.165 137.493 209.324 137.512V142.17Z" fill="#2F2F2F"/>
<rect y="136" width="14.4112" height="14.4112" fill="#C7003B"/>
</svg>
