<svg width="1203" height="104" viewBox="0 0 1203 104" fill="none" xmlns="http://www.w3.org/2000/svg">
<path d="M0 51H480" stroke="white" stroke-width="2"/>
<path d="M730 51H1203" stroke="white" stroke-width="2"/>
<g style="mix-blend-mode:darken">
<path d="M675.728 93.9851L673.295 88.8129H655.294L652.868 93.9851H646.582L658.186 69.6978C658.186 69.6978 659.301 67.0316 662.113 67.0316H666.483C667.321 67.061 668.133 67.3261 668.826 67.7965C669.519 68.2669 670.066 68.9234 670.403 69.6905L682 93.9778L675.728 93.9851ZM643.566 93.9851H628.319C622.761 93.9851 623.052 88.5143 623.052 88.5143V67.0607H628.355V87.8004C628.357 88.0057 628.4 88.2085 628.481 88.3971C628.562 88.5857 628.68 88.7562 628.828 88.8987C628.976 89.0411 629.151 89.1526 629.342 89.2267C629.534 89.3008 629.738 89.336 629.943 89.3302H645.831C644.549 92.0984 643.566 93.9924 643.566 93.9924V93.9851ZM620.51 93.9851H602.611C597.053 93.9851 597.344 88.5143 597.344 88.5143V67.068H602.647V87.8076C602.648 88.012 602.69 88.2141 602.77 88.4021C602.85 88.5902 602.966 88.7604 603.113 88.9029C603.259 89.0453 603.433 89.1571 603.623 89.2317C603.813 89.3063 604.017 89.3423 604.221 89.3374H618.237C620.764 89.3374 620.51 93.9997 620.51 93.9997V93.9851ZM593.971 93.9851H572.634C566.551 93.9851 566.471 88.4123 566.471 88.4123V72.5243C566.471 72.5243 566.26 67.119 572.51 67.119H593.789C593.789 67.119 593.52 71.8249 591.604 71.8249H573.61C573.405 71.8001 573.196 71.8193 572.999 71.8813C572.802 71.9433 572.62 72.0467 572.465 72.1846C572.311 72.3224 572.188 72.4916 572.104 72.6808C572.02 72.87 571.977 73.0749 571.979 73.2819V77.8494H587.444V82.5553H571.979V87.6547C571.945 87.878 571.964 88.106 572.034 88.3208C572.103 88.5356 572.222 88.7312 572.38 88.8923C572.538 89.0533 572.732 89.1754 572.945 89.2489C573.159 89.3224 573.387 89.3452 573.61 89.3156H591.655C594.168 89.4103 593.971 94.007 593.971 94.007V93.9851ZM563.696 57.627C558.684 53.5475 552.04 55.0773 546.089 55.3396C544.573 55.4051 542.803 55.5363 541.412 54.8442C540.818 54.5114 540.335 54.0116 540.023 53.4068C539.711 52.802 539.584 52.1189 539.656 51.4422C539.686 50.6042 539.816 49.7728 540.042 48.9654C540.254 48.1495 540.305 47.7052 539.576 47.1442C538.33 46.1826 539.926 44.5363 540.88 44.1211C540.571 43.9612 540.297 43.7418 540.073 43.4755C539.849 43.2092 539.68 42.9013 539.576 42.5694C539.521 42.2561 539.521 41.9357 539.576 41.6224C539.62 41.3456 539.977 41.1853 540.159 40.9959C540.362 40.8302 540.526 40.6213 540.638 40.3844C540.75 40.1475 540.808 39.8885 540.807 39.6264C540.742 38.9926 540.079 38.6138 539.62 38.1694C538.891 37.441 537.879 36.035 538.578 34.9423C538.911 34.5821 539.309 34.288 539.751 34.0754C540.399 33.6383 544.588 30.9284 545.79 29.7046C546.384 29.1565 546.766 28.416 546.868 27.6139C546.999 26.8344 547.152 26.0622 547.327 25.3046C547.873 22.9225 548.667 20.4748 550.423 18.6828C551.606 17.5696 552.928 16.6146 554.357 15.8417C554.469 15.7527 554.569 15.6499 554.655 15.5358C554.852 15.1786 554.999 14.7963 555.093 14.3993C555.959 11.9954 558.094 10.2179 560.345 9.13976C564.927 6.95434 570.063 7.09275 574.761 8.79009C579.62 10.5384 583.758 13.5033 587.932 16.4391C592.106 19.3748 596.084 22.4635 600.564 24.7801C613.247 31.3364 619.759 27.1403 625.062 24.7801C625.157 24.7364 634.387 20.2198 640.237 20.0304C646.239 19.8338 649.437 23.4834 650.29 26.4119C650.719 27.8688 650.413 28.5973 649.809 27.9635C646.414 24.241 642.801 22.7914 630.184 28.2986C619.817 32.8224 611.243 37.9363 597.206 29.3331C592.208 26.2735 587.437 22.8861 582.636 19.5205C578.316 16.4682 573.618 13.008 568.067 12.8768C564.424 12.7967 560.709 13.6927 558.378 16.6285C557.999 17.2356 557.541 17.7893 557.016 18.2748C556.586 18.5808 552.069 21.0139 551.239 24.9914C550.911 26.5721 551.086 28.4079 550.277 29.8503C549.469 31.2927 545.178 34.4032 544.45 34.8986C544.136 35.1171 542.862 35.7873 542.927 36.1661C543.051 36.9675 543.845 37.5648 544.479 37.9946C544.736 38.1755 544.943 38.4188 545.081 38.7017C545.218 38.9845 545.282 39.2977 545.265 39.6118C545.248 39.995 545.153 40.3707 544.987 40.7162C544.82 41.0618 544.585 41.37 544.297 41.6224C543.823 42.0449 544.792 42.8535 545.178 43.0138C545.564 43.1741 545.819 43.327 545.746 43.7423C545.673 44.1575 545.295 44.1648 545.069 44.4198C544.845 44.6788 544.683 44.9852 544.595 45.3158C544.493 45.6436 544.544 45.6363 544.785 45.8476C544.914 45.9629 545.026 46.0953 545.12 46.2409C545.296 46.4792 545.39 46.7679 545.389 47.0641C545.389 47.6615 544.828 48.2734 544.617 48.8343C544.187 50.0144 544.165 51.4714 545.673 51.7482C546.956 51.9886 548.412 51.6899 549.702 51.6244C552.572 51.3691 555.461 51.4203 558.32 51.7773C560.906 52.1926 563.419 53.0085 565.16 55.019C566.901 57.0296 567.739 59.7541 568.074 62.3766C568.132 62.923 567.542 62.974 567.302 62.617C566.996 62.2309 565.685 59.266 563.696 57.6488V57.627ZM554.903 93.9632H549.447L542.344 74.615C541.703 76.3123 534.965 93.9997 534.965 93.9997H529.742L521 67.0461H526.595L532.663 86.052C533.122 84.7772 536.706 74.8481 538.593 69.6614C539.496 67.1846 541.062 67.4177 541.062 67.4177C541.062 67.4177 543.83 67.4177 544.26 67.4759C545.717 67.4759 546.249 69.6978 546.22 69.6177C548.085 74.819 551.632 84.8136 552.091 86.0812L558.378 67.0461H563.893L554.903 93.9632ZM656.409 38.3151C656.737 39.9542 656.066 40.1218 655.746 39.6555C651.419 33.3032 644.68 34.3668 631.837 40.282L631.735 40.333C611.95 49.4535 604.541 46.1171 597.278 42.4237C591.276 39.3714 585.754 32.786 579.708 27.5046C574.812 23.243 570.718 22.4053 567.863 22.7039C567.207 22.7768 566.551 22.8861 565.896 22.9953C565.575 23.0609 564.971 23.1847 564.796 22.7914C564.548 22.2377 566.1 21.3344 566.486 21.1232C567.52 20.5448 568.659 20.1783 569.837 20.045C574.936 19.4331 579.38 22.5291 583.124 25.545C586.869 28.5609 598.226 38.337 607.892 39.8668C613.72 40.792 617.202 40.9595 632.66 33.9953C632.66 33.9953 641.482 29.945 647.266 30.4622C652.111 30.9066 655.425 33.4198 656.409 38.3151ZM660.852 49.9052C661.013 51.2747 660.372 51.6753 659.905 50.8813C656.86 45.6654 650.901 44.6164 640.317 49.0164C631.116 52.8409 621.034 58.9382 608.06 57.6853C605.299 57.4157 599.02 57.2263 588.865 47.2972C586.818 45.2939 584.45 42.6933 582.454 40.639C581.075 39.2469 579.587 37.968 578.003 36.8145C576.313 35.5542 575.089 35.7509 575.089 35.2483C575.089 34.7456 576.167 34.6072 576.546 34.5708C577.844 34.5335 579.134 34.7979 580.312 35.343C582.585 36.29 584.428 37.8926 586.286 39.4516C591.239 43.6257 599.071 53.6204 614.296 51.9449C620.269 51.2893 624.997 49.2422 630.424 47.0204C632.974 45.9787 644.141 40.4277 651.79 41.1926C657.458 41.8337 660.364 45.6582 660.86 49.9052H660.852ZM664.269 71.6355C663.903 71.6631 663.551 71.7913 663.253 72.0059C662.954 72.2206 662.721 72.5134 662.579 72.8521C660.699 76.3925 656.955 84.7408 656.955 84.7408H671.634C671.634 84.7408 667.875 76.3633 665.988 72.8302C665.861 72.479 665.628 72.1758 665.321 71.9619C665.015 71.7481 664.65 71.6341 664.276 71.6355H664.269Z" fill="white"/>
</g>
<path d="M675.728 93.9851L673.295 88.8129H655.294L652.868 93.9851H646.582L658.186 69.6978C658.186 69.6978 659.301 67.0316 662.113 67.0316H666.483C667.321 67.061 668.133 67.3261 668.826 67.7965C669.519 68.2669 670.066 68.9234 670.403 69.6905L682 93.9778L675.728 93.9851ZM643.566 93.9851H628.319C622.761 93.9851 623.052 88.5143 623.052 88.5143V67.0607H628.355V87.8004C628.357 88.0057 628.4 88.2085 628.481 88.3971C628.562 88.5857 628.68 88.7562 628.828 88.8987C628.976 89.0411 629.151 89.1526 629.342 89.2267C629.534 89.3008 629.738 89.336 629.943 89.3302H645.831C644.549 92.0984 643.566 93.9924 643.566 93.9924V93.9851ZM620.51 93.9851H602.611C597.053 93.9851 597.344 88.5143 597.344 88.5143V67.068H602.647V87.8076C602.648 88.012 602.69 88.2141 602.77 88.4021C602.85 88.5902 602.966 88.7604 603.113 88.9029C603.259 89.0453 603.433 89.1571 603.623 89.2317C603.813 89.3063 604.017 89.3423 604.221 89.3374H618.237C620.764 89.3374 620.51 93.9997 620.51 93.9997V93.9851ZM593.971 93.9851H572.634C566.551 93.9851 566.471 88.4123 566.471 88.4123V72.5243C566.471 72.5243 566.26 67.119 572.51 67.119H593.789C593.789 67.119 593.52 71.8249 591.604 71.8249H573.61C573.405 71.8001 573.196 71.8193 572.999 71.8813C572.802 71.9433 572.62 72.0467 572.465 72.1846C572.311 72.3224 572.188 72.4916 572.104 72.6808C572.02 72.87 571.977 73.0749 571.979 73.2819V77.8494H587.444V82.5553H571.979V87.6547C571.945 87.878 571.964 88.106 572.034 88.3208C572.103 88.5356 572.222 88.7312 572.38 88.8923C572.538 89.0533 572.732 89.1754 572.945 89.2489C573.159 89.3224 573.387 89.3452 573.61 89.3156H591.655C594.168 89.4103 593.971 94.007 593.971 94.007V93.9851ZM563.696 57.627C558.684 53.5475 552.04 55.0773 546.089 55.3396C544.573 55.4051 542.803 55.5363 541.412 54.8442C540.818 54.5114 540.335 54.0116 540.023 53.4068C539.711 52.802 539.584 52.1189 539.656 51.4422C539.686 50.6042 539.816 49.7728 540.042 48.9654C540.254 48.1495 540.305 47.7052 539.576 47.1442C538.33 46.1826 539.926 44.5363 540.88 44.1211C540.571 43.9612 540.297 43.7418 540.073 43.4755C539.849 43.2092 539.68 42.9013 539.576 42.5694C539.521 42.2561 539.521 41.9357 539.576 41.6224C539.62 41.3456 539.977 41.1853 540.159 40.9959C540.362 40.8302 540.526 40.6213 540.638 40.3844C540.75 40.1475 540.808 39.8885 540.807 39.6264C540.742 38.9926 540.079 38.6138 539.62 38.1694C538.891 37.441 537.879 36.035 538.578 34.9423C538.911 34.5821 539.309 34.288 539.751 34.0754C540.399 33.6383 544.588 30.9284 545.79 29.7046C546.384 29.1565 546.766 28.416 546.868 27.6139C546.999 26.8344 547.152 26.0622 547.327 25.3046C547.873 22.9225 548.667 20.4748 550.423 18.6828C551.606 17.5696 552.928 16.6146 554.357 15.8417C554.469 15.7527 554.569 15.6499 554.655 15.5358C554.852 15.1786 554.999 14.7963 555.093 14.3993C555.959 11.9954 558.094 10.2179 560.345 9.13976C564.927 6.95434 570.063 7.09275 574.761 8.79009C579.62 10.5384 583.758 13.5033 587.932 16.4391C592.106 19.3748 596.084 22.4635 600.564 24.7801C613.247 31.3364 619.759 27.1403 625.062 24.7801C625.157 24.7364 634.387 20.2198 640.237 20.0304C646.239 19.8338 649.437 23.4834 650.29 26.4119C650.719 27.8688 650.413 28.5973 649.809 27.9635C646.414 24.241 642.801 22.7914 630.184 28.2986C619.817 32.8224 611.243 37.9363 597.206 29.3331C592.208 26.2735 587.437 22.8861 582.636 19.5205C578.316 16.4682 573.618 13.008 568.067 12.8768C564.424 12.7967 560.709 13.6927 558.378 16.6285C557.999 17.2356 557.541 17.7893 557.016 18.2748C556.586 18.5808 552.069 21.0139 551.239 24.9914C550.911 26.5721 551.086 28.4079 550.277 29.8503C549.469 31.2927 545.178 34.4032 544.45 34.8986C544.136 35.1099 542.862 35.7873 542.927 36.1661C543.051 36.9675 543.845 37.5648 544.479 37.9946C544.736 38.1755 544.943 38.4188 545.081 38.7017C545.218 38.9845 545.282 39.2977 545.265 39.6118C545.248 39.995 545.153 40.3707 544.987 40.7162C544.82 41.0618 544.585 41.37 544.297 41.6224C543.823 42.0449 544.792 42.8535 545.178 43.0138C545.564 43.1741 545.819 43.327 545.746 43.7423C545.673 44.1575 545.295 44.1648 545.069 44.4198C544.845 44.6788 544.683 44.9852 544.595 45.3158C544.493 45.6436 544.544 45.6363 544.785 45.8476C544.914 45.9629 545.026 46.0953 545.12 46.2409C545.296 46.4792 545.39 46.7679 545.389 47.0641C545.389 47.6687 544.828 48.2734 544.617 48.8343C544.187 50.0144 544.165 51.4714 545.673 51.7482C546.956 51.9886 548.412 51.6899 549.702 51.6244C552.572 51.3691 555.461 51.4203 558.32 51.7773C560.906 52.1926 563.419 53.0085 565.16 55.019C566.901 57.0296 567.739 59.7541 568.074 62.3766C568.132 62.923 567.542 62.974 567.302 62.617C566.996 62.2309 565.685 59.266 563.696 57.6488V57.627ZM554.903 93.9632H549.447L542.344 74.615C541.703 76.3123 534.965 93.9997 534.965 93.9997H529.742L521 67.0461H526.595L532.663 86.052C533.122 84.7772 536.706 74.8481 538.593 69.6614C539.496 67.1846 541.062 67.425 541.062 67.425C541.062 67.425 543.83 67.4249 544.26 67.4759C545.717 67.4759 546.249 69.6978 546.22 69.6177C548.085 74.819 551.632 84.8136 552.091 86.0812L558.378 67.0461H563.893L554.903 93.9632ZM656.409 38.3151C656.737 39.9542 656.066 40.1218 655.746 39.6555C651.419 33.3032 644.68 34.3668 631.837 40.282L631.735 40.333C611.95 49.4535 604.541 46.1171 597.278 42.4237C591.276 39.3714 585.754 32.786 579.708 27.5046C574.812 23.243 570.718 22.4053 567.863 22.7039C567.207 22.7768 566.551 22.8861 565.896 22.9953C565.575 23.0609 564.971 23.1847 564.796 22.7914C564.548 22.2377 566.1 21.3344 566.486 21.1232C567.52 20.5448 568.659 20.1783 569.837 20.045C574.936 19.4331 579.38 22.5291 583.124 25.545C586.869 28.5609 598.226 38.337 607.892 39.8668C613.72 40.792 617.202 40.9595 632.66 33.9953C632.66 33.9953 641.482 29.945 647.266 30.4622C652.111 30.9066 655.425 33.4198 656.409 38.3151ZM660.852 49.9052C661.013 51.2747 660.372 51.6753 659.905 50.8813C656.86 45.6654 650.901 44.6164 640.317 49.0164C631.116 52.8409 621.034 58.9382 608.06 57.6853C605.299 57.4157 599.02 57.2263 588.865 47.2972C586.818 45.2939 584.45 42.6933 582.454 40.639C581.075 39.2469 579.587 37.968 578.003 36.8145C576.313 35.5542 575.089 35.7509 575.089 35.2483C575.089 34.7456 576.167 34.6072 576.546 34.5708C577.844 34.5335 579.134 34.7979 580.312 35.343C582.585 36.29 584.428 37.8926 586.286 39.4516C591.239 43.6257 599.071 53.6204 614.296 51.9449C620.269 51.2893 624.997 49.2422 630.424 47.0204C632.974 45.9787 644.141 40.4277 651.79 41.1926C657.458 41.8337 660.364 45.6582 660.86 49.9052H660.852ZM664.269 71.6355C663.903 71.6631 663.551 71.7913 663.253 72.0059C662.954 72.2206 662.721 72.5134 662.579 72.8521C660.699 76.3925 656.955 84.7408 656.955 84.7408H671.634C671.634 84.7408 667.875 76.3633 665.988 72.8302C665.861 72.479 665.628 72.1758 665.321 71.9619C665.015 71.7481 664.65 71.6341 664.276 71.6355H664.269Z" fill="white"/>
</svg>
